<?xml version="1.0" encoding="UTF-8" standalone="no"?>
<!DOCTYPE svg PUBLIC "-//W3C//DTD SVG 1.1//EN" "http://www.w3.org/Graphics/SVG/1.1/DTD/svg11.dtd">
<svg width="100%" height="100%" viewBox="0 0 1972 883" version="1.1" xmlns="http://www.w3.org/2000/svg" xmlns:xlink="http://www.w3.org/1999/xlink" xml:space="preserve" xmlns:serif="http://www.serif.com/" style="fill-rule:evenodd;clip-rule:evenodd;">
    <g id="Artboard1" transform="matrix(1,0,0,0.966787,-302.596,-254.629)">
        <rect x="302.596" y="263.377" width="1971.76" height="913.176" style="fill:none;"/>
        <clipPath id="_clip1">
            <rect x="302.596" y="263.377" width="1971.76" height="913.176"/>
        </clipPath>
        <g clip-path="url(#_clip1)">
            <g id="Line_28" transform="matrix(1,0,0,1.03435,562.092,1132.06)">
                <path d="M1711.5,0L0,0" style="fill:none;fill-rule:nonzero;stroke:rgb(253,181,21);stroke-width:30px;"/>
            </g>
            <g id="Line_29" transform="matrix(1,0,0,1.03435,431.428,436.975)">
                <path d="M0,0L0,553.321" style="fill:none;fill-rule:nonzero;stroke:rgb(245,121,32);stroke-width:30px;"/>
            </g>
            <g id="Path_484" transform="matrix(-3.82857e-16,-1.03435,1,-3.9601e-16,432.756,1132.06)">
                <path d="M129.336,0C58.384,0 -0,58.384 0,129.336" style="fill:none;fill-rule:nonzero;stroke:rgb(234,54,142);stroke-width:60px;stroke-miterlimit:10;"/>
            </g>
            <g id="Path_488" transform="matrix(-3.82857e-16,1.03435,-1,-3.9601e-16,431.428,303.195)">
                <path d="M129.336,0C58.384,0 -0,58.384 0,129.336" style="fill:none;fill-rule:nonzero;stroke:rgb(31,192,218);stroke-width:60px;stroke-miterlimit:10;"/>
            </g>
        </g>
    </g>
</svg>
