<svg xmlns="http://www.w3.org/2000/svg" xmlns:xlink="http://www.w3.org/1999/xlink" width="388.245" height="650.462" viewBox="0 0 388.245 650.462">
  <defs>
    <clipPath id="clip-path">
      <rect id="Rectangle_357" data-name="Rectangle 357" width="366.2" height="638.07" fill="none"/>
    </clipPath>
  </defs>
  <g id="Group_249" data-name="Group 249" transform="matrix(0.999, -0.035, 0.035, 0.999, 0, 12.78)">
    <rect id="Rectangle_352" data-name="Rectangle 352" width="48.342" height="526.658" transform="translate(0 53.872)" fill="#00c3e0"/>
    <g id="Group_248" data-name="Group 248">
      <g id="Group_247" data-name="Group 247" clip-path="url(#clip-path)">
        <path id="Path_496" data-name="Path 496" d="M351.979,67.041H319.461A34.561,34.561,0,0,0,284.939,32.52H78.147A34.561,34.561,0,0,0,43.624,67.041H11.106A67.116,67.116,0,0,1,78.147,0H284.939a67.116,67.116,0,0,1,67.04,67.04" transform="translate(2.715 0)" fill="#791879"/>
        <path id="Path_497" data-name="Path 497" d="M285.835,526.8H79.043A71.686,71.686,0,0,1,7.437,455.192H49.085A29.992,29.992,0,0,0,79.043,485.15H285.835a29.992,29.992,0,0,0,29.958-29.958H357.44A71.686,71.686,0,0,1,285.835,526.8" transform="translate(1.818 111.273)" fill="#ec308e"/>
        <rect id="Rectangle_353" data-name="Rectangle 353" width="308.355" height="32.52" transform="translate(30.08 472.289)" fill="#791879"/>
        <rect id="Rectangle_354" data-name="Rectangle 354" width="147.022" height="32.52" transform="translate(117.251 68.958)" fill="#791879"/>
        <path id="Path_498" data-name="Path 498" d="M176.08,450.5a23.417,23.417,0,1,0-23.417,23.417A23.418,23.418,0,0,0,176.08,450.5" transform="translate(31.594 104.402)" fill="#ffb600"/>
        <rect id="Rectangle_355" data-name="Rectangle 355" width="55.531" height="499.422" transform="translate(310.669 67.042)" fill="#ffb600"/>
        <rect id="Rectangle_356" data-name="Rectangle 356" width="308.355" height="49.323" transform="translate(30.08 125.943)" fill="#ec308e"/>
      </g>
    </g>
  </g>
</svg>
