<svg xmlns="http://www.w3.org/2000/svg" xmlns:xlink="http://www.w3.org/1999/xlink" width="35" height="35" viewBox="0 0 35 35">
  <defs>
    <clipPath id="clip-path">
      <circle id="Elipse_27" data-name="Elipse 27" cx="17.5" cy="17.5" r="17.5" transform="translate(2242 -259)" fill="#fff"/>
    </clipPath>
    <clipPath id="clip-path-2">
      <path id="Caminho_617" data-name="Caminho 617" d="M55.958,22.054A18.187,18.187,0,1,0,74.145,3.867,18.185,18.185,0,0,0,55.958,22.054" transform="translate(-55.958 -3.867)" fill="none"/>
    </clipPath>
  </defs>
  <g id="Grupo_261" data-name="Grupo 261" transform="translate(-2335 405)">
    <g id="Grupo_de_máscara_11" data-name="Grupo de máscara 11" transform="translate(93 -146)" clip-path="url(#clip-path)">
      <g id="Grupo_256" data-name="Grupo 256" transform="translate(2242.101 -258.59)">
        <g id="Grupo_255" data-name="Grupo 255" transform="translate(0 0)" clip-path="url(#clip-path-2)">
          <path id="Caminho_553" data-name="Caminho 553" d="M114.922,13.04c-20.177-11.226-40.355,11.226-60.532,0V10.153c20.177,11.228,40.355-11.226,60.532,0Z" transform="translate(-57.16 -1.532)" fill="#e83862"/>
          <path id="Caminho_554" data-name="Caminho 554" d="M114.922,9.777C94.745-1.449,74.567,21,54.39,9.777V6.892c20.177,11.228,40.355-11.226,60.532,0Z" transform="translate(-57.16 -4.032)" fill="#e83862"/>
          <path id="Caminho_555" data-name="Caminho 555" d="M114.922,6.52C94.745-4.706,74.567,17.746,54.39,6.52V3.635c20.177,11.228,40.355-11.226,60.532,0Z" transform="translate(-57.16 -6.529)" fill="#e83862"/>
          <path id="Caminho_556" data-name="Caminho 556" d="M114.922,16.3C94.745,5.075,74.567,27.528,54.39,16.3V13.415c20.177,11.228,40.355-11.226,60.532,0Z" transform="translate(-57.16 0.968)" fill="#e83862"/>
          <path id="Caminho_557" data-name="Caminho 557" d="M114.922,19.558c-20.177-11.226-40.355,11.226-60.532,0V16.671c20.177,11.228,40.355-11.226,60.532,0Z" transform="translate(-57.16 3.464)" fill="#e83862"/>
          <path id="Caminho_558" data-name="Caminho 558" d="M114.922,22.816c-20.177-11.226-40.355,11.226-60.532,0V19.931c20.177,11.228,40.355-11.226,60.532,0Z" transform="translate(-57.16 5.963)" fill="#e83862"/>
          <path id="Caminho_559" data-name="Caminho 559" d="M114.922,26.071c-20.177-11.226-40.355,11.228-60.532,0V23.186c20.177,11.228,40.355-11.226,60.532,0Z" transform="translate(-57.16 8.458)" fill="#e83862"/>
          <path id="Caminho_560" data-name="Caminho 560" d="M114.922,11.408C94.745.182,74.567,22.636,54.39,11.408V8.523c20.177,11.228,40.355-11.226,60.532,0Z" transform="translate(-57.16 -2.782)" fill="#fff"/>
          <path id="Caminho_561" data-name="Caminho 561" d="M114.922,8.15C94.745-3.076,74.567,19.376,54.39,8.15V5.265c20.177,11.228,40.355-11.226,60.532,0Z" transform="translate(-57.16 -5.279)" fill="#fff"/>
          <path id="Caminho_562" data-name="Caminho 562" d="M114.922,14.67C94.745,3.444,74.567,25.9,54.39,14.67V11.785c20.177,11.228,40.355-11.226,60.532,0Z" transform="translate(-57.16 -0.281)" fill="#fff"/>
          <path id="Caminho_563" data-name="Caminho 563" d="M114.922,17.925C94.745,6.7,74.567,29.151,54.39,17.925V15.04c20.177,11.228,40.355-11.226,60.532,0Z" transform="translate(-57.16 2.214)" fill="#fff"/>
          <path id="Caminho_564" data-name="Caminho 564" d="M114.922,21.187c-20.177-11.226-40.355,11.226-60.532,0V18.3c20.177,11.228,40.355-11.226,60.532,0Z" transform="translate(-57.16 4.714)" fill="#fff"/>
          <path id="Caminho_565" data-name="Caminho 565" d="M114.922,24.446c-20.177-11.226-40.355,11.228-60.532,0V21.561c20.177,11.228,40.355-11.226,60.532,0Z" transform="translate(-57.16 7.212)" fill="#fff"/>
          <path id="Caminho_566" data-name="Caminho 566" d="M77.024,4.271c-7.545,1.7-15.09,2.208-22.635-1.989V19.711c7.545,4.2,15.09,3.687,22.635,1.989Z" transform="translate(-57.161 -5.082)" fill="#059aa5"/>
          <path id="Caminho_567" data-name="Caminho 567" d="M65.644,6.223l.238.636c-.193-.108-.382-.221-.572-.332v0l0,0q-.284.257-.571.509c.079-.237.161-.473.24-.71l.005-.005h0c-.2-.1-.394-.208-.59-.314.237-.032.475-.065.71-.1.067-.235.131-.472.2-.708.072.216.147.429.219.645.238-.037.477-.078.717-.118-.2.166-.4.33-.592.495h0l.007.005" transform="translate(-49.496 -2.848)" fill="#fff"/>
          <path id="Caminho_568" data-name="Caminho 568" d="M65.644,8.216l.238.634c-.193-.108-.382-.219-.572-.33v0l0,.005q-.284.254-.571.505c.079-.237.161-.473.24-.708l.005,0h0c-.2-.1-.394-.21-.59-.318.237-.032.475-.064.71-.1.067-.235.131-.472.2-.708.072.214.147.429.219.643v0c.238-.037.477-.079.717-.12-.2.168-.4.334-.592.5h0l.007,0" transform="translate(-49.496 -1.32)" fill="#fff"/>
          <path id="Caminho_569" data-name="Caminho 569" d="M65.644,10.211l.238.632c-.193-.108-.382-.221-.572-.332v0l0,0q-.284.257-.571.509c.079-.235.161-.472.24-.707l.005-.007h0c-.2-.1-.394-.208-.59-.314.237-.032.475-.065.71-.1.067-.235.131-.472.2-.708.072.216.147.429.219.645v0c.238-.037.477-.078.717-.118l-.592.495h0l.007.007" transform="translate(-49.496 0.208)" fill="#fff"/>
          <path id="Caminho_570" data-name="Caminho 570" d="M65.644,12.2l.238.634c-.193-.108-.382-.219-.572-.33v0l0,.005c-.189.168-.38.337-.571.505.079-.237.161-.473.24-.708l.005,0h0c-.2-.1-.394-.212-.59-.318.237-.032.475-.064.71-.1.067-.237.131-.472.2-.708.072.214.147.429.219.643v0c.238-.037.477-.079.717-.12-.2.168-.4.334-.592.5h0l.007,0" transform="translate(-49.496 1.736)" fill="#fff"/>
          <path id="Caminho_571" data-name="Caminho 571" d="M63.525,6.488l.238.657c-.193-.125-.382-.253-.572-.385v0l0,0c-.193.154-.382.306-.574.456.079-.228.161-.459.24-.689l.007,0h0c-.2-.122-.394-.246-.59-.371.237-.009.475-.019.71-.032.065-.231.131-.461.194-.692.074.223.147.443.221.666h0c.238-.014.475-.034.714-.055-.2.148-.392.3-.588.443h0l.009.005" transform="translate(-51.12 -2.67)" fill="#fff"/>
          <path id="Caminho_572" data-name="Caminho 572" d="M63.525,8.481c.079.219.159.438.238.655-.193-.125-.382-.253-.572-.382v0l0,0c-.193.152-.382.3-.574.452.079-.228.161-.458.24-.685l.007-.005h0c-.2-.122-.394-.246-.59-.373.237-.007.475-.018.71-.03.065-.231.131-.461.194-.692.074.223.147.443.221.664l0,0,0,0c.238-.016.475-.035.714-.057-.2.15-.392.3-.588.447h0l.009,0" transform="translate(-51.12 -1.143)" fill="#fff"/>
          <path id="Caminho_573" data-name="Caminho 573" d="M63.525,10.476l.238.654c-.193-.125-.382-.253-.572-.383v0l0,0c-.193.154-.382.306-.574.456.079-.228.161-.456.24-.685l.007-.007h0c-.2-.12-.394-.244-.59-.369.237-.009.475-.019.71-.032.065-.231.131-.461.194-.692.074.223.147.443.221.666l0,0,0,0c.238-.014.475-.034.714-.055-.2.148-.392.3-.588.443h0l.009.007" transform="translate(-51.12 0.385)" fill="#fff"/>
          <path id="Caminho_574" data-name="Caminho 574" d="M63.525,12.467c.079.219.159.438.238.655-.193-.125-.382-.254-.572-.382v0l0,0c-.193.152-.382.3-.574.452.079-.228.161-.458.24-.687l.007,0h0c-.2-.122-.394-.246-.59-.373.237-.007.475-.018.71-.03.065-.231.131-.461.194-.692.074.223.147.443.221.664l0,0,0,0c.238-.016.475-.035.714-.057-.2.15-.392.3-.588.447h0l.009,0" transform="translate(-51.12 1.913)" fill="#fff"/>
          <path id="Caminho_575" data-name="Caminho 575" d="M61.4,6.536c.081.23.161.458.242.687-.193-.148-.382-.3-.572-.452l0,0,0,0c-.193.132-.382.261-.574.389.079-.219.161-.44.24-.659l.009-.005h-.007c-.2-.145-.392-.293-.588-.443.237.021.475.039.71.055.065-.223.131-.445.194-.668.072.23.147.461.219.691l0,0c.237.009.475.019.714.025-.2.127-.394.253-.59.376h0l.007.005" transform="translate(-52.745 -2.664)" fill="#fff"/>
          <path id="Caminho_576" data-name="Caminho 576" d="M61.4,8.529c.081.23.161.458.242.685-.193-.148-.382-.3-.572-.45l0,0,0,0c-.193.129-.382.258-.574.385.079-.219.161-.438.24-.657l.009,0h-.007c-.2-.147-.392-.3-.588-.447.237.021.475.041.71.057.065-.223.131-.445.194-.668.072.23.147.459.219.689v0h0c.237.009.475.018.714.023-.2.129-.394.256-.59.38h0l.007,0" transform="translate(-52.745 -1.136)" fill="#fff"/>
          <path id="Caminho_577" data-name="Caminho 577" d="M61.4,10.524c.081.228.161.456.242.684-.193-.148-.382-.3-.572-.452l0,0,0,0c-.193.131-.382.26-.574.387.079-.219.161-.436.24-.655l.009-.007h-.007c-.2-.145-.392-.293-.588-.443.237.021.475.039.71.055.065-.223.131-.445.194-.668.072.23.147.461.219.691v0h0c.237.009.475.019.714.025-.2.127-.394.253-.59.376h0l.007.007" transform="translate(-52.745 0.392)" fill="#fff"/>
          <path id="Caminho_578" data-name="Caminho 578" d="M61.4,12.515c.081.23.161.458.242.685-.193-.148-.382-.3-.572-.45l0,0,0,0c-.193.129-.382.258-.574.385.079-.219.161-.438.24-.657l.009,0h-.007c-.2-.147-.392-.3-.588-.447.237.021.475.041.71.057.065-.223.131-.445.194-.668.072.23.147.459.219.689v0h0c.237.009.475.018.714.023-.2.131-.394.256-.59.38h0l.007,0" transform="translate(-52.745 1.92)" fill="#fff"/>
          <path id="Caminho_579" data-name="Caminho 579" d="M59.32,6.322c.079.24.161.479.24.719-.193-.173-.383-.352-.574-.53v0c-.193.1-.382.2-.574.3l.24-.622.005-.005h0c-.2-.175-.394-.35-.59-.53.237.057.475.11.71.157.067-.212.131-.426.2-.639.072.24.147.482.219.723h0c.238.044.477.087.715.125-.2.1-.394.2-.59.3l0,0,.007.007" transform="translate(-54.344 -2.865)" fill="#fff"/>
          <path id="Caminho_580" data-name="Caminho 580" d="M59.32,8.316c.079.24.161.477.24.717q-.289-.26-.574-.53v0c-.193.106-.382.207-.574.3.08-.207.161-.413.24-.62l.005,0h0c-.2-.177-.394-.353-.59-.533.237.057.475.111.71.159.067-.212.131-.426.2-.639.072.24.147.48.219.721l0,0,0,0c.238.044.477.087.715.124-.2.1-.394.2-.59.3l0,0,.007.005" transform="translate(-54.344 -1.337)" fill="#fff"/>
          <path id="Caminho_581" data-name="Caminho 581" d="M59.32,10.311c.079.24.161.479.24.715-.193-.173-.383-.352-.574-.53v0c-.193.1-.382.2-.574.3.08-.2.161-.412.24-.618l.005-.007h0c-.2-.175-.394-.35-.59-.53.237.057.475.11.71.157.067-.212.131-.426.2-.639.072.24.147.482.219.723l0,0,0,0c.238.044.477.087.715.125-.2.1-.394.2-.59.3l0,0,.007.009" transform="translate(-54.344 0.191)" fill="#fff"/>
          <path id="Caminho_582" data-name="Caminho 582" d="M59.32,12.3c.079.24.161.477.24.717q-.289-.26-.574-.53v0c-.193.106-.382.207-.574.3.08-.207.161-.413.24-.62l.005,0h0c-.2-.177-.394-.353-.59-.533.237.057.475.111.71.159.067-.212.131-.426.2-.639.072.24.147.48.219.721l0,0h0c.238.044.477.087.715.124-.2.1-.394.2-.59.3l0,0,.007.005" transform="translate(-54.344 1.719)" fill="#fff"/>
          <path id="Caminho_583" data-name="Caminho 583" d="M57.234,5.8c.079.254.159.505.238.758-.193-.207-.382-.415-.572-.625v0c-.193.074-.382.143-.574.21.079-.194.161-.389.24-.585l.007,0-.005,0c-.2-.207-.394-.417-.59-.629.237.1.475.189.71.277.067-.2.131-.4.2-.608.072.254.147.507.219.758.238.085.477.166.717.242-.2.071-.4.136-.592.2h0l.007.007" transform="translate(-55.943 -3.311)" fill="#fff"/>
          <path id="Caminho_584" data-name="Caminho 584" d="M57.234,7.792l.238.756c-.193-.207-.382-.413-.572-.624v0c-.193.071-.382.14-.574.207.079-.193.161-.387.24-.583h.007l-.005,0c-.2-.208-.394-.419-.59-.632.237.1.475.189.71.279.067-.2.131-.4.2-.608.072.253.147.5.219.756v0c.238.085.477.164.717.24-.2.071-.4.138-.592.2h0l.007.005" transform="translate(-55.943 -1.784)" fill="#fff"/>
          <path id="Caminho_585" data-name="Caminho 585" d="M57.234,9.786c.079.253.159.5.238.754-.193-.2-.382-.415-.572-.625v0c-.193.072-.382.141-.574.208.079-.193.161-.385.24-.581l.007,0-.005,0c-.2-.207-.394-.417-.59-.629.237.1.475.189.71.277.067-.2.131-.4.2-.608.072.254.147.507.219.758v0c.238.085.477.166.717.242-.2.071-.4.136-.592.2h0l.007.009" transform="translate(-55.943 -0.256)" fill="#fff"/>
          <path id="Caminho_586" data-name="Caminho 586" d="M57.234,11.778l.238.756c-.193-.2-.382-.413-.572-.624v0c-.193.071-.382.14-.574.207.079-.193.161-.387.24-.583h.007l-.005,0c-.2-.208-.394-.419-.59-.632.237.1.475.189.71.279.067-.2.131-.4.2-.608.072.253.147.505.219.756v0c.238.085.477.164.717.24-.2.071-.4.138-.592.2h0l.007.005" transform="translate(-55.943 1.272)" fill="#fff"/>
          <path id="Caminho_587" data-name="Caminho 587" d="M66.67,7.029c.079.208.161.417.24.625-.193-.1-.382-.2-.574-.309v0c-.193.177-.382.353-.574.526.079-.237.161-.477.24-.717l.009-.007-.007,0c-.2-.1-.392-.194-.588-.293.237-.041.473-.083.708-.125.067-.238.131-.477.2-.715.072.212.147.424.219.636v0l.717-.145c-.2.173-.394.344-.59.516l0,0,.007,0" transform="translate(-48.708 -2.22)" fill="#fff"/>
          <path id="Caminho_588" data-name="Caminho 588" d="M66.67,9.024c.079.208.161.417.24.625-.193-.1-.382-.208-.574-.313-.193.177-.382.355-.574.53.079-.238.161-.477.24-.717l.009-.009-.007,0Q65.71,9,65.416,8.851c.237-.041.473-.083.708-.127.067-.238.131-.477.2-.715.072.212.147.424.219.638.238-.046.477-.1.717-.143-.2.173-.394.343-.59.514l0,0,.007.005" transform="translate(-48.708 -0.693)" fill="#fff"/>
          <path id="Caminho_589" data-name="Caminho 589" d="M66.67,11.018c.079.208.161.417.24.625-.193-.1-.382-.207-.574-.311v0c-.193.177-.382.355-.574.53.079-.238.161-.479.24-.719l.009-.005-.007,0c-.2-.1-.392-.194-.588-.3.237-.039.473-.083.708-.125.067-.238.131-.477.2-.715.072.212.147.424.219.636v0l.717-.145c-.2.173-.394.346-.59.518l0,0,.007,0" transform="translate(-48.708 0.837)" fill="#fff"/>
          <path id="Caminho_590" data-name="Caminho 590" d="M66.67,13.014c.079.208.161.417.24.627-.193-.1-.382-.207-.574-.311v0c-.193.177-.382.353-.574.528.079-.238.161-.479.24-.719l.009-.007-.007,0q-.294-.143-.588-.291c.237-.041.473-.081.708-.127.067-.238.131-.477.2-.715.072.212.147.424.219.638v0c.238-.046.477-.1.717-.143-.2.173-.394.343-.59.514l0,0,.007,0" transform="translate(-48.708 2.367)" fill="#fff"/>
          <path id="Caminho_591" data-name="Caminho 591" d="M66.67,5.045c.079.208.161.417.24.627-.193-.1-.382-.207-.574-.311v0c-.193.177-.382.353-.574.528.079-.238.161-.479.24-.719l.009-.007-.007,0c-.2-.1-.392-.194-.588-.293.237-.041.473-.083.708-.127.067-.238.131-.475.2-.714.072.212.147.424.219.636v0c.238-.046.477-.1.717-.143-.2.173-.394.344-.59.516l0,0,.007,0" transform="translate(-48.708 -3.741)" fill="#fff"/>
          <path id="Caminho_592" data-name="Caminho 592" d="M64.6,7.37c.079.216.161.431.24.645-.193-.115-.383-.235-.574-.353v0c-.193.163-.382.323-.574.481.079-.23.161-.463.24-.7l.005-.005h0c-.2-.111-.392-.226-.588-.341.237-.021.473-.044.708-.067.067-.233.131-.468.2-.7.072.217.147.435.219.652v0c.24-.026.477-.058.717-.09-.2.159-.394.316-.59.473h0l.007,0" transform="translate(-50.296 -1.979)" fill="#fff"/>
          <path id="Caminho_593" data-name="Caminho 593" d="M64.6,9.365c.079.216.161.429.24.643-.193-.117-.383-.233-.574-.355-.193.163-.382.325-.574.484.079-.231.161-.465.24-.7l.005-.007h0c-.2-.11-.392-.224-.588-.339.237-.021.473-.044.708-.069.067-.233.131-.468.2-.7.072.219.147.436.219.654.24-.026.477-.057.717-.088l-.59.472h0l.007.005" transform="translate(-50.296 -0.451)" fill="#fff"/>
          <path id="Caminho_594" data-name="Caminho 594" d="M64.6,11.359c.079.216.161.431.24.645-.193-.117-.383-.235-.574-.355v0c-.193.163-.382.325-.574.482.079-.23.161-.463.24-.7l.005-.005h0c-.2-.111-.392-.228-.588-.343.237-.021.473-.044.708-.067.067-.233.131-.468.2-.7.072.217.147.435.219.652v0c.24-.026.477-.058.717-.09-.2.159-.394.318-.59.475h0l.007,0" transform="translate(-50.296 1.079)" fill="#fff"/>
          <path id="Caminho_595" data-name="Caminho 595" d="M64.6,13.356c.079.216.161.431.24.645-.193-.115-.383-.235-.574-.353v0c-.193.163-.382.323-.574.48.079-.23.161-.463.24-.7l.005-.007h0c-.2-.11-.392-.224-.588-.339.237-.021.473-.044.708-.069.067-.233.131-.468.2-.7.072.219.147.436.219.654v0c.24-.027.477-.057.717-.09-.2.159-.394.316-.59.473h0l.007,0" transform="translate(-50.296 2.61)" fill="#fff"/>
          <path id="Caminho_596" data-name="Caminho 596" d="M64.6,5.386c.079.216.161.431.24.645-.193-.115-.383-.235-.574-.353v0c-.193.163-.382.323-.574.481.079-.23.161-.463.24-.7l.005-.005h0c-.2-.111-.392-.226-.588-.341.237-.021.473-.044.708-.069.067-.233.131-.466.2-.7.072.217.147.435.219.652V5c.24-.026.477-.057.717-.088-.2.159-.394.316-.59.473h0l.007,0" transform="translate(-50.296 -3.5)" fill="#fff"/>
          <path id="Caminho_597" data-name="Caminho 597" d="M62.443,7.538c.079.223.161.447.24.67-.193-.136-.382-.274-.572-.417l0,0,0,0c-.191.145-.38.284-.571.422l.238-.673.007-.005h0c-.2-.132-.394-.269-.59-.406.237.005.472.009.707.011.067-.228.132-.452.2-.678.072.224.147.45.219.675v0l0,0c.238,0,.477-.009.715-.018-.2.14-.394.277-.59.413h0l.007.005" transform="translate(-51.948 -1.879)" fill="#fff"/>
          <path id="Caminho_598" data-name="Caminho 598" d="M62.443,9.532c.079.223.161.445.24.668-.193-.138-.382-.276-.572-.417h0c-.191.143-.38.283-.571.422.079-.223.159-.447.238-.671l.007-.007h0c-.2-.132-.394-.267-.59-.4.237.005.472.009.707.009.067-.226.132-.452.2-.678.072.226.147.452.219.678h0c.238,0,.477-.009.715-.018-.2.14-.394.276-.59.412h0l.007.007" transform="translate(-51.948 -0.352)" fill="#fff"/>
          <path id="Caminho_599" data-name="Caminho 599" d="M62.443,11.527c.079.223.161.447.24.67-.193-.138-.382-.276-.572-.417h0c-.191.143-.38.283-.571.422l.238-.673.007,0h0c-.2-.134-.394-.27-.59-.408.237.005.472.009.707.011.067-.228.132-.452.2-.678.072.224.147.45.219.675v0l0,0q.358-.005.715-.016c-.2.14-.394.277-.59.413h0l.007,0" transform="translate(-51.948 1.178)" fill="#fff"/>
          <path id="Caminho_600" data-name="Caminho 600" d="M62.443,13.523c.079.223.161.447.24.67-.193-.136-.382-.274-.572-.413l0,0,0,0c-.191.141-.38.281-.571.419l.238-.673.007-.005h0c-.2-.132-.394-.269-.59-.4.237,0,.472.007.707.009.067-.226.132-.452.2-.678.072.226.147.452.219.677v0l0,0c.238,0,.477-.007.715-.016-.2.14-.394.276-.59.412h0l.007.005" transform="translate(-51.948 2.708)" fill="#fff"/>
          <path id="Caminho_601" data-name="Caminho 601" d="M62.443,5.553c.079.223.161.447.24.67-.193-.136-.382-.274-.572-.417l0,0,0,0c-.191.145-.38.284-.571.422l.238-.673.007-.005h0c-.2-.132-.394-.269-.59-.406.237.005.472.007.707.009.067-.224.132-.45.2-.677.072.224.147.45.219.675v0l0,0q.358,0,.715-.016c-.2.14-.394.277-.59.413h0l.007.005" transform="translate(-51.948 -3.401)" fill="#fff"/>
          <path id="Caminho_602" data-name="Caminho 602" d="M60.335,7.458q.119.352.238.7Q60.288,7.919,60,7.67l0,0,0,0c-.193.12-.382.233-.574.344.081-.212.161-.426.242-.639l.005,0h0c-.2-.161-.392-.322-.588-.488.237.039.473.074.708.106.065-.217.131-.436.194-.654.074.235.147.47.221.7l0,0,0,0c.238.026.477.053.715.074-.2.113-.394.228-.59.337h0l.007.005" transform="translate(-53.564 -1.976)" fill="#fff"/>
          <path id="Caminho_603" data-name="Caminho 603" d="M60.335,9.452c.079.233.159.466.238.7-.191-.159-.382-.323-.571-.489h0c-.193.118-.382.233-.574.344.081-.212.161-.424.242-.638l.005-.005h0c-.2-.161-.392-.322-.588-.486.237.039.473.074.708.1.065-.217.131-.436.194-.654.074.235.147.472.221.707h0c.238.028.477.053.715.076-.2.113-.394.226-.59.336h0l.007.007" transform="translate(-53.564 -0.448)" fill="#fff"/>
          <path id="Caminho_604" data-name="Caminho 604" d="M60.335,11.447q.119.352.238.7c-.191-.159-.382-.323-.571-.489l0,0,0,0c-.193.118-.382.233-.574.344.081-.212.161-.426.242-.639l.005,0h0c-.2-.163-.392-.323-.588-.489.237.039.473.076.708.106.065-.217.131-.436.194-.654.074.235.147.47.221.7l0,0,0,0q.358.04.715.074c-.2.115-.394.228-.59.339h0l.007,0" transform="translate(-53.564 1.082)" fill="#fff"/>
          <path id="Caminho_605" data-name="Caminho 605" d="M60.335,13.443q.119.352.238.7-.286-.238-.571-.488l0,0,0,0c-.193.117-.382.231-.574.343.081-.212.161-.426.242-.639l.005,0h0c-.2-.161-.392-.322-.588-.486.237.039.473.074.708.1.065-.217.131-.436.194-.654.074.235.147.472.221.707l0,0,0,0c.238.028.477.053.715.076-.2.113-.394.226-.59.336h0l.007.005" transform="translate(-53.564 2.612)" fill="#fff"/>
          <path id="Caminho_606" data-name="Caminho 606" d="M60.335,5.474q.119.352.238.7-.286-.238-.571-.488l0,0,0,0c-.193.118-.382.233-.574.344.081-.212.161-.426.242-.639l.005,0h0c-.2-.161-.392-.322-.588-.488.237.039.473.074.708.1.065-.217.131-.435.194-.652.074.235.147.47.221.7l0,0,0,0c.238.028.477.053.715.076l-.59.337h0l.007.005" transform="translate(-53.564 -3.497)" fill="#fff"/>
          <path id="Caminho_607" data-name="Caminho 607" d="M58.273,7.1l.238.737c-.193-.191-.382-.382-.572-.574v0l0,0c-.191.088-.38.173-.571.256.079-.2.159-.4.238-.6l.007-.005h0c-.2-.189-.394-.382-.59-.579.237.076.473.148.708.219.067-.21.131-.417.2-.625l.221.738v0c.24.064.477.124.717.178-.2.087-.4.17-.592.251h0l.007.007" transform="translate(-55.146 -2.293)" fill="#fff"/>
          <path id="Caminho_608" data-name="Caminho 608" d="M58.273,9.091l.238.735c-.193-.189-.382-.383-.572-.576l0,0c-.191.09-.38.175-.571.258.079-.2.159-.4.238-.6l.007,0,0,0c-.2-.191-.394-.383-.59-.579.237.076.473.148.708.216.067-.208.131-.415.2-.624.074.247.147.493.221.74.24.064.477.124.717.18-.2.087-.4.17-.592.249h0l.007.009" transform="translate(-55.146 -0.766)" fill="#fff"/>
          <path id="Caminho_609" data-name="Caminho 609" d="M58.273,11.086c.079.247.159.491.238.737-.193-.189-.382-.383-.572-.576v0h0c-.191.09-.38.175-.571.258.079-.2.159-.4.238-.6l.007,0h0c-.2-.193-.394-.385-.59-.583.237.076.473.148.708.219.067-.21.131-.417.2-.625l.221.738v0c.24.064.477.124.717.178-.2.087-.4.171-.592.253h0l.007.005" transform="translate(-55.146 0.764)" fill="#fff"/>
          <path id="Caminho_610" data-name="Caminho 610" d="M58.273,13.083c.079.247.159.491.238.737-.193-.189-.382-.382-.572-.574v0l0,0c-.191.088-.38.173-.571.256.079-.2.159-.4.238-.6l.007,0,0,0c-.2-.191-.394-.383-.59-.579.237.076.473.148.708.217.067-.21.131-.417.2-.625.074.247.147.493.221.74v0c.24.064.477.124.717.18-.2.087-.4.17-.592.249h0l.007.007" transform="translate(-55.146 2.295)" fill="#fff"/>
          <path id="Caminho_611" data-name="Caminho 611" d="M58.273,5.113l.238.737c-.193-.189-.382-.382-.572-.574v0l0,0c-.191.088-.38.173-.571.256.079-.2.159-.4.238-.6l.007,0h0c-.2-.191-.394-.383-.59-.581.237.076.473.148.708.216.067-.207.131-.415.2-.622l.221.738v0c.24.064.477.124.717.18-.2.087-.4.17-.592.251h0l.007.007" transform="translate(-55.146 -3.814)" fill="#fff"/>
          <path id="Caminho_612" data-name="Caminho 612" d="M56.174,6.39c.079.26.161.519.24.779-.193-.223-.382-.449-.572-.675l0-.005,0,0c-.191.055-.382.1-.572.155.079-.187.161-.373.24-.562l.007,0,0,0c-.2-.226-.4-.456-.592-.687.237.12.473.235.708.346.067-.2.131-.392.2-.588.072.258.147.518.219.776v0c.24.108.479.208.719.307-.2.051-.4.1-.592.147h0l.007.007" transform="translate(-56.755 -2.882)" fill="#fff"/>
          <path id="Caminho_613" data-name="Caminho 613" d="M56.174,8.385c.079.26.161.519.24.777-.193-.224-.382-.449-.572-.677l0,0h0c-.191.053-.382.1-.572.155.079-.187.161-.373.24-.56l.007,0,0,0c-.2-.226-.4-.454-.592-.685.237.118.473.233.708.344.067-.2.131-.392.2-.588l.219.777c.24.108.479.21.719.309-.2.051-.4.1-.592.145h0l.007.009" transform="translate(-56.755 -1.354)" fill="#fff"/>
          <path id="Caminho_614" data-name="Caminho 614" d="M56.174,10.379c.079.26.161.519.24.779-.193-.224-.382-.45-.572-.677l0,0,0,0c-.191.053-.382.1-.572.155.079-.187.161-.373.24-.562h.007l0,0c-.2-.226-.4-.458-.592-.689.237.12.473.235.708.346.067-.2.131-.392.2-.588.072.258.147.518.219.776v0c.24.108.479.208.719.307-.2.051-.4.1-.592.148h0l.007.005" transform="translate(-56.755 0.176)" fill="#fff"/>
          <path id="Caminho_615" data-name="Caminho 615" d="M56.174,12.375c.079.261.161.521.24.779-.193-.223-.382-.449-.572-.675l0-.005,0,0c-.191.055-.382.106-.572.155.079-.187.161-.373.24-.562l.007,0,0,0c-.2-.226-.4-.454-.592-.685.237.118.473.233.708.344.067-.2.131-.392.2-.588l.219.777v0c.24.106.479.208.719.307-.2.051-.4.1-.592.145h0l.007.007" transform="translate(-56.755 1.706)" fill="#fff"/>
          <path id="Caminho_616" data-name="Caminho 616" d="M56.174,4.405c.079.26.161.519.24.779-.193-.223-.382-.449-.572-.675l0-.005,0,0c-.191.055-.382.1-.572.155.079-.187.161-.373.24-.562l.007,0,0,0c-.2-.226-.4-.456-.592-.687.237.118.473.233.708.344.067-.2.131-.392.2-.586.072.258.147.518.219.776v0c.24.106.479.208.719.307-.2.051-.4.1-.592.147h0l.007.007" transform="translate(-56.755 -4.404)" fill="#fff"/>
        </g>
      </g>
    </g>
    <g id="Elipse_30" data-name="Elipse 30" transform="translate(2335 -405)" fill="none" stroke="#781e77" stroke-width="2">
      <circle cx="17.5" cy="17.5" r="17.5" stroke="none"/>
      <circle cx="17.5" cy="17.5" r="16.5" fill="none"/>
    </g>
  </g>
</svg>
