<svg xmlns="http://www.w3.org/2000/svg" xmlns:xlink="http://www.w3.org/1999/xlink" width="35" height="35" viewBox="0 0 35 35">
  <defs>
    <clipPath id="clip-path">
      <circle id="Elipse_28" data-name="Elipse 28" cx="17.5" cy="17.5" r="17.5" transform="translate(2294 -259)" fill="#fff"/>
    </clipPath>
    <clipPath id="clip-path-2">
      <path id="Caminho_896" data-name="Caminho 896" d="M107.24,21.845a17.87,17.87,0,1,0,17.869-17.87,17.867,17.867,0,0,0-17.869,17.87" transform="translate(-107.24 -3.975)" fill="none"/>
    </clipPath>
  </defs>
  <g id="Grupo_260" data-name="Grupo 260" transform="translate(-2387 405)">
    <g id="Grupo_de_máscara_12" data-name="Grupo de máscara 12" transform="translate(93 -146)" clip-path="url(#clip-path)">
      <g id="Grupo_258" data-name="Grupo 258" transform="translate(2293.961 -258.59)">
        <g id="Grupo_257" data-name="Grupo 257" transform="translate(0 0)" clip-path="url(#clip-path-2)">
          <path id="Caminho_618" data-name="Caminho 618" d="M164.919,40.6c-19.566-11.009-39.132,11.067-58.7.019V3.776c19.568,11.048,39.134-11.029,58.7-.018Z" transform="translate(-108.023 -6.573)" fill="#e5394e"/>
          <path id="Caminho_619" data-name="Caminho 619" d="M106.219,26.311c19.577,11.053,39.155-11.053,58.732,0V9.342c-19.577-11.053-39.155,11.051-58.732,0Z" transform="translate(-108.023 -2.307)" fill="#fcdb1a"/>
          <path id="Caminho_620" data-name="Caminho 620" d="M114.31,13.095a.125.125,0,0,1-.051-.011.949.949,0,0,1-.074-.064l-.044-.03-.039-.058a.18.18,0,0,1-.027-.132.166.166,0,0,1,.092-.1.812.812,0,0,1,.1-.039s.055-.025.074-.03.085-.019.085-.019a.245.245,0,0,1,.037-.018.371.371,0,0,1,.058-.011.586.586,0,0,1,.072-.014.859.859,0,0,1,.106.005l.106,0c.026,0,.118-.009.143-.009a.52.52,0,0,1,.074,0,.526.526,0,0,1,.1.028c.016.007.1.039.136.049a1.012,1.012,0,0,1,.15.042.19.19,0,0,1,.078.071.2.2,0,0,1,.028.069.107.107,0,0,1,0,.071c-.009.016-.034.053-.034.053l-.041.067-.051.041s-.037.035-.065.032a4.13,4.13,0,0,0-.518-.057,3.509,3.509,0,0,0-.5.057" transform="translate(-102.005 2.614)" fill="#e5394e"/>
          <path id="Caminho_621" data-name="Caminho 621" d="M114.438,12.695c0-.088.039-.161.087-.161s.09.072.09.161-.039.163-.09.163-.087-.072-.087-.163" transform="translate(-101.722 2.586)" fill="#fff915"/>
          <path id="Caminho_622" data-name="Caminho 622" d="M114.466,12.689c0-.081.018-.148.042-.148s.041.067.041.148-.019.148-.041.148-.042-.065-.042-.148" transform="translate(-101.701 2.591)" fill="#fff915"/>
          <path id="Caminho_623" data-name="Caminho 623" d="M114.455,12.553a.06.06,0,0,1,.12,0,.06.06,0,0,1-.12,0" transform="translate(-101.709 2.558)" fill="#fff915"/>
          <path id="Caminho_624" data-name="Caminho 624" d="M114.557,12.585v.039h-.092v-.039h.03V12.5h-.041v-.035h.041v-.037h.041v.037h.039V12.5h-.039v.085Z" transform="translate(-101.71 2.505)" fill="#fff915"/>
          <path id="Caminho_625" data-name="Caminho 625" d="M114.607,12.585v.039h-.164v-.039h.062V12.5h-.041v-.035h.041v-.037h.039v.037h.039V12.5h-.039v.085Z" transform="translate(-101.718 2.505)" fill="#fff915"/>
          <path id="Caminho_626" data-name="Caminho 626" d="M114.724,13.071h-.311L114.406,13l-.016-.079-.016-.1c-.087-.115-.164-.189-.191-.173a.073.073,0,0,1,.03-.046c.076-.046.233.064.353.242l.03.049h.258l.03-.049c.118-.178.276-.288.352-.242a.062.062,0,0,1,.03.046c-.025-.016-.1.058-.191.173l-.016.1-.014.079-.007.076Z" transform="translate(-101.918 2.627)" fill="#fff915"/>
          <path id="Caminho_627" data-name="Caminho 627" d="M114.244,13a.294.294,0,0,0-.037-.071,1.909,1.909,0,0,1,.5-.062,1.934,1.934,0,0,1,.5.062s-.014.027-.035.06l-.025.051a1.577,1.577,0,0,0-.442-.053,1.49,1.49,0,0,0-.445.057.377.377,0,0,0-.016-.044Z" transform="translate(-101.899 2.84)" fill="#fff915"/>
          <path id="Caminho_628" data-name="Caminho 628" d="M114.689,13.105a2.021,2.021,0,0,0,.4-.041c.042-.011.069-.032.064-.055a.041.041,0,0,0-.023-.023,1.823,1.823,0,0,0-.873,0,.045.045,0,0,0-.025.023c0,.023.021.044.064.055a2.06,2.06,0,0,0,.4.041" transform="translate(-101.884 2.892)" fill="#fff915"/>
          <path id="Caminho_629" data-name="Caminho 629" d="M115.213,12.907l-.039-.034a.134.134,0,0,1-.083.016c-.044-.009-.06-.064-.06-.064a.166.166,0,0,1-.094.039.1.1,0,0,1-.069-.039.156.156,0,0,1-.087.03c-.041,0-.079-.055-.079-.055s-.039.053-.079.057a.1.1,0,0,1-.074-.035.09.09,0,0,1-.071.046.12.12,0,0,1-.094-.039.18.18,0,0,1-.065.06.113.113,0,0,1-.079-.019l-.012.028a.033.033,0,0,1-.021.012l.011.03a1.883,1.883,0,0,1,.489-.058,1.825,1.825,0,0,1,.495.06Z" transform="translate(-101.9 2.79)" fill="#fff915"/>
          <path id="Caminho_630" data-name="Caminho 630" d="M114.763,12.765l.018,0,0,.025a.073.073,0,0,0,.141.021l.011-.023,0,.026a.069.069,0,0,0,.071.057.071.071,0,0,0,.072-.069V12.8l.023-.023.012.03a.058.058,0,0,0-.007.03.068.068,0,0,0,.069.065.07.07,0,0,0,.057-.03l.016-.019,0,.023c0,.025.011.044.034.048a.094.094,0,0,0,.058-.025.319.319,0,0,0,.051-.049l0,.028a.269.269,0,0,1-.064.071.106.106,0,0,1-.062.018.067.067,0,0,1-.044-.041.083.083,0,0,1-.051.014.1.1,0,0,1-.092-.057.1.1,0,0,1-.076.034.107.107,0,0,1-.081-.037.114.114,0,0,1-.071.028.108.108,0,0,1-.087-.044.113.113,0,0,1-.087.044.119.119,0,0,1-.072-.028.1.1,0,0,1-.08.037.1.1,0,0,0-.168.023.092.092,0,0,1-.053-.014.065.065,0,0,1-.042.041.106.106,0,0,1-.062-.018.273.273,0,0,1-.067-.071l.005-.028a.4.4,0,0,0,.053.049.094.094,0,0,0,.058.025c.023,0,.032-.023.032-.048V12.85l.014.019a.071.071,0,0,0,.058.03.068.068,0,0,0,.069-.065.058.058,0,0,0-.007-.03l.012-.03.023.023v.009a.072.072,0,0,0,.143.012l0-.026.011.023a.075.075,0,0,0,.069.048.07.07,0,0,0,.072-.069l0-.025Z" transform="translate(-101.957 2.763)" fill="#fff915"/>
          <path id="Caminho_631" data-name="Caminho 631" d="M114.714,12.882a1.844,1.844,0,0,0-.5.06.017.017,0,0,1-.021-.012.019.019,0,0,1,.011-.019,2.067,2.067,0,0,1,1.018,0,.018.018,0,0,1,.012.019c0,.009-.014.016-.021.012a1.868,1.868,0,0,0-.5-.06" transform="translate(-101.909 2.826)" fill="#fff915"/>
          <path id="Caminho_632" data-name="Caminho 632" d="M114.382,12.918a.028.028,0,0,1,.026-.028.029.029,0,0,1,.028.028.028.028,0,0,1-.028.026.026.026,0,0,1-.026-.026" transform="translate(-101.765 2.859)" fill="#fff"/>
          <path id="Caminho_633" data-name="Caminho 633" d="M114.527,12.929h-.064a.021.021,0,0,1-.021-.021.02.02,0,0,1,.021-.018h.127a.019.019,0,0,1,.021.018.02.02,0,0,1-.021.021Z" transform="translate(-101.719 2.859)" fill="#e5394e"/>
          <path id="Caminho_634" data-name="Caminho 634" d="M114.343,12.946l-.044.005a.024.024,0,0,1-.026-.016.023.023,0,0,1,.018-.023l.046-.005.046-.009a.024.024,0,0,1,.025.018.022.022,0,0,1-.018.023Z" transform="translate(-101.85 2.865)" fill="#3d8e6d"/>
          <path id="Caminho_635" data-name="Caminho 635" d="M114.208,12.958l.021-.034.041.007-.023.037Z" transform="translate(-101.899 2.885)" fill="#e5394e"/>
          <path id="Caminho_636" data-name="Caminho 636" d="M114.564,12.918a.028.028,0,1,1,.057,0,.028.028,0,0,1-.057,0" transform="translate(-101.626 2.859)" fill="#fff"/>
          <path id="Caminho_637" data-name="Caminho 637" d="M114.694,12.946l.046.005a.02.02,0,1,0,.007-.039l-.046-.005-.046-.009a.024.024,0,0,0-.025.018.022.022,0,0,0,.018.023Z" transform="translate(-101.575 2.865)" fill="#3d8e6d"/>
          <path id="Caminho_638" data-name="Caminho 638" d="M114.793,12.959l-.018-.035-.042,0,.019.039Z" transform="translate(-101.496 2.885)" fill="#e5394e"/>
          <path id="Caminho_639" data-name="Caminho 639" d="M114.667,13.049a1.792,1.792,0,0,1-.41-.042,1.924,1.924,0,0,1,.82,0,1.8,1.8,0,0,1-.41.042" transform="translate(-101.861 2.914)" fill="#e5394e"/>
          <path id="Caminho_640" data-name="Caminho 640" d="M114.785,12.829a.022.022,0,0,0-.009-.028c-.009,0-.019.005-.023.019a.019.019,0,0,0,.009.026c.009,0,.019-.005.023-.018" transform="translate(-101.483 2.79)" fill="#fff915"/>
          <path id="Caminho_641" data-name="Caminho 641" d="M114.608,12.795a.023.023,0,0,0-.014-.026c-.011,0-.018.007-.019.023a.021.021,0,0,0,.012.025c.011,0,.019-.011.021-.021" transform="translate(-101.618 2.765)" fill="#fff915"/>
          <path id="Caminho_642" data-name="Caminho 642" d="M114.386,12.795a.023.023,0,0,1,.014-.026c.009,0,.018.007.019.023a.021.021,0,0,1-.014.025c-.009,0-.018-.011-.019-.021" transform="translate(-101.762 2.765)" fill="#fff915"/>
          <path id="Caminho_643" data-name="Caminho 643" d="M114.208,12.829a.022.022,0,0,1,.009-.028c.009,0,.019.005.025.019s0,.023-.011.026-.019-.005-.023-.018" transform="translate(-101.9 2.79)" fill="#fff915"/>
          <path id="Caminho_644" data-name="Caminho 644" d="M114.513,12.68l-.057.034.042.09.014.009.014-.009.042-.09Z" transform="translate(-101.708 2.698)" fill="#fff915"/>
          <path id="Caminho_645" data-name="Caminho 645" d="M114.419,12.775l.025.037.088-.028.009-.012-.009-.011-.088-.026Z" transform="translate(-101.737 2.739)" fill="#fff915"/>
          <path id="Caminho_646" data-name="Caminho 646" d="M114.611,12.775l-.026.037-.087-.028-.009-.012.009-.011.087-.026Z" transform="translate(-101.683 2.739)" fill="#fff915"/>
          <path id="Caminho_647" data-name="Caminho 647" d="M114.3,12.7l-.042.041.055.074.016.005.011-.011.019-.088Z" transform="translate(-101.859 2.715)" fill="#fff915"/>
          <path id="Caminho_648" data-name="Caminho 648" d="M114.231,12.806l.034.03.079-.042.005-.014-.011-.011-.092-.007Z" transform="translate(-101.881 2.76)" fill="#fff915"/>
          <path id="Caminho_649" data-name="Caminho 649" d="M114.418,12.773l-.018.041-.09-.007L114.3,12.8l.005-.016.08-.041Z" transform="translate(-101.828 2.744)" fill="#fff915"/>
          <path id="Caminho_650" data-name="Caminho 650" d="M114.23,12.8l-.007.042-.092.011-.012-.009,0-.014.069-.057Z" transform="translate(-101.967 2.773)" fill="#fff915"/>
          <path id="Caminho_651" data-name="Caminho 651" d="M114.281,12.785a.031.031,0,0,1,.032-.03.03.03,0,1,1,0,.06.031.031,0,0,1-.032-.03" transform="translate(-101.843 2.755)" fill="#fff915"/>
          <path id="Caminho_652" data-name="Caminho 652" d="M114.72,12.7l.044.041-.057.074-.016.005-.011-.011-.019-.088Z" transform="translate(-101.551 2.715)" fill="#fff915"/>
          <path id="Caminho_653" data-name="Caminho 653" d="M114.8,12.806l-.034.03-.078-.042-.007-.014.011-.011.092-.007Z" transform="translate(-101.537 2.76)" fill="#fff915"/>
          <path id="Caminho_654" data-name="Caminho 654" d="M114.611,12.773l.016.041.092-.007.011-.011-.005-.016-.081-.041Z" transform="translate(-101.59 2.744)" fill="#fff915"/>
          <path id="Caminho_655" data-name="Caminho 655" d="M114.789,12.8l.007.042.09.011.014-.009,0-.014-.069-.057Z" transform="translate(-101.453 2.773)" fill="#fff915"/>
          <path id="Caminho_656" data-name="Caminho 656" d="M114.471,12.768a.032.032,0,0,1,.064,0,.032.032,0,1,1-.064,0" transform="translate(-101.697 2.742)" fill="#fff915"/>
          <path id="Caminho_657" data-name="Caminho 657" d="M114.661,12.785a.032.032,0,1,1,.032.03.03.03,0,0,1-.032-.03" transform="translate(-101.551 2.755)" fill="#fff915"/>
          <path id="Caminho_658" data-name="Caminho 658" d="M114.15,12.859a.356.356,0,0,0-.042-.046.148.148,0,0,0-.044-.021c0-.007.018-.019.039-.019a.042.042,0,0,1,.028.012l0-.011a.03.03,0,0,1,.023.019.124.124,0,0,1,0,.048l-.009.018" transform="translate(-102.01 2.768)" fill="#fff915"/>
          <path id="Caminho_659" data-name="Caminho 659" d="M114.115,12.815a.027.027,0,0,1,.034,0c.012.011.016.026.009.034a.027.027,0,0,1-.035,0,.022.022,0,0,1-.007-.032" transform="translate(-101.973 2.797)" fill="#fff915"/>
          <path id="Caminho_660" data-name="Caminho 660" d="M114.862,12.859a.357.357,0,0,1,.042-.046.148.148,0,0,1,.044-.021c0-.007-.018-.019-.037-.019a.043.043,0,0,0-.03.012l0-.011a.03.03,0,0,0-.023.019.124.124,0,0,0,0,.048l.009.018" transform="translate(-101.405 2.768)" fill="#fff915"/>
          <path id="Caminho_661" data-name="Caminho 661" d="M114.879,12.815a.029.029,0,0,0-.035,0c-.011.011-.014.026-.007.034a.025.025,0,0,0,.034,0c.012-.009.016-.025.009-.032" transform="translate(-101.42 2.797)" fill="#fff915"/>
          <rect id="Retângulo_380" data-name="Retângulo 380" width="1.447" height="0.382" transform="translate(12.085 15.984)" fill="#fff915"/>
          <path id="Caminho_662" data-name="Caminho 662" d="M114.169,13.458a.064.064,0,0,1,.026,0h1.083a.073.073,0,0,1,.03,0,.089.089,0,0,1-.064-.085.1.1,0,0,1,.067-.088l-.032.005H114.2a.082.082,0,0,1-.03,0h.005a.094.094,0,0,1,.062.087.092.092,0,0,1-.064.085" transform="translate(-101.932 3.162)" fill="#fff915"/>
          <path id="Caminho_663" data-name="Caminho 663" d="M114.21,13.38h1.083c.039,0,.069.023.069.051s-.03.049-.069.049H114.21c-.035,0-.065-.023-.065-.049a.06.06,0,0,1,.065-.051" transform="translate(-101.947 3.234)" fill="#fff915"/>
          <path id="Caminho_664" data-name="Caminho 664" d="M114.21,13.24h1.085c.037,0,.067.018.067.042s-.03.042-.067.042H114.21c-.035,0-.065-.018-.065-.042s.03-.042.065-.042" transform="translate(-101.947 3.127)" fill="#fff915"/>
          <path id="Caminho_665" data-name="Caminho 665" d="M115.941,16.9a.579.579,0,0,1-.256-.055.554.554,0,0,0-.251-.055.568.568,0,0,0-.253.055.6.6,0,0,1-.511,0,.594.594,0,0,0-.246-.051.507.507,0,0,0-.251.055.6.6,0,0,1-.256.055v.155a.578.578,0,0,0,.256-.055.549.549,0,0,1,.251-.055.567.567,0,0,1,.246.053.547.547,0,0,0,.254.057.574.574,0,0,0,.256-.053.545.545,0,0,1,.253-.057.554.554,0,0,1,.251.055.548.548,0,0,0,.254.055Z" transform="translate(-102.121 5.849)" fill="#3057bb"/>
          <path id="Caminho_666" data-name="Caminho 666" d="M115.941,16.989a.579.579,0,0,1-.256-.055.554.554,0,0,0-.251-.055.545.545,0,0,0-.253.057.6.6,0,0,1-.256.053.547.547,0,0,1-.254-.058.594.594,0,0,0-.246-.051.549.549,0,0,0-.251.055.6.6,0,0,1-.256.055v.157a.555.555,0,0,0,.256-.057.549.549,0,0,1,.251-.055.542.542,0,0,1,.246.055.613.613,0,0,0,.511,0,.567.567,0,0,1,.253-.057.579.579,0,0,1,.251.055.547.547,0,0,0,.254.057Z" transform="translate(-102.121 5.916)" fill="#cacaca"/>
          <path id="Caminho_667" data-name="Caminho 667" d="M115.941,17.079a.554.554,0,0,1-.256-.058.58.58,0,0,0-.251-.053.568.568,0,0,0-.253.055.6.6,0,0,1-.511,0,.542.542,0,0,0-.246-.053.55.55,0,0,0-.251.053.554.554,0,0,1-.256.058v.155a.555.555,0,0,0,.256-.057.55.55,0,0,1,.251-.053.567.567,0,0,1,.246.051.6.6,0,0,0,.511,0,.568.568,0,0,1,.253-.055.554.554,0,0,1,.251.055.548.548,0,0,0,.254.055Z" transform="translate(-102.121 5.985)" fill="#3057bb"/>
          <path id="Caminho_668" data-name="Caminho 668" d="M115.938,17.323a.539.539,0,0,1-.253-.057.561.561,0,0,0-.251-.053.571.571,0,0,0-.254.053.57.57,0,0,1-.254.057.528.528,0,0,1-.256-.06.562.562,0,0,0-.246-.049.556.556,0,0,0-.251.051.554.554,0,0,1-.256.058v-.154a.554.554,0,0,0,.256-.06.555.555,0,0,1,.251-.053.562.562,0,0,1,.246.051.588.588,0,0,0,.511,0,.57.57,0,0,1,.254-.055.56.56,0,0,1,.251.055.542.542,0,0,0,.254.057Z" transform="translate(-102.122 6.052)" fill="#cacaca"/>
          <path id="Caminho_669" data-name="Caminho 669" d="M115.938,17.412a.539.539,0,0,1-.253-.058.561.561,0,0,0-.251-.053.571.571,0,0,0-.254.053.58.58,0,0,1-.511,0,.562.562,0,0,0-.246-.051.581.581,0,0,0-.251.051.533.533,0,0,1-.256.06v-.155a.554.554,0,0,0,.256-.06.557.557,0,0,1,.251-.049.563.563,0,0,1,.246.048.528.528,0,0,0,.256.06.57.57,0,0,0,.254-.057.572.572,0,0,1,.254-.051.561.561,0,0,1,.251.051.542.542,0,0,0,.254.057Z" transform="translate(-102.122 6.122)" fill="#3057bb"/>
          <path id="Caminho_670" data-name="Caminho 670" d="M114.243,16.489a.2.2,0,0,1,.007.041.176.176,0,0,1-.182.171h1.489a.175.175,0,0,1-.18-.171.172.172,0,0,1,0-.041.069.069,0,0,1-.028,0h-1.083a.064.064,0,0,1-.026,0" transform="translate(-102.006 5.618)" fill="#fff915"/>
          <path id="Caminho_671" data-name="Caminho 671" d="M114.21,16.433h1.083a.063.063,0,0,1,.069.053c0,.026-.03.049-.069.049H114.21c-.035,0-.065-.023-.065-.049a.061.061,0,0,1,.065-.053" transform="translate(-101.947 5.575)" fill="#fff915"/>
          <rect id="Retângulo_381" data-name="Retângulo 381" width="1.486" height="0.38" transform="translate(12.065 22.317)" fill="#fff915"/>
          <path id="Caminho_672" data-name="Caminho 672" d="M114.105,15.675c-.147.085-.247.171-.231.216s.055.069.124.113c.1.072.168.2.117.263a.367.367,0,0,0,.143-.291.374.374,0,0,0-.152-.3" transform="translate(-102.156 4.994)" fill="#e5394e"/>
          <rect id="Retângulo_382" data-name="Retângulo 382" width="1.055" height="5.171" transform="translate(12.277 16.775)" fill="#cacaca"/>
          <path id="Caminho_673" data-name="Caminho 673" d="M116.652,14.905a3.381,3.381,0,0,0-1.072-.18,3.31,3.31,0,0,0-.505.046c-.631.106-1.111.357-1.072.564l0,.018s-.237-.533-.24-.555c-.042-.226.491-.507,1.192-.624a3.421,3.421,0,0,1,.62-.049,3.318,3.318,0,0,1,1.072.145Z" transform="translate(-102.241 3.804)" fill="#e5394e"/>
          <path id="Caminho_674" data-name="Caminho 674" d="M114.414,15.161c-.293-.021-.493-.1-.516-.221-.018-.1.081-.207.258-.3.078.007.168.018.26.018Z" transform="translate(-102.138 4.199)" fill="#e5394e"/>
          <path id="Caminho_675" data-name="Caminho 675" d="M114.79,14.71a.867.867,0,0,1,.389.131l.005.011c.034.067-.127.21-.4.367Z" transform="translate(-101.454 4.254)" fill="#e5394e"/>
          <path id="Caminho_676" data-name="Caminho 676" d="M113.819,16.046c-.028-.083.258-.251.661-.4.186-.067.337-.136.525-.219.562-.247.975-.532.924-.636l-.005-.011a3.768,3.768,0,0,1,.076.537c.053.094-.327.373-.843.622-.166.078-.514.207-.678.263-.295.1-.588.3-.562.369Z" transform="translate(-102.199 4.31)" fill="#e5394e"/>
          <path id="Caminho_677" data-name="Caminho 677" d="M114.233,14.54c.129-.046.215-.1.173-.2-.026-.064-.092-.078-.193-.039l-.177.062.159.392a.277.277,0,0,1,.053-.021.283.283,0,0,1,.055-.018Zm-.076-.189.044-.014a.076.076,0,0,1,.1.049.078.078,0,0,1-.032.1.359.359,0,0,1-.046.019Z" transform="translate(-102.03 3.922)" fill="#fff915"/>
          <path id="Caminho_678" data-name="Caminho 678" d="M114.431,14.226a.528.528,0,0,1-.057.014.542.542,0,0,1-.057.009l.092.408.284-.058a.059.059,0,0,1-.009-.025l0-.026c-.049.014-.1.032-.17.044Z" transform="translate(-101.814 3.883)" fill="#fff915"/>
          <path id="Caminho_679" data-name="Caminho 679" d="M114.836,14.614c.053-.148.118-.29.184-.433l-.035,0h-.037c-.034.1-.076.208-.12.313-.053-.1-.113-.2-.157-.293-.023,0-.046.005-.067.007s-.046,0-.069,0c.083.132.163.265.237.4a.191.191,0,0,1,.034-.005l.032,0" transform="translate(-101.649 3.848)" fill="#fff915"/>
          <path id="Caminho_680" data-name="Caminho 680" d="M115.178,14.291c.011-.018.019-.037.03-.057a.242.242,0,0,0-.117-.042c-.117-.011-.182.041-.191.111-.016.145.216.134.2.231-.005.042-.049.058-.1.053a.1.1,0,0,1-.1-.076l-.016,0a.384.384,0,0,1-.03.074.255.255,0,0,0,.12.039c.118.012.208-.035.217-.113.014-.14-.219-.147-.208-.228,0-.037.028-.06.09-.053a.088.088,0,0,1,.081.062Z" transform="translate(-101.395 3.855)" fill="#fff915"/>
          <path id="Caminho_681" data-name="Caminho 681" d="M120.271,12.909s-.048.053-.081.058-.08-.032-.08-.032a.151.151,0,0,1-.071.042c-.039.007-.092-.044-.092-.044a.2.2,0,0,1-.069.064.1.1,0,0,1-.074-.014.113.113,0,0,1-.041.039.049.049,0,0,1-.032,0l-.039-.025-.044-.048-.039-.014s-.019-.06-.021-.069l-.005-.037c-.009-.041.057-.092.15-.111a.269.269,0,0,1,.134,0,.351.351,0,0,1,.207-.053.371.371,0,0,1,.2.046.36.36,0,0,1,.2-.046.351.351,0,0,1,.207.053.276.276,0,0,1,.136,0c.092.019.157.071.148.111a.253.253,0,0,0-.005.037c0,.009-.021.069-.021.069l-.039.014-.046.048-.037.025a.049.049,0,0,1-.032,0,.1.1,0,0,1-.041-.039.1.1,0,0,1-.074.014.214.214,0,0,1-.071-.064s-.053.051-.092.044a.152.152,0,0,1-.069-.042s-.044.039-.08.032-.081-.058-.081-.058Z" transform="translate(-97.779 2.681)" fill="#e5394e"/>
          <path id="Caminho_682" data-name="Caminho 682" d="M119.921,12.7c0-.072.039-.127.088-.127s.09.055.09.127-.041.127-.09.127-.088-.058-.088-.127" transform="translate(-97.519 2.616)" fill="#fff915"/>
          <path id="Caminho_683" data-name="Caminho 683" d="M119.949,12.7c0-.065.018-.117.042-.117s.041.051.041.117-.018.117-.041.117-.042-.053-.042-.117" transform="translate(-97.498 2.62)" fill="#fff915"/>
          <path id="Caminho_684" data-name="Caminho 684" d="M119.729,13a.343.343,0,0,0-.039-.071,2.045,2.045,0,0,1,1,0l-.034.06-.026.051a1.564,1.564,0,0,0-.44-.053,1.473,1.473,0,0,0-.445.057L119.727,13Z" transform="translate(-97.697 2.84)" fill="#fff915"/>
          <path id="Caminho_685" data-name="Caminho 685" d="M120.172,13.105a2.043,2.043,0,0,0,.4-.041c.041-.011.067-.032.062-.055a.037.037,0,0,0-.023-.023,1.823,1.823,0,0,0-.873,0,.037.037,0,0,0-.023.023c-.005.023.019.044.062.055a2.06,2.06,0,0,0,.4.041" transform="translate(-97.68 2.892)" fill="#fff915"/>
          <path id="Caminho_686" data-name="Caminho 686" d="M120.189,12.689a.029.029,0,0,1,.028-.028.029.029,0,0,1,.03.028.027.027,0,0,1-.03.028.027.027,0,0,1-.028-.028" transform="translate(-97.314 2.683)" fill="#fff"/>
          <path id="Caminho_687" data-name="Caminho 687" d="M120.7,12.907l-.039-.034a.129.129,0,0,1-.083.016c-.044-.009-.06-.064-.06-.064a.166.166,0,0,1-.094.039.1.1,0,0,1-.069-.039.156.156,0,0,1-.087.03c-.041,0-.079-.055-.079-.055s-.039.053-.079.057a.1.1,0,0,1-.074-.035.089.089,0,0,1-.069.046.122.122,0,0,1-.1-.039.18.18,0,0,1-.065.06.117.117,0,0,1-.079-.019.131.131,0,0,1-.014.028c0,.011-.019.012-.019.012l.012.03a1.868,1.868,0,0,1,.488-.058,1.825,1.825,0,0,1,.495.06l.014-.035Z" transform="translate(-97.697 2.79)" fill="#fff915"/>
          <path id="Caminho_688" data-name="Caminho 688" d="M119.72,12.689a.029.029,0,0,1,.028-.028.029.029,0,0,1,.03.028.027.027,0,0,1-.03.028.027.027,0,0,1-.028-.028" transform="translate(-97.674 2.683)" fill="#fff"/>
          <path id="Caminho_689" data-name="Caminho 689" d="M120.247,12.765l.018,0,0,.025a.071.071,0,0,0,.072.069.074.074,0,0,0,.069-.048l.011-.023,0,.026a.073.073,0,0,0,.145-.012V12.8l.021-.023.014.03a.06.06,0,0,0-.009.03.069.069,0,0,0,.071.065.076.076,0,0,0,.058-.03l.014-.019,0,.023c0,.025.011.044.032.048a.1.1,0,0,0,.06-.025.318.318,0,0,0,.051-.049l0,.028a.252.252,0,0,1-.062.071.114.114,0,0,1-.062.018.067.067,0,0,1-.044-.041.086.086,0,0,1-.051.014.1.1,0,0,1-.092-.057.105.105,0,0,1-.157,0,.11.11,0,0,1-.071.028.114.114,0,0,1-.088-.044.1.1,0,0,1-.155.016.111.111,0,0,1-.083.037.1.1,0,0,0-.168.023.09.09,0,0,1-.051-.014.067.067,0,0,1-.044.041.1.1,0,0,1-.06-.018.272.272,0,0,1-.067-.071l0-.028a.4.4,0,0,0,.053.049.1.1,0,0,0,.06.025c.021,0,.032-.023.032-.048V12.85l.014.019a.07.07,0,0,0,.057.03.067.067,0,0,0,.069-.065l-.005-.03.011-.03.025.023,0,.009a.071.071,0,0,0,.072.069.069.069,0,0,0,.071-.057l0-.026.012.023a.074.074,0,0,0,.069.048.071.071,0,0,0,.072-.069l0-.025.018,0Z" transform="translate(-97.753 2.763)" fill="#fff915"/>
          <path id="Caminho_690" data-name="Caminho 690" d="M120.2,12.882a1.853,1.853,0,0,0-.5.06.017.017,0,0,1-.021-.012c0-.007,0-.016.012-.019a2.06,2.06,0,0,1,1.016,0,.018.018,0,0,1,.012.019c0,.009-.014.016-.021.012a1.867,1.867,0,0,0-.5-.06" transform="translate(-97.706 2.826)" fill="#fff915"/>
          <path id="Caminho_691" data-name="Caminho 691" d="M119.865,12.918a.028.028,0,0,1,.057,0,.028.028,0,0,1-.057,0" transform="translate(-97.562 2.859)" fill="#fff"/>
          <path id="Caminho_692" data-name="Caminho 692" d="M120.011,12.929h-.062a.022.022,0,0,1-.023-.021.02.02,0,0,1,.021-.018h.127c.012,0,.021.007.021.018a.02.02,0,0,1-.021.021Z" transform="translate(-97.516 2.859)" fill="#e5394e"/>
          <path id="Caminho_693" data-name="Caminho 693" d="M119.826,12.946l-.046.005a.02.02,0,1,1-.007-.039l.046-.005.046-.009a.024.024,0,0,1,.025.018.022.022,0,0,1-.018.023Z" transform="translate(-97.647 2.865)" fill="#3d8e6d"/>
          <path id="Caminho_694" data-name="Caminho 694" d="M119.692,12.958l.021-.034.042.007-.025.037Z" transform="translate(-97.695 2.885)" fill="#e5394e"/>
          <path id="Caminho_695" data-name="Caminho 695" d="M120.047,12.918a.03.03,0,0,1,.028-.028.029.029,0,0,1,.028.028.028.028,0,0,1-.028.026.029.029,0,0,1-.028-.026" transform="translate(-97.423 2.859)" fill="#fff"/>
          <path id="Caminho_696" data-name="Caminho 696" d="M120.178,12.946l.046.005a.023.023,0,0,0,.025-.016.021.021,0,0,0-.018-.023l-.046-.005-.046-.009a.024.024,0,0,0-.025.018.021.021,0,0,0,.018.023Z" transform="translate(-97.372 2.865)" fill="#3d8e6d"/>
          <path id="Caminho_697" data-name="Caminho 697" d="M120.277,12.959l-.016-.035-.044,0,.021.039Z" transform="translate(-97.293 2.885)" fill="#e5394e"/>
          <path id="Caminho_698" data-name="Caminho 698" d="M120.15,13.049a1.793,1.793,0,0,1-.41-.042,1.932,1.932,0,0,1,.821,0,1.809,1.809,0,0,1-.412.042" transform="translate(-97.658 2.914)" fill="#e5394e"/>
          <path id="Caminho_699" data-name="Caminho 699" d="M120.269,12.829a.024.024,0,0,0-.009-.028c-.009,0-.019.005-.023.019a.019.019,0,0,0,.009.026c.009,0,.019-.005.023-.018" transform="translate(-97.279 2.79)" fill="#fff915"/>
          <path id="Caminho_700" data-name="Caminho 700" d="M120.09,12.795a.022.022,0,0,0-.014-.026c-.007,0-.018.007-.018.023a.021.021,0,0,0,.012.025c.009,0,.018-.011.019-.021" transform="translate(-97.415 2.765)" fill="#fff915"/>
          <path id="Caminho_701" data-name="Caminho 701" d="M119.869,12.795a.023.023,0,0,1,.014-.026c.009,0,.018.007.019.023a.022.022,0,0,1-.014.025c-.009,0-.018-.011-.019-.021" transform="translate(-97.559 2.765)" fill="#fff915"/>
          <path id="Caminho_702" data-name="Caminho 702" d="M119.692,12.829a.02.02,0,0,1,.009-.028c.007,0,.019.005.023.019a.019.019,0,0,1-.009.026c-.009,0-.019-.005-.023-.018" transform="translate(-97.697 2.79)" fill="#fff915"/>
          <path id="Caminho_703" data-name="Caminho 703" d="M120,12.68l-.055.034.041.09.014.009.014-.009.042-.09Z" transform="translate(-97.504 2.698)" fill="#fff915"/>
          <path id="Caminho_704" data-name="Caminho 704" d="M119.9,12.775l.026.037.087-.028.009-.012-.009-.011-.087-.026Z" transform="translate(-97.533 2.739)" fill="#fff915"/>
          <path id="Caminho_705" data-name="Caminho 705" d="M120.095,12.775l-.027.037-.085-.028-.011-.012.011-.011.085-.026Z" transform="translate(-97.48 2.739)" fill="#fff915"/>
          <path id="Caminho_706" data-name="Caminho 706" d="M119.786,12.7l-.044.041.057.074.016.005.011-.011.019-.088Z" transform="translate(-97.657 2.715)" fill="#fff915"/>
          <path id="Caminho_707" data-name="Caminho 707" d="M119.715,12.806l.034.03.08-.042.005-.014-.011-.011-.092-.007Z" transform="translate(-97.678 2.76)" fill="#fff915"/>
          <path id="Caminho_708" data-name="Caminho 708" d="M119.9,12.773l-.018.041-.09-.007-.012-.011.007-.016.079-.041Z" transform="translate(-97.626 2.744)" fill="#fff915"/>
          <path id="Caminho_709" data-name="Caminho 709" d="M119.714,12.8l-.007.042-.092.011-.012-.009,0-.014.069-.057Z" transform="translate(-97.764 2.773)" fill="#fff915"/>
          <path id="Caminho_710" data-name="Caminho 710" d="M119.765,12.785a.032.032,0,1,1,.032.03.03.03,0,0,1-.032-.03" transform="translate(-97.639 2.755)" fill="#fff915"/>
          <path id="Caminho_711" data-name="Caminho 711" d="M120.2,12.7l.044.041-.055.074-.016.005-.011-.011-.021-.088Z" transform="translate(-97.348 2.715)" fill="#fff915"/>
          <path id="Caminho_712" data-name="Caminho 712" d="M120.282,12.806l-.032.03-.081-.042-.005-.014.011-.011.09-.007Z" transform="translate(-97.334 2.76)" fill="#fff915"/>
          <path id="Caminho_713" data-name="Caminho 713" d="M120.095,12.773l.016.041.092-.007.011-.011-.005-.016-.079-.041Z" transform="translate(-97.386 2.744)" fill="#fff915"/>
          <path id="Caminho_714" data-name="Caminho 714" d="M120.273,12.8l.007.042.09.011.014-.009,0-.014-.069-.057Z" transform="translate(-97.25 2.773)" fill="#fff915"/>
          <path id="Caminho_715" data-name="Caminho 715" d="M119.954,12.768a.03.03,0,0,1,.032-.03.031.031,0,1,1,0,.062.032.032,0,0,1-.032-.032" transform="translate(-97.494 2.742)" fill="#fff915"/>
          <path id="Caminho_716" data-name="Caminho 716" d="M120.144,12.785a.03.03,0,0,1,.032-.03.03.03,0,1,1,0,.06.03.03,0,0,1-.032-.03" transform="translate(-97.349 2.755)" fill="#fff915"/>
          <path id="Caminho_717" data-name="Caminho 717" d="M119.938,12.587a.061.061,0,0,1,.122,0,.061.061,0,0,1-.122,0" transform="translate(-97.506 2.582)" fill="#fff915"/>
          <path id="Caminho_718" data-name="Caminho 718" d="M120.041,12.62v.037h-.092V12.62h.03v-.085h-.041V12.5h.041v-.037h.039V12.5h.041v.037h-.041v.085Z" transform="translate(-97.506 2.53)" fill="#fff915"/>
          <path id="Caminho_719" data-name="Caminho 719" d="M120.091,12.62v.037h-.164V12.62h.062v-.085h-.042V12.5h.042v-.037h.039V12.5h.039v.037h-.039v.085Z" transform="translate(-97.515 2.53)" fill="#fff915"/>
          <path id="Caminho_720" data-name="Caminho 720" d="M119.634,12.859a.358.358,0,0,0-.042-.046.131.131,0,0,0-.044-.021c0-.007.019-.019.039-.019a.042.042,0,0,1,.028.012l0-.011a.03.03,0,0,1,.023.019.11.11,0,0,1,0,.048l-.007.018" transform="translate(-97.806 2.768)" fill="#fff915"/>
          <path id="Caminho_721" data-name="Caminho 721" d="M119.6,12.815a.027.027,0,0,1,.034,0c.012.011.016.026.009.034a.027.027,0,0,1-.035,0,.022.022,0,0,1-.007-.032" transform="translate(-97.77 2.797)" fill="#fff915"/>
          <path id="Caminho_722" data-name="Caminho 722" d="M120.347,12.859a.58.58,0,0,1,.042-.046.131.131,0,0,1,.044-.021c0-.007-.019-.019-.037-.019a.043.043,0,0,0-.03.012l0-.011a.03.03,0,0,0-.023.019.1.1,0,0,0,0,.048l.009.018" transform="translate(-97.201 2.768)" fill="#fff915"/>
          <path id="Caminho_723" data-name="Caminho 723" d="M120.363,12.815a.029.029,0,0,0-.035,0,.027.027,0,0,0-.009.034.03.03,0,0,0,.037,0c.011-.009.014-.025.007-.032" transform="translate(-97.216 2.797)" fill="#fff915"/>
          <rect id="Retângulo_383" data-name="Retângulo 383" width="1.447" height="0.382" transform="translate(21.769 15.984)" fill="#fff915"/>
          <path id="Caminho_724" data-name="Caminho 724" d="M120.794,13.458a.078.078,0,0,0-.028,0h-1.085a.088.088,0,0,0-.03,0,.088.088,0,0,0,.067-.085.1.1,0,0,0-.069-.088l.032.005h1.085a.1.1,0,0,0,.032,0h-.007a.094.094,0,0,0-.062.087.09.09,0,0,0,.065.085" transform="translate(-97.728 3.162)" fill="#fff915"/>
          <path id="Caminho_725" data-name="Caminho 725" d="M119.7,13.38h1.083a.061.061,0,0,1,.067.051c0,.026-.03.049-.067.049H119.7c-.037,0-.067-.023-.067-.049a.061.061,0,0,1,.067-.051" transform="translate(-97.743 3.234)" fill="#fff915"/>
          <path id="Caminho_726" data-name="Caminho 726" d="M119.7,13.24h1.085c.035,0,.064.018.064.042s-.028.042-.064.042H119.7c-.039,0-.067-.018-.067-.042s.028-.042.067-.042" transform="translate(-97.743 3.127)" fill="#fff915"/>
          <path id="Caminho_727" data-name="Caminho 727" d="M119.4,16.9a.584.584,0,0,0,.256-.055.552.552,0,0,1,.249-.055.571.571,0,0,1,.254.055.578.578,0,0,0,.256.055.569.569,0,0,0,.254-.058.594.594,0,0,1,.246-.051.512.512,0,0,1,.251.055.6.6,0,0,0,.256.055v.155a.579.579,0,0,1-.256-.055.554.554,0,0,0-.251-.055.567.567,0,0,0-.246.053.547.547,0,0,1-.254.057.579.579,0,0,1-.256-.053.6.6,0,0,0-.5,0,.553.553,0,0,1-.254.055Z" transform="translate(-97.918 5.849)" fill="#3057bb"/>
          <path id="Caminho_728" data-name="Caminho 728" d="M119.4,16.989a.584.584,0,0,0,.256-.055.6.6,0,0,1,.5,0,.6.6,0,0,0,.256.053.547.547,0,0,0,.254-.058.594.594,0,0,1,.246-.051.554.554,0,0,1,.251.055.6.6,0,0,0,.256.055v.157a.555.555,0,0,1-.256-.057.554.554,0,0,0-.251-.055.542.542,0,0,0-.246.055.57.57,0,0,1-.254.057.578.578,0,0,1-.256-.055.57.57,0,0,0-.254-.057.577.577,0,0,0-.249.055.552.552,0,0,1-.254.057Z" transform="translate(-97.918 5.916)" fill="#cacaca"/>
          <path id="Caminho_729" data-name="Caminho 729" d="M119.4,17.079a.559.559,0,0,0,.256-.058.577.577,0,0,1,.249-.053.571.571,0,0,1,.254.055.578.578,0,0,0,.256.057.569.569,0,0,0,.254-.058.542.542,0,0,1,.246-.053.555.555,0,0,1,.251.053.554.554,0,0,0,.256.058v.155a.555.555,0,0,1-.256-.057.555.555,0,0,0-.251-.053.567.567,0,0,0-.246.051.547.547,0,0,1-.254.058.555.555,0,0,1-.256-.055.571.571,0,0,0-.254-.055.552.552,0,0,0-.249.055.553.553,0,0,1-.254.055Z" transform="translate(-97.918 5.985)" fill="#3057bb"/>
          <path id="Caminho_730" data-name="Caminho 730" d="M119.4,17.323a.552.552,0,0,0,.254-.057.558.558,0,0,1,.249-.053.566.566,0,0,1,.254.053.584.584,0,0,0,.256.057.526.526,0,0,0,.254-.06.574.574,0,0,1,.246-.049.556.556,0,0,1,.251.051.56.56,0,0,0,.256.058v-.154a.559.559,0,0,1-.256-.06.555.555,0,0,0-.251-.053.573.573,0,0,0-.246.051.546.546,0,0,1-.254.06.56.56,0,0,1-.256-.057.565.565,0,0,0-.254-.055.558.558,0,0,0-.249.055.555.555,0,0,1-.256.057Z" transform="translate(-97.918 6.052)" fill="#cacaca"/>
          <path id="Caminho_731" data-name="Caminho 731" d="M119.4,17.412a.552.552,0,0,0,.254-.058.558.558,0,0,1,.249-.053.566.566,0,0,1,.254.053.56.56,0,0,0,.256.058.546.546,0,0,0,.254-.06.573.573,0,0,1,.246-.051.581.581,0,0,1,.251.051.538.538,0,0,0,.256.06v-.155a.559.559,0,0,1-.256-.06.557.557,0,0,0-.251-.049.574.574,0,0,0-.246.048.526.526,0,0,1-.254.06.584.584,0,0,1-.256-.057.567.567,0,0,0-.254-.051.559.559,0,0,0-.249.051.555.555,0,0,1-.256.057Z" transform="translate(-97.918 6.122)" fill="#3057bb"/>
          <path id="Caminho_732" data-name="Caminho 732" d="M120.869,16.489a.13.13,0,0,0-.009.041.178.178,0,0,0,.184.171h-1.493a.178.178,0,0,0,.184-.171.2.2,0,0,0-.007-.041.078.078,0,0,0,.028,0h1.085a.078.078,0,0,0,.028,0" transform="translate(-97.803 5.618)" fill="#fff915"/>
          <path id="Caminho_733" data-name="Caminho 733" d="M119.7,16.433h1.083a.062.062,0,0,1,.067.053c0,.026-.03.049-.067.049H119.7c-.037,0-.067-.023-.067-.049a.062.062,0,0,1,.067-.053" transform="translate(-97.743 5.575)" fill="#fff915"/>
          <rect id="Retângulo_384" data-name="Retângulo 384" width="1.486" height="0.38" transform="translate(21.751 22.317)" fill="#fff915"/>
          <path id="Caminho_734" data-name="Caminho 734" d="M120.525,15.675c.148.085.247.171.231.216s-.055.069-.122.113c-.1.072-.168.2-.12.263a.372.372,0,0,1,.011-.592" transform="translate(-97.173 4.994)" fill="#e5394e"/>
          <rect id="Retângulo_385" data-name="Retângulo 385" width="1.055" height="5.171" transform="translate(21.969 16.775)" fill="#cacaca"/>
          <path id="Caminho_735" data-name="Caminho 735" d="M119.065,14.905a3.4,3.4,0,0,1,1.072-.18,3.311,3.311,0,0,1,.505.046c.631.106,1.113.357,1.074.564l0,.018s.237-.533.24-.555c.042-.226-.491-.507-1.191-.624a3.44,3.44,0,0,0-.622-.049,3.31,3.31,0,0,0-1.072.145Z" transform="translate(-98.176 3.804)" fill="#e5394e"/>
          <path id="Caminho_736" data-name="Caminho 736" d="M120.275,15.161c.293-.021.493-.1.516-.221.018-.1-.081-.207-.258-.3-.079.007-.168.018-.26.018Z" transform="translate(-97.25 4.199)" fill="#e5394e"/>
          <path id="Caminho_737" data-name="Caminho 737" d="M119.848,14.71a.867.867,0,0,0-.389.131l-.007.011c-.032.067.129.21.4.367Z" transform="translate(-97.882 4.254)" fill="#e5394e"/>
          <path id="Caminho_738" data-name="Caminho 738" d="M121.593,16.046c.028-.083-.258-.251-.661-.4-.185-.067-.336-.136-.525-.219-.56-.247-.975-.532-.924-.636l.005-.011a4.035,4.035,0,0,0-.076.537c-.049.094.329.373.844.622.164.078.512.207.678.263.293.1.586.3.56.369Z" transform="translate(-97.912 4.31)" fill="#e5394e"/>
          <path id="Caminho_739" data-name="Caminho 739" d="M119.584,14.632c.041-.152.092-.3.143-.447l-.035.009-.035,0c-.025.108-.057.214-.092.322-.062-.094-.129-.185-.184-.279-.021,0-.044.009-.067.011l-.067.009c.1.125.185.253.272.383l.034-.009Z" transform="translate(-98.036 3.851)" fill="#fff915"/>
          <path id="Caminho_740" data-name="Caminho 740" d="M119.718,14.188c-.019,0-.037,0-.058,0s-.037,0-.057,0l-.007.417.29.005,0-.026.005-.026c-.053,0-.11.005-.177,0Z" transform="translate(-97.769 3.852)" fill="#fff915"/>
          <path id="Caminho_741" data-name="Caminho 741" d="M120.036,14.254a1.207,1.207,0,0,1,.136.021l0-.026a.066.066,0,0,1,.007-.026l-.394-.034a.132.132,0,0,1,0,.027l-.005.026c.041,0,.088,0,.143,0l-.035.375h.058l.057.009Z" transform="translate(-97.629 3.854)" fill="#fff915"/>
          <path id="Caminho_742" data-name="Caminho 742" d="M120.016,14.637l.057.009.055.014.048-.191,0,0,.034.076.058.145a.478.478,0,0,1,.069.014c.023,0,.044.011.067.016l-.019-.044c-.032-.064-.065-.131-.094-.2.074.005.129-.021.145-.081a.093.093,0,0,0-.046-.1.4.4,0,0,0-.118-.037l-.159-.035Zm.2-.352c.046.009.1.016.1.069a.07.07,0,0,1-.005.03c-.014.062-.06.083-.138.058Z" transform="translate(-97.447 3.884)" fill="#fff915"/>
          <path id="Caminho_743" data-name="Caminho 743" d="M120.585,14.658a1.38,1.38,0,0,1-.021.138.591.591,0,0,1,.058.028l.057.032.039-.466-.027-.014-.025-.014-.413.263.032.014a.305.305,0,0,0,.032.019,1.248,1.248,0,0,1,.113-.083Zm-.118-.106.138-.092-.016.157Z" transform="translate(-97.265 3.986)" fill="#fff915"/>
          <path id="Caminho_744" data-name="Caminho 744" d="M118.61,11.414a3.081,3.081,0,0,1,1.065.163,1.949,1.949,0,0,0,.546.14,2.159,2.159,0,0,0,.445.018,1.744,1.744,0,0,1,.689.161,1.886,1.886,0,0,1,.507.318l-.1.092-.03.258-.279.32-.14.118-.33.263-.17.014-.051.147-2.137-.251-2.143.251-.053-.147-.17-.014-.33-.263-.14-.118-.279-.32-.028-.258-.1-.092a1.914,1.914,0,0,1,.507-.318,1.744,1.744,0,0,1,.689-.161,2.159,2.159,0,0,0,.445-.018,1.949,1.949,0,0,0,.546-.14,2.951,2.951,0,0,1,1.044-.163" transform="translate(-101.001 1.727)" fill="#e5394e"/>
          <path id="Caminho_745" data-name="Caminho 745" d="M118.127,13.295a7.38,7.38,0,0,1-2.019-.249.075.075,0,0,1-.055-.079.077.077,0,0,1,.055-.076,8.3,8.3,0,0,1,4.037,0,.073.073,0,0,1,.055.076.075.075,0,0,1-.055.079,7.366,7.366,0,0,1-2.017.249" transform="translate(-100.485 2.668)" fill="#fff915"/>
          <path id="Caminho_746" data-name="Caminho 746" d="M118.035,13.134a7.7,7.7,0,0,1-1.864-.212,8.443,8.443,0,0,1,3.729,0,7.731,7.731,0,0,1-1.865.212" transform="translate(-100.394 2.724)" fill="#e5394e"/>
          <path id="Caminho_747" data-name="Caminho 747" d="M118.185,12.805a7.3,7.3,0,0,0-2.039.26c.042-.021.039-.072-.014-.208-.064-.164-.163-.157-.163-.157a9.213,9.213,0,0,1,4.445,0s-.1-.007-.164.157c-.053.136-.057.187-.012.208a7.425,7.425,0,0,0-2.053-.26" transform="translate(-100.548 2.504)" fill="#fff915"/>
          <path id="Caminho_748" data-name="Caminho 748" d="M118.228,12.489a8.2,8.2,0,0,0-2.219.272.069.069,0,0,1-.088-.039.068.068,0,0,1,.044-.088,9.159,9.159,0,0,1,4.529,0,.067.067,0,1,1-.044.127,8.219,8.219,0,0,0-2.222-.272" transform="translate(-100.589 2.444)" fill="#fff915"/>
          <path id="Caminho_749" data-name="Caminho 749" d="M116.873,12.569a.072.072,0,1,1,.071.067.069.069,0,0,1-.071-.067" transform="translate(-99.856 2.561)" fill="#fff"/>
          <path id="Caminho_750" data-name="Caminho 750" d="M117.352,12.628h-.215a.067.067,0,1,1,0-.134h.431a.068.068,0,0,1,.071.067.069.069,0,0,1-.071.067Z" transform="translate(-99.71 2.555)" fill="#e5394e"/>
          <path id="Caminho_751" data-name="Caminho 751" d="M116.721,12.669l-.154.019a.072.072,0,0,1-.079-.06.065.065,0,0,1,.062-.074l.154-.019.157-.018a.071.071,0,0,1,.079.06.068.068,0,0,1-.064.074Z" transform="translate(-100.151 2.573)" fill="#3d8e6d"/>
          <path id="Caminho_752" data-name="Caminho 752" d="M116.267,12.64a.071.071,0,1,1,.071.069.069.069,0,0,1-.071-.069" transform="translate(-100.32 2.616)" fill="#fff"/>
          <path id="Caminho_753" data-name="Caminho 753" d="M116,12.725l.079-.1.217.026-.175.129Z" transform="translate(-100.527 2.653)" fill="#e5394e"/>
          <path id="Caminho_754" data-name="Caminho 754" d="M117.929,12.669l.154.019a.072.072,0,0,0,.08-.06.066.066,0,0,0-.062-.074l-.154-.019-.157-.018a.071.071,0,0,0-.079.06.067.067,0,0,0,.062.074Z" transform="translate(-99.215 2.573)" fill="#3d8e6d"/>
          <path id="Caminho_755" data-name="Caminho 755" d="M117.5,12.569a.069.069,0,0,1,.071-.067.067.067,0,1,1,0,.134.069.069,0,0,1-.071-.067" transform="translate(-99.376 2.561)" fill="#fff"/>
          <path id="Caminho_756" data-name="Caminho 756" d="M118.106,12.64a.072.072,0,0,1,.143,0,.072.072,0,0,1-.143,0" transform="translate(-98.911 2.616)" fill="#fff"/>
          <path id="Caminho_757" data-name="Caminho 757" d="M118.584,12.725l-.079-.1-.217.026.173.129Z" transform="translate(-98.772 2.653)" fill="#e5394e"/>
          <path id="Caminho_758" data-name="Caminho 758" d="M116.375,12.277l.09.072.134-.221a.5.5,0,0,1-.246-.422c0-.021,0-.039,0-.058.012-.283.357-.516.791-.516a1.025,1.025,0,0,1,.574.161,1.147,1.147,0,0,1,.014-.118,1.167,1.167,0,0,0-.588-.15c-.5,0-.892.286-.912.624,0,.019,0,.039,0,.058a.6.6,0,0,0,.214.454Z" transform="translate(-100.346 1.429)" fill="#fff915"/>
          <path id="Caminho_759" data-name="Caminho 759" d="M116.438,12.187a.626.626,0,0,1-.277-.493.66.66,0,0,1,.364-.546.574.574,0,0,0-.23.4c0,.019,0,.039,0,.06a.6.6,0,0,0,.212.454Z" transform="translate(-100.402 1.523)" fill="#fff915"/>
          <path id="Caminho_760" data-name="Caminho 760" d="M115.531,12.358a.593.593,0,0,1-.154-.4.58.58,0,0,1,.06-.256,1.2,1.2,0,0,1,1.086-.491,1.908,1.908,0,0,1,.4.042.884.884,0,0,0-.069.1,1.958,1.958,0,0,0-.33-.032,1.077,1.077,0,0,0-.98.433.486.486,0,0,0-.048.207.492.492,0,0,0,.182.38l-.173.279-.09-.072Z" transform="translate(-101.003 1.573)" fill="#fff915"/>
          <path id="Caminho_761" data-name="Caminho 761" d="M115.752,11.332a.729.729,0,0,0-.27.281.6.6,0,0,0-.058.256.593.593,0,0,0,.154.4l-.1.17a.7.7,0,0,1-.159-.435.8.8,0,0,1,.436-.67" transform="translate(-101.049 1.664)" fill="#fff915"/>
          <path id="Caminho_762" data-name="Caminho 762" d="M117.375,10.993a.238.238,0,0,1,.237.177,1.9,1.9,0,0,1,.027.3.214.214,0,0,1,0,.034l0,.039a1.755,1.755,0,0,0,.081.555l-.348.334-.352-.334a1.855,1.855,0,0,0,.083-.555l0-.039V11.47a1.9,1.9,0,0,1,.026-.3.242.242,0,0,1,.24-.177" transform="translate(-99.741 1.405)" fill="#fff915"/>
          <path id="Caminho_763" data-name="Caminho 763" d="M117.322,11.054a.123.123,0,0,1,.122.092,1.7,1.7,0,0,1,.025.283v.032l0,.039a1.731,1.731,0,0,0,.079.523l-.23.217-.23-.217a1.684,1.684,0,0,0,.078-.523l0-.039,0-.032a2.166,2.166,0,0,1,.026-.283.127.127,0,0,1,.125-.092" transform="translate(-99.689 1.451)" fill="#fff915"/>
          <path id="Caminho_764" data-name="Caminho 764" d="M118.72,12.277l-.09.072-.136-.221a.5.5,0,0,0,.249-.422.312.312,0,0,0-.005-.058c-.012-.283-.357-.516-.793-.516a1.019,1.019,0,0,0-.572.161c-.005-.044-.009-.079-.014-.118a1.155,1.155,0,0,1,.587-.15c.5,0,.894.286.913.624l0,.058a.6.6,0,0,1-.212.454Z" transform="translate(-99.484 1.429)" fill="#fff915"/>
          <path id="Caminho_765" data-name="Caminho 765" d="M118.162,12.187a.626.626,0,0,0,.277-.493.658.658,0,0,0-.362-.546.572.572,0,0,1,.228.4c0,.019,0,.039,0,.06a.609.609,0,0,1-.212.454Z" transform="translate(-98.933 1.523)" fill="#fff915"/>
          <path id="Caminho_766" data-name="Caminho 766" d="M119.583,12.358a.586.586,0,0,0,.155-.4.606.606,0,0,0-.06-.256,1.2,1.2,0,0,0-1.088-.491,1.921,1.921,0,0,0-.4.042.715.715,0,0,1,.071.1,1.937,1.937,0,0,1,.329-.032,1.08,1.08,0,0,1,.982.433.486.486,0,0,1,.048.207.492.492,0,0,1-.182.38l.171.279.092-.072Z" transform="translate(-98.846 1.573)" fill="#fff915"/>
          <path id="Caminho_767" data-name="Caminho 767" d="M118.88,11.332a.7.7,0,0,1,.27.281.606.606,0,0,1,.06.256.586.586,0,0,1-.155.4l.1.17a.713.713,0,0,0,.157-.435.8.8,0,0,0-.436-.67" transform="translate(-98.317 1.664)" fill="#fff915"/>
          <path id="Caminho_768" data-name="Caminho 768" d="M117.152,11.692a.124.124,0,1,1,.124.117.118.118,0,0,1-.124-.117" transform="translate(-99.642 1.852)" fill="#fff"/>
          <path id="Caminho_769" data-name="Caminho 769" d="M117.152,11.564a.124.124,0,1,1,.124.117.119.119,0,0,1-.124-.117" transform="translate(-99.642 1.753)" fill="#fff"/>
          <path id="Caminho_770" data-name="Caminho 770" d="M117.166,11.414a.1.1,0,0,1,.2,0,.1.1,0,0,1-.2,0" transform="translate(-99.631 1.654)" fill="#fff"/>
          <path id="Caminho_771" data-name="Caminho 771" d="M117.182,11.276a.072.072,0,0,1,.143,0,.072.072,0,0,1-.143,0" transform="translate(-99.619 1.57)" fill="#fff"/>
          <path id="Caminho_772" data-name="Caminho 772" d="M117.19,11.159a.058.058,0,0,1,.115,0,.058.058,0,0,1-.115,0" transform="translate(-99.613 1.491)" fill="#fff"/>
          <path id="Caminho_773" data-name="Caminho 773" d="M118.432,12.042l.08.014a.286.286,0,0,0-.014.1.312.312,0,0,0,.318.3.321.321,0,0,0,.3-.208c.005,0,.03-.11.044-.11s.011.118.014.115a.321.321,0,0,0,.634-.046l0-.037.1-.1.053.125a.291.291,0,0,0-.03.132.3.3,0,0,0,.306.288.306.306,0,0,0,.253-.127l.065-.081,0,.1c0,.1.042.191.14.207a.425.425,0,0,0,.261-.11,1.763,1.763,0,0,0,.231-.214l.014.117a1,1,0,0,1-.26.27.461.461,0,0,1-.272.072.273.273,0,0,1-.2-.178.434.434,0,0,1-.23.062.442.442,0,0,1-.412-.247.456.456,0,0,1-.337.145.469.469,0,0,1-.36-.166.475.475,0,0,1-.318.12.474.474,0,0,0-.77,0,.475.475,0,0,1-.318-.12.469.469,0,0,1-.36.166.463.463,0,0,1-.339-.145.438.438,0,0,1-.41.247.449.449,0,0,1-.231-.062.268.268,0,0,1-.194.178.463.463,0,0,1-.274-.072,1,1,0,0,1-.26-.27l.012-.117a1.872,1.872,0,0,0,.233.214.422.422,0,0,0,.26.11.185.185,0,0,0,.141-.207l0-.1.065.081a.305.305,0,0,0,.253.127.3.3,0,0,0,.306-.288.272.272,0,0,0-.032-.132l.055-.125.1.1v.037a.321.321,0,0,0,.634.046s0-.113.014-.115.039.111.044.11a.317.317,0,0,0,.3.208.31.31,0,0,0,.318-.3.253.253,0,0,0-.016-.1Z" transform="translate(-100.786 2.209)" fill="#fff915"/>
          <path id="Caminho_774" data-name="Caminho 774" d="M118.534,12.32c.018-.055,0-.108-.037-.118s-.087.019-.1.074a.09.09,0,0,0,.037.12.1.1,0,0,0,.1-.076" transform="translate(-98.697 2.328)" fill="#fff"/>
          <path id="Caminho_775" data-name="Caminho 775" d="M117.749,12.162c.007-.057-.019-.1-.062-.11s-.078.037-.087.094.021.106.062.111.079-.037.087-.1" transform="translate(-99.299 2.216)" fill="#fff"/>
          <path id="Caminho_776" data-name="Caminho 776" d="M116.771,12.162c-.007-.057.019-.1.06-.11s.079.037.087.094-.019.106-.06.111-.08-.037-.087-.1" transform="translate(-99.935 2.216)" fill="#fff"/>
          <path id="Caminho_777" data-name="Caminho 777" d="M115.988,12.32c-.018-.055,0-.108.037-.118s.085.019.1.074,0,.108-.037.12a.1.1,0,0,1-.1-.076" transform="translate(-100.54 2.328)" fill="#fff"/>
          <path id="Caminho_778" data-name="Caminho 778" d="M116.414,11.742a.349.349,0,0,1,.148.2.106.106,0,0,1,.046-.037.157.157,0,0,1,.072-.023s-.012.064-.018.085-.005.092-.019.15a.548.548,0,0,1-.042.113.121.121,0,0,0-.1-.028.113.113,0,0,0-.087.06.6.6,0,0,1-.078-.09c-.037-.055-.062-.117-.074-.136s-.048-.076-.048-.076a.184.184,0,0,1,.074,0,.112.112,0,0,1,.058.021.325.325,0,0,1,.067-.235" transform="translate(-100.361 1.979)" fill="#fff915"/>
          <path id="Caminho_779" data-name="Caminho 779" d="M116.57,12.208a.11.11,0,0,1-.028-.15.736.736,0,0,0-.12-.044.759.759,0,0,0-.154-.014l-.074,0,.019.037a.329.329,0,0,0,.032.049.337.337,0,0,0-.2.134.36.36,0,0,0,.233.064.454.454,0,0,0-.012.057.161.161,0,0,0,0,.039l.067-.026a.68.68,0,0,0,.14-.062.669.669,0,0,0,.1-.081" transform="translate(-100.489 2.175)" fill="#fff915"/>
          <path id="Caminho_780" data-name="Caminho 780" d="M116.459,12.24a.115.115,0,0,0,.016-.079.112.112,0,0,0-.042-.071.671.671,0,0,1,.1-.083.767.767,0,0,1,.14-.06c.023-.007.069-.026.069-.026l0,.039a.453.453,0,0,1-.012.057.348.348,0,0,1,.233.065.344.344,0,0,1-.2.132.547.547,0,0,1,.032.051.164.164,0,0,1,.018.035l-.074,0a.657.657,0,0,1-.154-.014.736.736,0,0,1-.12-.044" transform="translate(-100.193 2.115)" fill="#fff915"/>
          <path id="Caminho_781" data-name="Caminho 781" d="M116.31,12.124a.137.137,0,0,1,.138-.134.141.141,0,0,1,.143.134.139.139,0,0,1-.143.134.136.136,0,0,1-.138-.134" transform="translate(-100.287 2.169)" fill="#e5394e"/>
          <path id="Caminho_782" data-name="Caminho 782" d="M117.341,11.621a.386.386,0,0,1,.125.247.123.123,0,0,1,.06-.034.177.177,0,0,1,.083-.009s-.025.069-.035.092-.027.1-.055.163a.568.568,0,0,1-.069.115.143.143,0,0,0-.108-.048.15.15,0,0,0-.11.048.521.521,0,0,1-.067-.115c-.03-.064-.044-.14-.055-.163s-.037-.092-.037-.092a.184.184,0,0,1,.085.009.137.137,0,0,1,.06.034.382.382,0,0,1,.122-.247" transform="translate(-99.702 1.886)" fill="#fff915"/>
          <path id="Caminho_783" data-name="Caminho 783" d="M117.42,12.174a.128.128,0,0,1-.034-.085A.134.134,0,0,1,117.42,12a.829.829,0,0,0-.124-.072.859.859,0,0,0-.168-.042l-.085-.014.014.042a.418.418,0,0,0,.025.06.382.382,0,0,0-.247.115.41.41,0,0,0,.247.115.34.34,0,0,0-.025.058l-.014.044s.057-.012.085-.016a.767.767,0,0,0,.168-.044.686.686,0,0,0,.124-.072" transform="translate(-99.885 2.078)" fill="#fff915"/>
          <path id="Caminho_784" data-name="Caminho 784" d="M117.286,12.174a.128.128,0,0,0,.034-.085.134.134,0,0,0-.034-.088.829.829,0,0,1,.124-.072.86.86,0,0,1,.168-.042l.083-.014a.262.262,0,0,1-.012.042.414.414,0,0,1-.025.06.386.386,0,0,1,.247.115.415.415,0,0,1-.247.115.337.337,0,0,1,.025.058.243.243,0,0,1,.012.044s-.055-.012-.083-.016a.767.767,0,0,1-.168-.044.686.686,0,0,1-.124-.072" transform="translate(-99.539 2.078)" fill="#fff915"/>
          <path id="Caminho_785" data-name="Caminho 785" d="M118.244,11.742a.352.352,0,0,0-.15.2.106.106,0,0,0-.046-.037.148.148,0,0,0-.071-.023s.011.064.016.085.007.092.021.15a.616.616,0,0,0,.041.113.126.126,0,0,1,.1-.028.116.116,0,0,1,.087.06.6.6,0,0,0,.078-.09c.037-.055.06-.117.074-.136s.046-.076.046-.076a.184.184,0,0,0-.074,0,.109.109,0,0,0-.057.021.333.333,0,0,0-.067-.235" transform="translate(-99.01 1.979)" fill="#fff915"/>
          <path id="Caminho_786" data-name="Caminho 786" d="M118.112,12.208a.115.115,0,0,0,.044-.069.107.107,0,0,0-.016-.081.756.756,0,0,1,.118-.044.785.785,0,0,1,.155-.014l.074,0a.164.164,0,0,1-.019.037.329.329,0,0,1-.032.049.343.343,0,0,1,.2.134.357.357,0,0,1-.233.064l.012.057,0,.039-.069-.026a.688.688,0,0,1-.141-.062.879.879,0,0,1-.1-.081" transform="translate(-98.906 2.175)" fill="#fff915"/>
          <path id="Caminho_787" data-name="Caminho 787" d="M118.221,12.24a.114.114,0,0,1-.014-.079.105.105,0,0,1,.042-.071.814.814,0,0,0-.1-.083.832.832,0,0,0-.141-.06c-.021-.007-.067-.026-.067-.026l0,.039a.453.453,0,0,0,.012.057.345.345,0,0,0-.233.065.339.339,0,0,0,.2.132.3.3,0,0,0-.032.051.139.139,0,0,0-.019.035l.076,0a.636.636,0,0,0,.152-.014.735.735,0,0,0,.12-.044" transform="translate(-99.201 2.115)" fill="#fff915"/>
          <path id="Caminho_788" data-name="Caminho 788" d="M117.987,12.124a.137.137,0,0,1,.14-.134.134.134,0,1,1,0,.269.135.135,0,0,1-.14-.134" transform="translate(-99.002 2.169)" fill="#e5394e"/>
          <path id="Caminho_789" data-name="Caminho 789" d="M118.965,12.244a.116.116,0,0,0-.154.014c-.051.044-.065.11-.032.143s.1.026.152-.016.067-.108.034-.141" transform="translate(-98.408 2.346)" fill="#e5394e"/>
          <path id="Caminho_790" data-name="Caminho 790" d="M118.963,12.485a.144.144,0,0,1,.048-.069c.049-.042.12-.051.152-.014l.012.014a.336.336,0,0,1,.383-.214.189.189,0,0,0-.2-.187.2.2,0,0,0-.159.071l-.016-.069a.194.194,0,0,0-.127.117.462.462,0,0,0,0,.249.384.384,0,0,0-.055-.1.486.486,0,0,0-.161-.108.92.92,0,0,1-.09-.051l0,.039a.277.277,0,0,0,0,.055.517.517,0,0,0-.249.03.325.325,0,0,0,.17.15s-.028.023-.055.049a.173.173,0,0,0-.027.032l.083.011a.9.9,0,0,0,.173.014c.041,0,.087-.009.113-.014" transform="translate(-98.605 2.188)" fill="#fff915"/>
          <path id="Caminho_791" data-name="Caminho 791" d="M115.949,12.485a.144.144,0,0,0-.048-.069.114.114,0,0,0-.152-.014l-.012.014a.5.5,0,0,0-.155-.18.493.493,0,0,0-.228-.034.191.191,0,0,1,.2-.187.208.208,0,0,1,.161.071l.014-.069a.2.2,0,0,1,.129.117.455.455,0,0,1,0,.249.384.384,0,0,1,.055-.1.493.493,0,0,1,.163-.108.8.8,0,0,0,.088-.051l0,.039a.278.278,0,0,1,0,.055.517.517,0,0,1,.249.03.318.318,0,0,1-.17.15s.028.023.055.049a.154.154,0,0,1,.028.032l-.083.011a.929.929,0,0,1-.175.014c-.041,0-.085-.009-.113-.014" transform="translate(-101.02 2.188)" fill="#fff915"/>
          <path id="Caminho_792" data-name="Caminho 792" d="M115.585,12.244a.116.116,0,0,1,.154.014c.051.044.065.11.032.143s-.1.026-.152-.016-.067-.108-.034-.141" transform="translate(-100.857 2.346)" fill="#e5394e"/>
          <path id="Caminho_793" data-name="Caminho 793" d="M117.147,12.052a.139.139,0,0,1,.141-.134.134.134,0,1,1-.141.134" transform="translate(-99.646 2.114)" fill="#e5394e"/>
          <path id="Caminho_794" data-name="Caminho 794" d="M117.06,10.965a.287.287,0,1,1,.288.272.28.28,0,0,1-.288-.272" transform="translate(-99.713 1.175)" fill="#3057bb"/>
          <path id="Caminho_795" data-name="Caminho 795" d="M117.272,10.415v.147h-.157v.148h.157v.431h-.2c0,.014-.014.023-.014.037a.246.246,0,0,0,.023.108h.532a.272.272,0,0,0,.021-.108c0-.014-.012-.023-.014-.037h-.193V10.71h.157v-.148h-.157v-.147Z" transform="translate(-99.713 0.962)" fill="#fff915"/>
          <path id="Caminho_796" data-name="Caminho 796" d="M118.656,19.132a5.547,5.547,0,0,1-2.4-.555,1.537,1.537,0,0,1-.867-1.378v-2.16h6.52V17.2a1.537,1.537,0,0,1-.867,1.378,5.475,5.475,0,0,1-2.387.555" transform="translate(-100.993 4.506)" fill="#cacaca"/>
          <rect id="Retângulo_386" data-name="Retângulo 386" width="3.268" height="3.618" transform="translate(17.65 15.92)" fill="#cacaca"/>
          <path id="Caminho_797" data-name="Caminho 797" d="M118.648,17.2a1.633,1.633,0,0,1-3.261,0V15.035h3.261Z" transform="translate(-100.995 4.503)" fill="#e5394e"/>
          <path id="Caminho_798" data-name="Caminho 798" d="M115.791,18.51a1.672,1.672,0,0,0,.39.18l-.009-3.7h-.382Z" transform="translate(-100.685 4.469)" fill="#fff915"/>
          <path id="Caminho_799" data-name="Caminho 799" d="M115.384,17.2a1.641,1.641,0,0,0,.373,1.018V15h-.367Z" transform="translate(-100.997 4.478)" fill="#fff915"/>
          <path id="Caminho_800" data-name="Caminho 800" d="M116.2,18.772a1.961,1.961,0,0,0,.382,0v-3.78H116.2Z" transform="translate(-100.37 4.47)" fill="#c0b420"/>
          <path id="Caminho_801" data-name="Caminho 801" d="M116.608,18.69a1.248,1.248,0,0,0,.39-.171V14.991h-.382Z" transform="translate(-100.059 4.469)" fill="#fff915"/>
          <rect id="Retângulo_387" data-name="Retângulo 387" width="3.259" height="3.618" transform="translate(14.392 15.92)" fill="#e5394e"/>
          <path id="Caminho_802" data-name="Caminho 802" d="M117.036,18.187a1.491,1.491,0,0,0,.362-.829l.009-2.367h-.382Z" transform="translate(-99.739 4.469)" fill="#fff915"/>
          <path id="Caminho_803" data-name="Caminho 803" d="M120.5,15.035V17.2a1.636,1.636,0,0,1-3.268,0V15.035Z" transform="translate(-99.58 4.503)" fill="#e5394e"/>
          <path id="Caminho_804" data-name="Caminho 804" d="M117.676,15.96a.08.08,0,0,1,.009.034.075.075,0,0,1-.076.072.074.074,0,0,1-.076-.072.065.065,0,0,1,.007-.032l-.1,0-.005.034a.17.17,0,0,0,.125.161l0,.261.111,0v-.263a.173.173,0,0,0,.111-.108h.3V15.96Zm1.466,0v.087l-.269,0a.143.143,0,0,1-.018.032l.313.353-.083.069-.311-.355-.014.005,0,.588h-.11v-.588l-.014-.009-.323.359-.083-.069.323-.357a.087.087,0,0,1-.014-.032h-.277V15.96Zm.18,0v.087h.3a.175.175,0,0,0,.11.108v.263l.111,0v-.261a.17.17,0,0,0,.125-.161l-.005-.034h-.106a.079.079,0,0,1,.009.034.076.076,0,0,1-.152,0,.066.066,0,0,1,.009-.032Zm-.452,1.5a1.173,1.173,0,0,0,.247-.072l.053.092a1.132,1.132,0,0,1-.292.083.18.18,0,0,1-.346,0,1.257,1.257,0,0,1-.307-.087l.055-.092a1.108,1.108,0,0,0,.265.072.182.182,0,0,1,.1-.092l0-.456h.11v.454a.174.174,0,0,1,.111.094m-.747-.154-.053.092a1.04,1.04,0,0,1-.247-.208.176.176,0,0,1-.168-.032.162.162,0,0,1-.019-.237l.009-.009a1.049,1.049,0,0,1-.087-.327h.111a.913.913,0,0,0,.071.279.248.248,0,0,1,.1.009l.277-.306.085.069-.277.306a.157.157,0,0,1-.007.184,1.023,1.023,0,0,0,.21.18m-.412-.323a.081.081,0,0,1,.108-.009.073.073,0,0,1,.009.1.083.083,0,0,1-.108.007.071.071,0,0,1-.009-.1m-.14-.3-.115-.028-.016-.288.113-.037,0,.166a.946.946,0,0,0,.016.187m.094-.36.115.026s.005.187,0,.145.012.145.012.145l-.115.039a.9.9,0,0,1-.016-.182Zm.376.926a1.04,1.04,0,0,0,.327.175l.026-.11a.986.986,0,0,1-.272-.138Zm-.055.094a1.159,1.159,0,0,0,.327.173l-.085.079a1.264,1.264,0,0,1-.267-.136Zm.148-.636.108.046.2-.219-.065-.1Zm-.085-.067-.065-.1.2-.221.108.046Zm1.224.67.053.092a1.077,1.077,0,0,0,.247-.208.177.177,0,0,0,.168-.032.162.162,0,0,0,.019-.237l-.009-.009a1.048,1.048,0,0,0,.085-.327h-.11a.917.917,0,0,1-.072.279.242.242,0,0,0-.094.009l-.277-.306-.085.069.277.306a.156.156,0,0,0,.005.184.969.969,0,0,1-.208.18m.41-.323a.079.079,0,0,0-.106-.009.072.072,0,0,0-.009.1.083.083,0,0,0,.108.007.07.07,0,0,0,.007-.1m.141-.3.113-.028.016-.288-.113-.037v.166a1.1,1.1,0,0,1-.016.187m-.1-.36-.113.026s-.007.187,0,.145-.012.145-.012.145l.115.039a1.039,1.039,0,0,0,.014-.182Zm-.375.926a1.04,1.04,0,0,1-.327.175L119,17.31a.986.986,0,0,0,.272-.138Zm.055.094a1.159,1.159,0,0,1-.327.173l.085.079a1.264,1.264,0,0,0,.267-.136Zm-.148-.636-.108.046-.2-.219.065-.1Zm.085-.067.065-.1-.2-.221-.108.046Zm-1.36-.585.034.108h.306l.034-.108Zm1.429,0-.034.108h-.306l-.032-.108Zm-.786,1.477a.076.076,0,0,1,.152,0,.076.076,0,0,1-.152,0m.129-.525.115-.034v-.29l-.115-.03Zm-.111,0-.113-.034v-.29l.113-.03Z" transform="translate(-99.429 5.212)" fill="#fff915"/>
          <path id="Caminho_805" data-name="Caminho 805" d="M117.433,16.541a.17.17,0,0,1,.12-.125v-.357h.11v.359a.164.164,0,0,1,.113.11h.3v.014h-.4a.078.078,0,0,0-.134,0Zm.825,0v-.014h.276l.012-.026-.341-.378.085-.069.336.373.018-.007,0-.5h.11v.493l.016,0,.329-.373.085.067-.329.373a.141.141,0,0,1,.018.041h.267v.014Zm1.461,0a.08.08,0,0,1,.136,0l.1,0a.17.17,0,0,0-.12-.125l0-.357h-.11l0,.359a.171.171,0,0,0-.113.11h-.3v.014Zm-2.039-1.007.41.458.085-.067-.413-.456a.185.185,0,0,0,.019-.042h.3v-.1h-.3a.177.177,0,0,0-.17-.118.175.175,0,0,0-.177.17.167.167,0,0,0,.118.159v.353h.11v-.35l.018,0m2.162,0,0,.353h-.11v-.353l-.026-.009-.406.459-.085-.067.415-.468-.009-.023h-.3v-.1h.3a.177.177,0,0,1,.344.051.165.165,0,0,1-.122.159m-1.088,0v.219h-.11v-.216a.179.179,0,0,1-.117-.111h-.269v-.1h.269a.179.179,0,0,1,.337,0h.274v.1h-.274a.173.173,0,0,1-.111.108m-1.2.265-.115.032v.291l.115.03Zm.11,0,.115.032v.291l-.115.03Zm2.065,0-.115.032v.291l.115.03Zm.111,0,.113.032v.291l-.113.03Zm-1.729.055.108-.044.2.221-.067.094Zm-.085.069-.064.1.2.221.108-.046Zm1.249-.076-.108-.046-.2.223.065.094Zm.085.067.067.1-.2.221-.108-.046Zm-1.376.613.034-.108h.306l.034.108Zm-.449-1.152a.074.074,0,0,1,.076-.071.073.073,0,0,1,.076.071.075.075,0,0,1-.076.072.076.076,0,0,1-.076-.072m.82.051-.034.111h-.307l-.032-.111Zm0-.1-.034-.11h-.307l-.032.11Zm1.06,1.2-.034-.108h-.306l-.034.108Zm.3-1.152a.073.073,0,0,1,.076-.071.074.074,0,0,1,.076.071.076.076,0,0,1-.076.072.075.075,0,0,1-.076-.072m-1.092,0a.076.076,0,0,1,.152,0,.076.076,0,0,1-.152,0m.424.051.035.111h.306l.032-.111Zm0-.1.035-.11h.306l.032.11Zm-.4.337-.113.032v.291l.113.032Zm.11,0,.115.032v.291l-.115.032Z" transform="translate(-99.427 4.633)" fill="#fff915"/>
          <path id="Caminho_806" data-name="Caminho 806" d="M118.71,18.275a.185.185,0,0,1-.184-.136.931.931,0,0,1-.212-.046l-.007,0-.072.087-.005,0a1.3,1.3,0,0,1-.27-.138l.021-.12a.808.808,0,0,1-.125-.11,1.628,1.628,0,0,1,.14.1.713.713,0,0,0,.076.051l.046-.079c-.027-.016-.053-.035-.078-.053a1,1,0,0,1-.129-.118.172.172,0,0,0,.007-.189l.276-.316-.083-.057-.265.307a.475.475,0,0,0-.078-.009l-.009-.012a.171.171,0,0,1,.083.007l.269-.306.094.069-.272.318a.152.152,0,0,1-.009.184c.041.039.083.074.127.111l.071-.076a1.2,1.2,0,0,0,.279.136l-.018.111a.885.885,0,0,0,.168.035.147.147,0,0,1,.1-.088l-.005-.449.118-.009.009.463a.145.145,0,0,1,.11.09,1.61,1.61,0,0,0,.237-.078l.065.1a1,1,0,0,1-.3.1.17.17,0,0,1-.173.131m-.426-.21.035.012a1.081,1.081,0,0,0,.217.049.18.18,0,0,0,.337.005,1.424,1.424,0,0,0,.3-.088l-.058-.081a.772.772,0,0,1-.238.078.2.2,0,0,0-.115-.094l-.007-.463-.1.011.007.445a.2.2,0,0,0-.1.1.763.763,0,0,1-.178-.034l-.009,0c-.03-.011-.06-.021-.088-.034l-.041.081.044.018m-.3-.143-.011.108a1.647,1.647,0,0,0,.256.125l.071-.067-.032-.012a.269.269,0,0,1-.044-.016,1.2,1.2,0,0,1-.148-.079l-.009,0c-.028-.016-.055-.037-.083-.055m.147-.049c.049.026.1.055.155.078a.73.73,0,0,0,.079.03l.023-.1a.728.728,0,0,1-.267-.127l-.067.067c.027.016.051.035.076.051Zm-.364-.1a.159.159,0,0,1-.115-.035.168.168,0,0,1-.021-.247,1.775,1.775,0,0,1-.064-.23l-.108-.025-.023-.3.118-.046-.005-.163a.162.162,0,0,1-.124-.161.182.182,0,0,1,.131-.17l-.007-.346.118-.011.009.369a.153.153,0,0,1,.113.1l.288-.005.009.111-.307.011a.156.156,0,0,1-.108.1l.007.159.108.018.021.3-.113.044a.77.77,0,0,0,.048.157.373.373,0,0,1-.064-.152l0-.011a.711.711,0,0,1-.012-.088l-.094.007.005.049.007.035a1,1,0,0,0,.071.228.19.19,0,0,0-.049.134.161.161,0,0,0,.058.11.17.17,0,0,0,.11.039l.018.009Zm-.212-.862-.108.035.023.281.094.018c-.005-.028-.007-.055-.011-.083l0-.17.007-.069Zm.124.09v.067a.789.789,0,0,0,0,.092c0,.026.005.053.009.079l.106-.035-.021-.281-.1-.018Zm-.019-.947-.1.007.009.348a.179.179,0,0,0-.125.161.162.162,0,0,0,.118.152l.005.216.1.042v-.251a.187.187,0,0,0,.111-.108l.306-.005-.007-.1-.29.011a.185.185,0,0,0-.115-.11Zm1.111,1.274h-.118l0-.274.012.265.092-.009,0-.579.018.019Zm.323-.24-.134-.148.134.136.072-.069-.313-.341.042-.009.283.352Zm-.772,0-.1-.065.081-.094-.069.092.083.057.311-.359,0,.025Zm.2-.438-.254-.014-.009-.115.094,0-.085.012.009.094.268-.007Zm.562-.019.067-.012-.009-.1-.26.011.028-.039.24.021.007.111Zm-.555-.132-.32-.375.085-.081.132.143-.134-.129-.071.067.341.369Zm.258-.074,0-.026.318-.36.1.067-.065.076.053-.076-.083-.055Zm-.125-.007-.019-.021,0-.477.118-.007,0,.191-.011-.184-.1.009Zm-.564-.417-.242-.269.244.246.079-.06-.413-.445.048-.009.376.454Zm-.535-.106-.007-.36a.162.162,0,0,1-.12-.159c0-.175.307-.219.362-.057l.293-.005.007.113-.071,0,.064-.009-.009-.1-.291.007c-.067-.159-.337-.113-.337.046a.16.16,0,0,0,.113.15l0,.36.1-.007-.009-.344.019.021,0,.33Z" transform="translate(-99.432 4.638)" fill="#fff915"/>
          <path id="Caminho_807" data-name="Caminho 807" d="M119.165,18.179l-.088-.087c.087-.041.164-.078.238-.122l-.048-.081a.981.981,0,0,1-.239.113l-.009,0-.026-.118a1.256,1.256,0,0,0,.274-.147l.09.072a.936.936,0,0,0,.118-.118.148.148,0,0,1-.007-.184l-.276-.3.085-.081.29.307a.126.126,0,0,1,.064-.014.387.387,0,0,0,.072-.173l-.106-.037.009-.3.115-.032v-.159a.155.155,0,0,1-.11-.1l-.291.005-.009-.113.306-.007a.163.163,0,0,1,.111-.111l0-.247-.111-.03-.007-.3.12-.039.009.267.106-.009.007.367a.162.162,0,0,1,.124.159.179.179,0,0,1-.129.17l.007.166.106.025-.009.3-.117.032a1.142,1.142,0,0,1-.071.23.155.155,0,0,1,.051.127.169.169,0,0,1-.065.122.2.2,0,0,1-.12.042,1.124,1.124,0,0,0-.212.143l0,0,.032.1a1.1,1.1,0,0,1-.272.147Zm.2-.223a.243.243,0,0,1-.035.023,1.107,1.107,0,0,1-.246.115l.083.064a1.223,1.223,0,0,0,.261-.136l-.025-.092-.039.026m-.1-.2a.736.736,0,0,1-.263.14l.028.09a1.028,1.028,0,0,0,.316-.168Zm.011-.606-.072.069.277.293a.171.171,0,0,0,.005.187.836.836,0,0,1-.212.193l.051.072c.027-.018.051-.034.076-.053a1,1,0,0,0,.164-.15c.1.005.138-.007.168-.034a.148.148,0,0,0,.058-.108.152.152,0,0,0-.039-.117c.023-.094.048-.171.06-.247a.858.858,0,0,0,.014-.094l-.1.009,0,.019-.009.064a1,1,0,0,1-.06.191.3.3,0,0,0-.1.016Zm.572-.155v.076a.862.862,0,0,1-.005.1.689.689,0,0,1-.011.081l.1-.025.009-.283-.1-.023Zm-.23-.376a.183.183,0,0,0,.111.106l.005.263.1,0v-.251a.183.183,0,0,0,.124-.163.163.163,0,0,0-.118-.152l-.005-.364-.1.007,0,.1,0,0,.005.256a.181.181,0,0,0-.113.111l-.306.005.009.1Zm-1.376.717-.115-.046.238-.283.079.1Zm.124-.318-.23.27.1.03.2-.216Zm-.322.208-.069-.1.2-.231.118.044Zm.133-.322-.189.219.06.078.235-.263Zm-.523-.744v-.364l.125.023.007.3Zm.007-.355.011.332.1-.028-.005-.283Zm-.1.355-.125-.034-.007-.3.12-.039Zm1.735-.168-.09-.071.136-.157-.125.155.078.049.4-.452,0,.037Zm.433-.1,0-.11.011.1.1-.007-.009-.344a.173.173,0,0,0,.124-.159c0-.159-.279-.2-.329-.051l-.307.007.007.1.293-.007-.019.023-.281-.005-.011-.115.311-.009c.035-.15.353-.113.353.062a.177.177,0,0,1-.131.168l.007.343Zm-.97-.138h-.117l-.009-.223a.157.157,0,0,1-.117-.1l-.26.007-.009-.115.277-.009c.035-.134.3-.14.344.005l.267-.005.009.113-.283.011a.162.162,0,0,1-.108.106l0,.207Zm-.233-.337a.192.192,0,0,0,.118.108l.005.223.094-.007v-.208a.182.182,0,0,0,.111-.111l.283,0-.009-.1-.265.009a.184.184,0,0,0-.33-.007l-.276.007.009.1Z" transform="translate(-99.427 4.636)" fill="#fff915"/>
          <path id="Caminho_808" data-name="Caminho 808" d="M118.522,17.592v-.364l.124.023.007.3Zm.005-.355.011.332.1-.028-.007-.283Zm-.1.355-.124-.035-.007-.3.12-.039Zm.5-.256-.2-.223.064-.106.256.267Zm.2-.11-.251-.277.113-.058.207.223Zm.041-.481h-.311l-.042-.117.382-.011Zm.019-.12-.364.012.041.1.291-.007Zm-1.076.12h-.313l-.041-.117.38-.011Zm.019-.12-.366.012.041.1.293-.007Zm1.076-.094h-.383l.025-.12.314-.005Zm-.053-.113-.3.005-.026.1.353-.009Zm-1.005.113h-.383l.025-.12.314-.005Zm-.051-.117-.3.009-.026.1.355-.009Zm-.157-.17-.2-.223.064-.106.256.267ZM119,16.238l-.115-.049.237-.284.08.1Zm.122-.322-.226.27.1.03.193-.217Zm.479.242V15.8l.124.025.007.3Zm.005-.355.011.334.1-.028-.005-.283Zm-1.482.332-.249-.277.11-.06.21.224Zm.68-.007-.072-.1.2-.233.118.042Zm.129-.322-.189.221.06.074.233-.265Zm.226-.265h-.311l-.042-.113.38-.011Zm.019-.118-.366.011.042.1.291-.005Zm-1.083.118h-.313l-.041-.115.382-.009Zm.019-.118-.364.011.041.1.291-.005Zm1.081-.1h-.383l.026-.118.314-.005Zm-.051-.113-.3.005-.027.1.353-.011Zm-1.01.113h-.383l.025-.118.314-.005Zm-.053-.113-.3.005-.025.1.353-.011Z" transform="translate(-99.2 4.633)" fill="#fff915"/>
          <path id="Caminho_809" data-name="Caminho 809" d="M118.273,15.829v-.362l.125.025.005.3Zm.007-.355.011.332.1-.025-.005-.283Zm-.1.355-.125-.032-.005-.3.12-.041Z" transform="translate(-98.954 4.827)" fill="#fff915"/>
          <path id="Caminho_810" data-name="Caminho 810" d="M118.051,16.055a.178.178,0,1,1,.178.168.175.175,0,0,1-.178-.168" transform="translate(-98.953 5.155)" fill="#3d8e6d"/>
          <path id="Caminho_811" data-name="Caminho 811" d="M118.422,13.593l0-.041.007-.023a.532.532,0,0,1-.161-.007.368.368,0,0,1-.155-.081c-.051-.042-.072-.071-.108-.076a.245.245,0,0,0-.157.025.3.3,0,0,1,.117.087.3.3,0,0,0,.127.1,1.029,1.029,0,0,0,.208.007c.035,0,.118.012.118.012" transform="translate(-99.106 3.22)" fill="#ca3e4b"/>
          <path id="Caminho_812" data-name="Caminho 812" d="M119.155,13.527s0,.048.005.094-.016.079-.007.1a.3.3,0,0,0,.019.06.294.294,0,0,1,.014.062l-.049-.035-.039-.028.007.067a.188.188,0,0,0,.034.079.438.438,0,0,1,.067.087.293.293,0,0,1,.009.094s-.028-.048-.055-.058a.731.731,0,0,1-.083-.041.184.184,0,0,1,.053.1.375.375,0,0,1-.021.106.4.4,0,0,0-.055-.074c-.032-.028-.072-.058-.072-.058a.41.41,0,0,1,.032.127c0,.051-.009.159-.009.159a.284.284,0,0,0-.051-.062.34.34,0,0,1-.065-.049.261.261,0,0,1,.034.074.713.713,0,0,0,.125.306c.062.088.155.246.357.193s.127-.322.085-.449a1.187,1.187,0,0,1-.062-.316c0-.048.039-.193.034-.219a.57.57,0,0,1,.009-.214,1.435,1.435,0,0,1,.062-.157.317.317,0,0,0,.03-.087.7.7,0,0,0,.005-.088s.037.069.046.094a.392.392,0,0,1,.011.1.161.161,0,0,1,.064-.11.805.805,0,0,0,.138-.094.077.077,0,0,0,.021-.034.407.407,0,0,1-.041.175c-.023.032-.115.136-.115.136a.319.319,0,0,1,.081-.021.459.459,0,0,1,.055,0,.572.572,0,0,0-.092.108c-.051.074-.03.083-.067.145s-.069.064-.115.1c-.071.057-.034.281-.025.314a2.886,2.886,0,0,1,.134.376.362.362,0,0,1-.1.313c-.076.062-.2.062-.228.079a.209.209,0,0,0-.085.189.166.166,0,0,0,.074.163c.034.03.076.012.085.035a.1.1,0,0,0,.028.048.059.059,0,0,1,.019.055c-.005.025-.058.081-.078.12a.892.892,0,0,0-.057.161.163.163,0,0,0,.012.088s.058.069.018.083c-.025.009-.051-.016-.064-.014-.035.009-.053.032-.064.03s-.023-.016-.025-.048,0-.049-.011-.049-.023.012-.025.03,0,.058-.019.058-.039-.03-.053-.035-.055-.014-.057-.032a.08.08,0,0,1,.049-.064c.027-.005.049-.018.032-.032a.035.035,0,0,0-.048,0c-.016.014-.053,0-.049-.018l.005-.057c0-.011-.032-.034.005-.053s.055.018.092.011a.085.085,0,0,0,.069-.041.088.088,0,0,0-.012-.1c-.025-.028-.051-.034-.062-.049s-.023-.062-.023-.062a.471.471,0,0,1,0,.088.352.352,0,0,0,0,.058s-.025-.028-.048-.049a.315.315,0,0,1-.041-.09s0,.062,0,.087.028.048.019.055-.055-.046-.067-.055a.339.339,0,0,1-.064-.067.513.513,0,0,1-.034-.094.282.282,0,0,1-.005-.1c.012-.026.03-.072.03-.072h-.092c-.048,0-.083-.016-.1.018a.314.314,0,0,0,.014.187c.023.085.037.129.03.143a.2.2,0,0,1-.049.06.1.1,0,0,1-.057,0,.156.156,0,0,0-.083-.019.58.58,0,0,1-.088,0,.231.231,0,0,0-.078-.021c-.018.007-.049.021-.042.048s-.012.049-.032.046a.461.461,0,0,1-.058-.014c-.025-.009-.06,0-.055-.026s.014-.03.027-.051.016-.03,0-.032a.044.044,0,0,0-.044.007c-.012.009-.034.032-.049.023s-.03-.026-.03-.071-.044-.078,0-.076.092.032.1.011,0-.034-.018-.051-.049-.028-.021-.049.037-.023.048-.035.027-.053.048-.041c.041.018,0,.044.042.09a.13.13,0,0,0,.134.055c.067-.009.087-.016.087-.035a.387.387,0,0,0-.009-.069.582.582,0,0,1,.011-.064.107.107,0,0,0-.041.039c-.009.019-.026.049-.026.049a.276.276,0,0,1-.007-.071l.007-.055a.321.321,0,0,0-.014-.064.464.464,0,0,1-.018.064.247.247,0,0,0-.012.069.11.11,0,0,1-.03-.1c.009-.048-.007-.113.007-.132s.049-.11.134-.111.15,0,.18,0,.132-.019.132-.019-.191-.1-.235-.129a.72.72,0,0,1-.136-.14.618.618,0,0,1-.041-.1.155.155,0,0,0-.067.018.335.335,0,0,0-.079.065.508.508,0,0,0-.049.069s.007-.062.007-.081-.005-.057-.005-.057a.242.242,0,0,1-.065.115c-.044.032-.1.074-.1.074l.007-.055c0-.012.011-.065.011-.065a.143.143,0,0,1-.079.055c-.048.011-.118.007-.124.037s.012.069,0,.09a.1.1,0,0,1-.034.035.12.12,0,0,0-.051-.025.089.089,0,0,0-.046.011s-.021-.025-.014-.044.044-.042.035-.053-.039,0-.057.012-.058.018-.053-.012.012-.048,0-.067,0-.035.011-.041.074,0,.078-.011-.014-.032-.053-.042-.055-.032-.035-.049a.158.158,0,0,0,.034-.042c.011-.018.012-.049.049-.032s.026.053.064.065a.275.275,0,0,0,.141-.016c.018-.011.076-.053.1-.064s.1-.074.1-.074-.049-.035-.067-.051a.5.5,0,0,0-.069-.069.551.551,0,0,0-.125-.041.778.778,0,0,1-.111-.032.218.218,0,0,0,.051-.023c.014-.011.042-.037.058-.035l.018,0s-.079-.005-.1-.009a.488.488,0,0,0-.083-.035.31.31,0,0,0-.055.009.245.245,0,0,1,.161-.046.2.2,0,0,1-.078-.037c-.014-.019-.028-.051-.039-.067s-.019-.035-.039-.039-.055.026-.076.025a.038.038,0,0,1-.035-.042c0-.032,0-.021-.009-.035s-.035-.055-.009-.062.088.005.094-.005-.032-.042-.057-.055-.062-.032-.042-.049.041-.025.051-.041.025-.06.049-.044.057.081.074.076.019-.055.016-.074,0-.058.018-.055.034.028.064.03.072-.005.071.012a.183.183,0,0,1-.041.071.1.1,0,0,0-.018.1.309.309,0,0,0,.076.1c.028.018.083.034.118.055a1.148,1.148,0,0,0,.143.094.347.347,0,0,1,.055.019.225.225,0,0,1,.074-.012.649.649,0,0,0,.177-.009c.037-.016.083-.042.071-.074s-.1-.064-.088-.09.037-.026.085-.03.118.011.131-.06.016-.108-.053-.125-.122-.016-.134-.067-.025-.062-.011-.078a.184.184,0,0,1,.092-.023.411.411,0,0,0,.127-.016c.016-.011.019-.044.039-.058a.425.425,0,0,1,.1-.026,1.337,1.337,0,0,1,.182.111.915.915,0,0,1,.148.145Z" transform="translate(-99.35 3.139)" fill="#de6ba8"/>
          <path id="Caminho_813" data-name="Caminho 813" d="M117.658,13.429a.143.143,0,0,0,.055.028l.053,0a.167.167,0,0,0,.007-.06.115.115,0,0,0-.085-.094s.021.048.011.067a.2.2,0,0,1-.041.057" transform="translate(-99.254 3.177)" fill="#ca3e4b"/>
          <path id="Caminho_814" data-name="Caminho 814" d="M117.654,13.433a.094.094,0,0,0-.087-.044.168.168,0,0,0-.1.053.207.207,0,0,1,.081.009.093.093,0,0,1,.03.055.225.225,0,0,0,.046-.035.221.221,0,0,0,.027-.037" transform="translate(-99.398 3.241)" fill="#ca3e4b"/>
          <path id="Caminho_815" data-name="Caminho 815" d="M117.577,13.529a.145.145,0,0,0-.078.039.156.156,0,0,0-.023.092s.034-.035.062-.035a.515.515,0,0,1,.076.009.213.213,0,0,1-.014-.051.171.171,0,0,0-.023-.053" transform="translate(-99.394 3.349)" fill="#ca3e4b"/>
          <path id="Caminho_816" data-name="Caminho 816" d="M117.695,13.911a.086.086,0,0,0-.076-.021.142.142,0,0,0-.078.064.177.177,0,0,1,.064-.005.074.074,0,0,1,.041.03l.028-.03a.189.189,0,0,0,.019-.037Z" transform="translate(-99.344 3.624)" fill="#ca3e4b"/>
          <path id="Caminho_817" data-name="Caminho 817" d="M117.644,14.01a.1.1,0,0,0-.076.021.121.121,0,0,0-.035.081.094.094,0,0,1,.058-.025.2.2,0,0,1,.057.019l.007-.044a.093.093,0,0,0-.011-.053" transform="translate(-99.35 3.717)" fill="#ca3e4b"/>
          <path id="Caminho_818" data-name="Caminho 818" d="M117.65,14.113a.151.151,0,0,0,.021.081.122.122,0,0,0,.074.039.241.241,0,0,1-.019-.051.061.061,0,0,1,.023-.048.086.086,0,0,0-.048-.025.494.494,0,0,0-.051,0" transform="translate(-99.26 3.793)" fill="#ca3e4b"/>
          <path id="Caminho_819" data-name="Caminho 819" d="M118,14.386a.11.11,0,0,0-.078-.039.184.184,0,0,0-.1.044s.058-.005.072.016a.392.392,0,0,1,.028.042.292.292,0,0,0,.039-.023.352.352,0,0,0,.034-.041" transform="translate(-99.128 3.976)" fill="#ca3e4b"/>
          <path id="Caminho_820" data-name="Caminho 820" d="M117.891,14.473a.116.116,0,0,0-.09.023.142.142,0,0,0-.027.087s.035-.039.069-.035a.235.235,0,0,1,.071.023l-.011-.053-.012-.044" transform="translate(-99.165 4.072)" fill="#ca3e4b"/>
          <path id="Caminho_821" data-name="Caminho 821" d="M117.921,14.582a.07.07,0,0,0-.007.074.146.146,0,0,0,.067.049.074.074,0,0,1-.009-.053c.005-.023.044-.053.044-.053Z" transform="translate(-99.065 4.156)" fill="#ca3e4b"/>
          <path id="Caminho_822" data-name="Caminho 822" d="M118.429,14.629a.139.139,0,0,0-.083.005c-.03.018-.053.092-.053.092a.15.15,0,0,1,.083-.037.213.213,0,0,1,.06.019.178.178,0,0,0,0-.049l-.009-.03" transform="translate(-98.767 4.188)" fill="#ca3e4b"/>
          <path id="Caminho_823" data-name="Caminho 823" d="M118.4,14.737s-.039.041-.025.076a.507.507,0,0,0,.039.071s0-.051.016-.065a.132.132,0,0,1,.067-.025.313.313,0,0,0-.046-.034c-.011,0-.051-.023-.051-.023" transform="translate(-98.71 4.275)" fill="#ca3e4b"/>
          <path id="Caminho_824" data-name="Caminho 824" d="M118.5,14.78a.078.078,0,0,0,.018.085.16.16,0,0,0,.072.035s-.028-.051-.019-.079a.1.1,0,0,1,.034-.046.259.259,0,0,0-.055-.016c-.007,0-.049.021-.049.021" transform="translate(-98.613 4.291)" fill="#ca3e4b"/>
          <path id="Caminho_825" data-name="Caminho 825" d="M117.541,16.863a.267.267,0,0,1,.2.261c0,.155-.148.272-.344.272a.317.317,0,0,1-.352-.272.236.236,0,0,1,.2-.256.081.081,0,0,0-.016-.032l-.041-.042a.176.176,0,0,1,.081,0,.119.119,0,0,1,.049.03.249.249,0,0,1,.034-.049.2.2,0,0,1,.046-.034.171.171,0,0,1,.039.041.138.138,0,0,1,.016.039.24.24,0,0,1,.051-.032.29.29,0,0,1,.055-.016l-.014.044a.234.234,0,0,0-.009.044" transform="translate(-99.72 5.812)" fill="#f7d591"/>
          <path id="Caminho_826" data-name="Caminho 826" d="M117.556,17.3a1.81,1.81,0,0,0-.371-.2,1.836,1.836,0,0,0-.373-.009,1.23,1.23,0,0,1,.118.1.668.668,0,0,0,.223.122.767.767,0,0,0,.4-.012" transform="translate(-99.903 6.075)" fill="#3d8e6d"/>
          <path id="Caminho_827" data-name="Caminho 827" d="M117.275,17.306a.708.708,0,0,1,.339-.2.974.974,0,0,1,.419.037.92.92,0,0,0-.1.057.462.462,0,0,1-.27.1c-.14,0-.3-.014-.322-.011s-.064.009-.064.009" transform="translate(-99.548 6.087)" fill="#3d8e6d"/>
          <path id="Caminho_828" data-name="Caminho 828" d="M117.293,17.305a.331.331,0,1,1,.1-.242.333.333,0,0,1-.1.242" transform="translate(-99.615 5.874)" fill="#e5394e"/>
          <path id="Caminho_829" data-name="Caminho 829" d="M117.209,17.437a.651.651,0,0,0,.044-.184.658.658,0,0,0-.011-.141h.051a.511.511,0,0,1,.026.141,1.531,1.531,0,0,1-.011.154.15.15,0,0,0-.049.012c-.011.005-.051.018-.051.018" transform="translate(-99.598 6.095)" fill="#3d8e6d"/>
          <path id="Caminho_830" data-name="Caminho 830" d="M119.059,12.03a.069.069,0,0,1,.071-.067.067.067,0,1,1,0,.134.069.069,0,0,1-.071-.067" transform="translate(-98.18 2.148)" fill="#fff"/>
          <path id="Caminho_831" data-name="Caminho 831" d="M119.115,11.932a.071.071,0,0,1,.141,0,.071.071,0,0,1-.141,0" transform="translate(-98.137 2.073)" fill="#fff"/>
          <path id="Caminho_832" data-name="Caminho 832" d="M119.151,11.818a.071.071,0,0,1,.072-.067.071.071,0,0,1,.071.067.071.071,0,0,1-.071.069.07.07,0,0,1-.072-.069" transform="translate(-98.11 1.986)" fill="#fff"/>
          <path id="Caminho_833" data-name="Caminho 833" d="M119.156,11.7a.072.072,0,0,1,.143,0,.072.072,0,0,1-.071.069.071.071,0,0,1-.072-.069" transform="translate(-98.106 1.893)" fill="#fff"/>
          <path id="Caminho_834" data-name="Caminho 834" d="M119.126,11.58a.071.071,0,0,1,.071-.069.069.069,0,0,1,.071.069.068.068,0,0,1-.071.067.069.069,0,0,1-.071-.067" transform="translate(-98.129 1.802)" fill="#fff"/>
          <path id="Caminho_835" data-name="Caminho 835" d="M119.064,11.471a.071.071,0,1,1,.071.067.069.069,0,0,1-.071-.067" transform="translate(-98.176 1.718)" fill="#fff"/>
          <path id="Caminho_836" data-name="Caminho 836" d="M118.981,11.381a.069.069,0,0,1,.071-.067.067.067,0,1,1,0,.134.069.069,0,0,1-.071-.067" transform="translate(-98.24 1.651)" fill="#fff"/>
          <path id="Caminho_837" data-name="Caminho 837" d="M118.885,11.308a.072.072,0,0,1,.143,0,.072.072,0,0,1-.143,0" transform="translate(-98.314 1.593)" fill="#fff"/>
          <path id="Caminho_838" data-name="Caminho 838" d="M118.77,11.246a.071.071,0,1,1,.071.067.069.069,0,0,1-.071-.067" transform="translate(-98.402 1.547)" fill="#fff"/>
          <path id="Caminho_839" data-name="Caminho 839" d="M118.651,11.2a.072.072,0,0,1,.143,0,.072.072,0,0,1-.143,0" transform="translate(-98.493 1.513)" fill="#fff"/>
          <path id="Caminho_840" data-name="Caminho 840" d="M118.518,11.181a.072.072,0,0,1,.143,0,.072.072,0,0,1-.143,0" transform="translate(-98.595 1.496)" fill="#fff"/>
          <path id="Caminho_841" data-name="Caminho 841" d="M118.392,11.173a.069.069,0,0,1,.071-.067.067.067,0,1,1,0,.134.069.069,0,0,1-.071-.067" transform="translate(-98.692 1.491)" fill="#fff"/>
          <path id="Caminho_842" data-name="Caminho 842" d="M118.267,11.177a.072.072,0,0,1,.143,0,.072.072,0,0,1-.143,0" transform="translate(-98.787 1.494)" fill="#fff"/>
          <path id="Caminho_843" data-name="Caminho 843" d="M118.144,11.177a.069.069,0,0,1,.071-.067.068.068,0,0,1,.071.067.069.069,0,0,1-.071.069.071.071,0,0,1-.071-.069" transform="translate(-98.882 1.494)" fill="#fff"/>
          <path id="Caminho_844" data-name="Caminho 844" d="M118.206,11.283a.072.072,0,0,1,.143,0,.072.072,0,0,1-.143,0" transform="translate(-98.834 1.576)" fill="#fff"/>
          <path id="Caminho_845" data-name="Caminho 845" d="M118.231,11.4a.069.069,0,0,1,.071-.067.067.067,0,1,1,0,.134.069.069,0,0,1-.071-.067" transform="translate(-98.815 1.666)" fill="#fff"/>
          <path id="Caminho_846" data-name="Caminho 846" d="M118.236,11.518a.069.069,0,0,1,.071-.067.067.067,0,1,1,0,.134.069.069,0,0,1-.071-.067" transform="translate(-98.811 1.756)" fill="#fff"/>
          <path id="Caminho_847" data-name="Caminho 847" d="M118.2,11.624a.072.072,0,1,1,.072.069.071.071,0,0,1-.072-.069" transform="translate(-98.839 1.837)" fill="#fff"/>
          <path id="Caminho_848" data-name="Caminho 848" d="M118.13,11.724a.069.069,0,0,1,.071-.069.068.068,0,1,1,0,.136.069.069,0,0,1-.071-.067" transform="translate(-98.892 1.912)" fill="#fff"/>
          <path id="Caminho_849" data-name="Caminho 849" d="M118.05,11.1a.072.072,0,0,1,.143,0,.072.072,0,0,1-.143,0" transform="translate(-98.954 1.437)" fill="#fff"/>
          <path id="Caminho_850" data-name="Caminho 850" d="M117.94,11.043a.071.071,0,0,1,.141,0,.071.071,0,0,1-.141,0" transform="translate(-99.038 1.39)" fill="#fff"/>
          <path id="Caminho_851" data-name="Caminho 851" d="M117.818,11.005a.069.069,0,0,1,.071-.067.071.071,0,0,1,.072.067.072.072,0,0,1-.072.069.071.071,0,0,1-.071-.069" transform="translate(-99.132 1.362)" fill="#fff"/>
          <path id="Caminho_852" data-name="Caminho 852" d="M117.692,10.983a.069.069,0,0,1,.071-.067.067.067,0,1,1,0,.134.069.069,0,0,1-.071-.067" transform="translate(-99.228 1.346)" fill="#fff"/>
          <path id="Caminho_853" data-name="Caminho 853" d="M117.568,10.985a.072.072,0,0,1,.143,0,.072.072,0,0,1-.143,0" transform="translate(-99.323 1.347)" fill="#fff"/>
          <path id="Caminho_854" data-name="Caminho 854" d="M117.439,11.007a.072.072,0,1,1,.072.067.07.07,0,0,1-.072-.067" transform="translate(-99.422 1.364)" fill="#fff"/>
          <path id="Caminho_855" data-name="Caminho 855" d="M117.321,11.049a.069.069,0,0,1,.071-.067.071.071,0,0,1,.072.067.072.072,0,0,1-.072.069.071.071,0,0,1-.071-.069" transform="translate(-99.512 1.396)" fill="#fff"/>
          <path id="Caminho_856" data-name="Caminho 856" d="M115.3,12.03a.071.071,0,1,1,.071.067.069.069,0,0,1-.071-.067" transform="translate(-101.059 2.148)" fill="#fff"/>
          <path id="Caminho_857" data-name="Caminho 857" d="M115.249,11.932a.069.069,0,0,1,.071-.067.071.071,0,0,1,.072.067.069.069,0,0,1-.072.067.068.068,0,0,1-.071-.067" transform="translate(-101.101 2.073)" fill="#fff"/>
          <path id="Caminho_858" data-name="Caminho 858" d="M115.212,11.818a.072.072,0,1,1,.071.069.069.069,0,0,1-.071-.069" transform="translate(-101.129 1.986)" fill="#fff"/>
          <path id="Caminho_859" data-name="Caminho 859" d="M115.207,11.7a.072.072,0,0,1,.143,0,.072.072,0,0,1-.143,0" transform="translate(-101.133 1.893)" fill="#fff"/>
          <path id="Caminho_860" data-name="Caminho 860" d="M115.237,11.58a.071.071,0,0,1,.141,0,.071.071,0,0,1-.141,0" transform="translate(-101.11 1.802)" fill="#fff"/>
          <path id="Caminho_861" data-name="Caminho 861" d="M115.3,11.471a.072.072,0,0,1,.143,0,.072.072,0,0,1-.143,0" transform="translate(-101.062 1.718)" fill="#fff"/>
          <path id="Caminho_862" data-name="Caminho 862" d="M115.382,11.381a.072.072,0,1,1,.071.067.069.069,0,0,1-.071-.067" transform="translate(-100.999 1.651)" fill="#fff"/>
          <path id="Caminho_863" data-name="Caminho 863" d="M115.478,11.308a.071.071,0,1,1,.071.067.069.069,0,0,1-.071-.067" transform="translate(-100.925 1.593)" fill="#fff"/>
          <path id="Caminho_864" data-name="Caminho 864" d="M115.593,11.246a.071.071,0,1,1,.071.067.069.069,0,0,1-.071-.067" transform="translate(-100.837 1.547)" fill="#fff"/>
          <path id="Caminho_865" data-name="Caminho 865" d="M115.712,11.2a.072.072,0,0,1,.143,0,.072.072,0,0,1-.143,0" transform="translate(-100.746 1.513)" fill="#fff"/>
          <path id="Caminho_866" data-name="Caminho 866" d="M115.845,11.181a.069.069,0,0,1,.071-.069.071.071,0,0,1,.072.069.072.072,0,0,1-.072.067.07.07,0,0,1-.071-.067" transform="translate(-100.644 1.496)" fill="#fff"/>
          <path id="Caminho_867" data-name="Caminho 867" d="M115.971,11.173a.072.072,0,1,1,.071.067.069.069,0,0,1-.071-.067" transform="translate(-100.547 1.491)" fill="#fff"/>
          <path id="Caminho_868" data-name="Caminho 868" d="M116.095,11.177a.069.069,0,0,1,.071-.067.071.071,0,0,1,.072.067.072.072,0,0,1-.072.069.071.071,0,0,1-.071-.069" transform="translate(-100.452 1.494)" fill="#fff"/>
          <path id="Caminho_869" data-name="Caminho 869" d="M116.219,11.177a.069.069,0,0,1,.071-.067.071.071,0,0,1,.072.067.072.072,0,0,1-.072.069.071.071,0,0,1-.071-.069" transform="translate(-100.357 1.494)" fill="#fff"/>
          <path id="Caminho_870" data-name="Caminho 870" d="M116.158,11.283a.071.071,0,0,1,.141,0,.071.071,0,0,1-.141,0" transform="translate(-100.404 1.576)" fill="#fff"/>
          <path id="Caminho_871" data-name="Caminho 871" d="M116.132,11.4a.069.069,0,0,1,.071-.067.067.067,0,1,1,0,.134.069.069,0,0,1-.071-.067" transform="translate(-100.424 1.666)" fill="#fff"/>
          <path id="Caminho_872" data-name="Caminho 872" d="M116.127,11.518a.072.072,0,1,1,.072.067.07.07,0,0,1-.072-.067" transform="translate(-100.428 1.756)" fill="#fff"/>
          <path id="Caminho_873" data-name="Caminho 873" d="M116.164,11.624a.071.071,0,1,1,.071.069.07.07,0,0,1-.071-.069" transform="translate(-100.399 1.837)" fill="#fff"/>
          <path id="Caminho_874" data-name="Caminho 874" d="M116.233,11.724a.069.069,0,0,1,.071-.069.068.068,0,1,1,0,.136.069.069,0,0,1-.071-.067" transform="translate(-100.346 1.912)" fill="#fff"/>
          <path id="Caminho_875" data-name="Caminho 875" d="M116.313,11.1a.072.072,0,0,1,.143,0,.072.072,0,0,1-.143,0" transform="translate(-100.285 1.437)" fill="#fff"/>
          <path id="Caminho_876" data-name="Caminho 876" d="M116.424,11.043a.071.071,0,0,1,.141,0,.071.071,0,0,1-.141,0" transform="translate(-100.2 1.39)" fill="#fff"/>
          <path id="Caminho_877" data-name="Caminho 877" d="M116.544,11.005a.072.072,0,0,1,.143,0,.072.072,0,0,1-.143,0" transform="translate(-100.108 1.362)" fill="#fff"/>
          <path id="Caminho_878" data-name="Caminho 878" d="M116.671,10.983a.072.072,0,1,1,.071.067.069.069,0,0,1-.071-.067" transform="translate(-100.011 1.346)" fill="#fff"/>
          <path id="Caminho_879" data-name="Caminho 879" d="M116.795,10.985a.07.07,0,0,1,.071-.067.068.068,0,1,1,0,.136.071.071,0,0,1-.071-.069" transform="translate(-99.916 1.347)" fill="#fff"/>
          <path id="Caminho_880" data-name="Caminho 880" d="M116.924,11.007a.07.07,0,1,1,.069.067.067.067,0,0,1-.069-.067" transform="translate(-99.817 1.364)" fill="#fff"/>
          <path id="Caminho_881" data-name="Caminho 881" d="M117.042,11.049a.069.069,0,0,1,.071-.067.071.071,0,0,1,.072.067.072.072,0,0,1-.072.069.071.071,0,0,1-.071-.069" transform="translate(-99.726 1.396)" fill="#fff"/>
          <path id="Caminho_882" data-name="Caminho 882" d="M116.209,13.647h-.058v-.06h-.1v.237h.1v.163h-.221v.47h.118V15.4h-.237v.486h1.811V15.4h-.237v-.942h.118v-.47h-.221v-.163h.1v-.237h-.1v.06h-.06v-.06h-.1v.06h-.072v-.06h-.1v.237h.1v.163h-.221V13.47h.117v-.235h-.117v.058h-.058v-.058h-.1v.058h-.06v-.058h-.117v.235h.117v.516h-.221v-.163h.1v-.237h-.1v.06h-.058v-.06h-.118Zm-.4,2.236h0Zm0-.118h0Zm0-.117h0Zm0-.118h0Zm0-.132h0Zm.237-.1h0Zm0-.118h0Zm0-.131h0Zm0-.118h0Zm0-.117h0Zm0-.12h0Zm0-.117h0Zm-.118-.118h0Zm0-.118h0Zm0-.117h0Zm0-.118h0Zm.221-.117h0Zm.456-.118h0Zm0-.117h0Zm0-.118h0Zm0-.117h0Zm-.117-.15h0Zm-.339.5h0Zm-.1-.148h0Zm0,2.164v0Zm0-.235v0Zm-.118,0v0Zm.221.117v0Zm.117.118v0Zm0-.235v0Zm0-.251v0Zm0-.221v0Zm-.117.353v0Zm-.221,0v0Zm.456-.132v0Zm.1,0v0Zm-.339-.221v0Zm.235,0v0Zm.221,0v0Zm-.117,0v0Zm.117-.249v0Zm0-.237v0Zm-.117-.117v0Zm.117-.118v0Zm-.221,0v0Zm-.235,0v0Zm-.1-.118v0Zm.219,0v0Zm.223,0v0Zm.117-.117v0Zm-.221,0v0Zm-.235,0v0Zm-.1-.118v0Zm.442,0v0Zm-.223-.235v0Zm1.016,0h0Zm.1-.148h0Zm0,2.164v0Zm0-.235v0Zm.118,0v0Zm-.221.117v0Zm-.117.118v0Zm0-.235v0Zm0-.251v0Zm0-.221v0Zm.117.353v0Zm.221,0v0Zm-.456-.132v0Zm-.1,0v0Zm.339-.221v0Zm-.235,0v0Zm-.221,0v0Zm.117,0v0Zm-.117-.249v0Zm0-.237v0Zm.117-.117v0Zm-.117-.118v0Zm.221,0v0Zm.235,0v0Zm.1-.118v0Zm-.219,0v0Zm-.223,0v0Zm-.117-.117v0Zm.221,0v0Zm.235,0v0Zm.1-.118v0Zm-.442,0v0Zm.223-.235v0Zm-.456,1.309v0Zm0-.486v0Zm0,.237v0Zm0-.472v0Zm0-.235v0Zm0-.353v0Zm0-.235v0Zm-.56.191h0Zm.456-.353h0Zm.442.353h0Z" transform="translate(-100.669 3.123)" fill="#fff915"/>
          <path id="Caminho_883" data-name="Caminho 883" d="M116.757,14.97v-.311c0-.057-.028-.233-.309-.233-.265,0-.293.177-.293.233v.311Z" transform="translate(-100.406 4.036)" fill="#fff915"/>
          <path id="Caminho_884" data-name="Caminho 884" d="M116.277,14.65l-.147-.014c0-.058.012-.148.057-.177l.132.1a.167.167,0,0,0-.042.087" transform="translate(-100.425 4.061)" fill="#fff915"/>
          <path id="Caminho_885" data-name="Caminho 885" d="M116.458,14.65l.145-.014c0-.058-.014-.148-.058-.177l-.132.1a.159.159,0,0,1,.046.087" transform="translate(-100.209 4.061)" fill="#fff915"/>
          <path id="Caminho_886" data-name="Caminho 886" d="M116.431,14.555l.074-.132a.333.333,0,0,0-.133-.03.325.325,0,0,0-.118.03l.074.132Z" transform="translate(-100.33 4.01)" fill="#fff915"/>
          <path id="Caminho_887" data-name="Caminho 887" d="M116.338,14.487v-.323a.162.162,0,1,0-.323,0v.323Z" transform="translate(-100.514 3.71)" fill="#fff915"/>
          <path id="Caminho_888" data-name="Caminho 888" d="M116.456,14.487v-.323a.162.162,0,1,1,.323,0v.323Z" transform="translate(-100.176 3.71)" fill="#fff915"/>
          <path id="Caminho_889" data-name="Caminho 889" d="M116.747,13.955l.03-.293H116.5l.014.293Z" transform="translate(-100.145 3.45)" fill="#fff915"/>
          <path id="Caminho_890" data-name="Caminho 890" d="M116.271,13.955l-.028-.293h.293l-.028.293Z" transform="translate(-100.339 3.45)" fill="#fff915"/>
          <path id="Caminho_891" data-name="Caminho 891" d="M116.256,13.954l.016-.293h-.281l.03.293Z" transform="translate(-100.532 3.449)" fill="#fff915"/>
          <path id="Caminho_892" data-name="Caminho 892" d="M116.611,14.926v-.265a.184.184,0,0,0-.208-.177.178.178,0,0,0-.191.177v.265Z" transform="translate(-100.363 4.081)" fill="#2f2aec"/>
          <path id="Caminho_893" data-name="Caminho 893" d="M116.3,14.445v-.279a.136.136,0,0,0-.134-.147.134.134,0,0,0-.131.147v.279Z" transform="translate(-100.501 3.724)" fill="#2f2aec"/>
          <path id="Caminho_894" data-name="Caminho 894" d="M116.473,14.445v-.279a.133.133,0,1,1,.265,0v.279Z" transform="translate(-100.163 3.724)" fill="#2f2aec"/>
          <path id="Caminho_895" data-name="Caminho 895" d="M116.64,15.543a1.063,1.063,0,1,1,1.055,1.189,1.128,1.128,0,0,1-1.055-1.189" transform="translate(-100.035 3.981)" fill="#e5394e"/>
        </g>
      </g>
    </g>
    <g id="Elipse_31" data-name="Elipse 31" transform="translate(2387 -405)" fill="none" stroke="#781e77" stroke-width="2">
      <circle cx="17.5" cy="17.5" r="17.5" stroke="none"/>
      <circle cx="17.5" cy="17.5" r="16.5" fill="none"/>
    </g>
  </g>
</svg>
