<svg id="Group_212" data-name="Group 212" xmlns="http://www.w3.org/2000/svg" xmlns:xlink="http://www.w3.org/1999/xlink" width="89" height="60.385" viewBox="0 0 89 60.385">
  <defs>
    <clipPath id="clip-path">
      <rect id="Rectangle_255" data-name="Rectangle 255" width="89" height="60.385" fill="none"/>
    </clipPath>
  </defs>
  <g id="Group_211" data-name="Group 211" clip-path="url(#clip-path)">
    <path id="Path_393" data-name="Path 393" d="M258.1,30.833l-1.578-7.052a8.375,8.375,0,1,0-3.657-16.347L251.286.382a15.6,15.6,0,0,1,16.58,23.583,15.5,15.5,0,0,1-9.768,6.868" transform="translate(-210.082 0)" fill="#fdb515"/>
    <path id="Path_394" data-name="Path 394" d="M192.471,33.162A15.6,15.6,0,0,1,189.1,2.329l1.578,7.052a8.375,8.375,0,1,0,3.657,16.347l1.578,7.052a15.739,15.739,0,0,1-3.437.382" transform="translate(-147.891 -1.947)" fill="#ea368e"/>
    <rect id="Rectangle_253" data-name="Rectangle 253" width="46.7" height="13.603" transform="translate(41.403 48.345) rotate(-28.133)" fill="#00c3e0"/>
    <rect id="Rectangle_254" data-name="Rectangle 254" width="13.603" height="46.7" transform="translate(0 38.944) rotate(-62.669)" fill="#f67900"/>
  </g>
</svg>
