<svg xmlns="http://www.w3.org/2000/svg" xmlns:xlink="http://www.w3.org/1999/xlink" width="116.171" height="143.544" viewBox="0 0 116.171 143.544"><defs><clipPath id="a"><rect width="116.171" height="143.544" fill="none"/></clipPath></defs><rect width="13.064" height="44.085" transform="matrix(0.866, -0.5, 0.5, 0.866, 32.54, 58.713)" fill="#ffb600"/><rect width="44.085" height="13.064" transform="translate(52.619 92.097) rotate(-63.753)" fill="#ffb600"/><g clip-path="url(#a)"><path d="M160.226,42.981a21.49,21.49,0,1,1,0-42.98V9.955a11.536,11.536,0,0,0,0,23.072Z" transform="translate(-102.141 -0.001)" fill="#00c3e0"/><path d="M220.206,42.981V33.027a11.536,11.536,0,0,0,0-23.072V0a21.49,21.49,0,1,1,0,42.98" transform="translate(-162.121 -0.001)" fill="#ec308e"/><rect width="39.441" height="13.064" transform="translate(76.73 48.914)" fill="#ec308e"/><rect width="39.441" height="13.064" transform="translate(0 48.914)" fill="#ec308e"/><rect width="59.594" height="13.064" transform="translate(13.634 134.775) rotate(-47.837)" fill="#791879"/><rect width="13.064" height="59.07" transform="translate(53.593 99.323) rotate(-41.598)" fill="#791879"/></g></svg>