<svg xmlns="http://www.w3.org/2000/svg" xmlns:xlink="http://www.w3.org/1999/xlink" width="121.01" height="121.01" viewBox="0 0 121.01 121.01"><defs><clipPath id="a"><rect width="121.01" height="121.01" fill="none"/></clipPath></defs><g transform="translate(-47)"><g transform="translate(47)" clip-path="url(#a)"><path d="M268.117,224.482v-9.457a6.2,6.2,0,0,0,0-12.4v-9.457a15.656,15.656,0,1,1,0,31.311" transform="translate(-206.185 -148.551)" fill="#f67900"/><path d="M193.789,208.714a22.326,22.326,0,0,1,0-44.652v11.821a10.505,10.505,0,0,0,0,21.01Z" transform="translate(-131.857 -126.166)" fill="#00c3e0"/><rect width="11.543" height="28.665" transform="translate(54.734 0)" fill="#ffb600"/><rect width="11.543" height="28.665" transform="translate(54.734 92.345)" fill="#ffb600"/><rect width="11.542" height="28.665" transform="translate(13.641 21.802) rotate(-45)" fill="#ffb600"/><rect width="11.542" height="28.665" transform="translate(78.938 87.1) rotate(-45)" fill="#ffb600"/><rect width="28.665" height="11.543" transform="translate(0 54.733)" fill="#ffb600"/><rect width="28.665" height="11.543" transform="translate(92.345 54.733)" fill="#ffb600"/><rect width="28.665" height="11.542" transform="translate(13.641 99.207) rotate(-45)" fill="#ffb600"/><rect width="28.665" height="11.542" transform="translate(78.938 33.91) rotate(-45)" fill="#ffb600"/></g></g></svg>