<svg xmlns="http://www.w3.org/2000/svg" xmlns:xlink="http://www.w3.org/1999/xlink" width="200" height="198.692" viewBox="0 0 200 198.692"><defs><clipPath id="a"><rect width="200" height="198.692" fill="none"/></clipPath></defs><g clip-path="url(#a)"><path d="M310.851,39.45l-2.019-9.023a10.716,10.716,0,0,0-4.679-20.916L302.135.488A19.963,19.963,0,0,1,323.35,30.663a19.832,19.832,0,0,1-12.5,8.787" transform="translate(-205.818 0.001)" fill="#00c3e0"/><path d="M273.094,40.983a19.969,19.969,0,0,1-16.818-30.664,19.831,19.831,0,0,1,12.5-8.787l2.019,9.023a10.716,10.716,0,0,0,4.679,20.916l2.019,9.023a20.143,20.143,0,0,1-4.4.488" transform="translate(-172.458 -1.044)" fill="#ec308e"/><rect width="59.754" height="17.406" transform="translate(96.572 61.858) rotate(-28.134)" fill="#791879"/><rect width="17.406" height="59.754" transform="translate(43.596 49.829) rotate(-62.669)" fill="#f67900"/><path d="M.489,272.165A19.963,19.963,0,0,1,30.664,250.95a19.832,19.832,0,0,1,8.787,12.5l-9.023,2.019a10.716,10.716,0,1,0-20.916,4.679Z" transform="translate(0 -168.83)" fill="#f67900"/><path d="M21.012,321.133A20,20,0,0,1,1.533,305.526l9.023-2.019a10.716,10.716,0,1,0,20.916-4.679L40.5,296.81a19.972,19.972,0,0,1-19.484,24.323" transform="translate(-1.044 -202.19)" fill="#ec308e"/><rect width="17.406" height="59.754" transform="translate(33.682 50.387) rotate(-28.134)" fill="#00c3e0"/><rect width="59.754" height="17.406" transform="translate(34.367 148.066) rotate(-62.67)" fill="#ec308e"/><path d="M268.857,538.969a19.966,19.966,0,0,1-4.319-39.451l2.019,9.023a10.716,10.716,0,0,0,4.679,20.916l2.019,9.023a20.14,20.14,0,0,1-4.4.488" transform="translate(-169.571 -340.277)" fill="#ec308e"/><path d="M306.614,537.436l-2.019-9.023a10.716,10.716,0,0,0-4.679-20.916l-2.019-9.023a19.963,19.963,0,1,1,8.716,38.963" transform="translate(-202.932 -339.233)" fill="#ec308e"/><rect width="59.754" height="17.406" transform="translate(42.527 149.66) rotate(-28.134)" fill="#791879"/><rect width="17.406" height="59.754" transform="matrix(0.459, -0.888, 0.888, 0.459, 95.329, 136.89)" fill="#f67900"/><path d="M523.063,323.447a19.981,19.981,0,0,1-19.442-15.612l9.023-2.019a10.716,10.716,0,1,0,20.916-4.679l9.024-2.019a19.963,19.963,0,0,1-15.123,23.839,20.125,20.125,0,0,1-4.4.489" transform="translate(-343.072 -203.763)" fill="#791879"/><path d="M502.577,274.485a19.963,19.963,0,1,1,38.962-8.716l-9.023,2.019a10.716,10.716,0,1,0-20.916,4.679Z" transform="translate(-342.028 -170.413)" fill="#ec308e"/><rect width="17.406" height="59.754" transform="translate(122.792 103.818) rotate(-28.134)" fill="#00c3e0"/><rect width="59.754" height="17.406" transform="translate(122.736 95.718) rotate(-62.67)" fill="#ec308e"/></g></svg>