<svg xmlns="http://www.w3.org/2000/svg" width="296.5" height="253.147" viewBox="0 0 296.5 253.147">
  <g id="Group_250" data-name="Group 250" transform="translate(0 0.001)">
    <rect id="Rectangle_358" data-name="Rectangle 358" width="18.704" height="119.527" transform="translate(171.817 15.149)" fill="#791879"/>
    <rect id="Rectangle_359" data-name="Rectangle 359" width="18.13" height="126.994" transform="translate(0 68.213)" fill="#f67900"/>
    <rect id="Rectangle_360" data-name="Rectangle 360" width="182.439" height="11.952" transform="matrix(0.943, -0.332, 0.332, 0.943, 7.082, 189.57)" fill="#791879"/>
    <rect id="Rectangle_361" data-name="Rectangle 361" width="193.776" height="16.42" transform="translate(0.121 68.377) rotate(-20.663)" fill="#ec308e"/>
    <rect id="Rectangle_362" data-name="Rectangle 362" width="18.705" height="117.693" transform="translate(5.151 203.702) rotate(-65.26)" fill="#791879"/>
    <rect id="Rectangle_363" data-name="Rectangle 363" width="188.968" height="16.419" transform="translate(106.693 237.619) rotate(-18.977)" fill="#ec308e"/>
    <rect id="Rectangle_364" data-name="Rectangle 364" width="25.33" height="9.352" transform="translate(85.23 198.346) rotate(-19.379)" fill="#f67900"/>
    <rect id="Rectangle_365" data-name="Rectangle 365" width="28.123" height="9.352" transform="translate(125.614 184.142) rotate(-19.379)" fill="#791879"/>
    <rect id="Rectangle_366" data-name="Rectangle 366" width="26.966" height="9.82" transform="translate(166.768 169.419) rotate(-19.376)" fill="#ec308e"/>
    <rect id="Rectangle_367" data-name="Rectangle 367" width="25.33" height="9.82" transform="translate(107.366 210.433) rotate(-19.376)" fill="#ec308e"/>
    <rect id="Rectangle_368" data-name="Rectangle 368" width="28.123" height="9.352" transform="translate(147.828 196.45) rotate(-19.379)" fill="#f67900"/>
    <rect id="Rectangle_369" data-name="Rectangle 369" width="26.966" height="9.352" transform="translate(189.059 181.948) rotate(-19.379)" fill="#791879"/>
    <rect id="Rectangle_370" data-name="Rectangle 370" width="18.13" height="123.222" transform="translate(177.305 142.877) rotate(-64.771)" fill="#f67900"/>
    <rect id="Rectangle_371" data-name="Rectangle 371" width="182.438" height="18.129" transform="translate(6.058 186.658) rotate(-19.379)" fill="#00c3e0"/>
  </g>
</svg>
