<svg xmlns="http://www.w3.org/2000/svg" width="312.603" height="144.088" viewBox="0 0 312.603 144.088"><g transform="translate(-979 -4942.782)"><g transform="translate(0 -14)"><path d="M6.768,5.12H1.314V17h3.1V12.878H6.768c2.952,0,4.59-1.386,4.59-3.816C11.358,6.506,9.72,5.12,6.768,5.12Zm-.486,5.49H4.41V7.46H6.282c1.368,0,1.962.522,1.962,1.566C8.244,10.088,7.65,10.61,6.282,10.61Zm12.4-2.79a2.734,2.734,0,0,0-2.736,2.106L15.822,8h-2.7v9h3.06V12.464A1.947,1.947,0,0,1,18.2,10.34a2.333,2.333,0,0,1,1.134.27l.324-2.592A2.071,2.071,0,0,0,18.684,7.82Zm6.39,0c-3.006,0-4.752,1.728-4.752,4.68s1.746,4.68,4.752,4.68,4.752-1.728,4.752-4.68S28.08,7.82,25.074,7.82Zm0,2.178c1.134,0,1.692.738,1.692,2.5S26.208,15,25.074,15s-1.692-.738-1.692-2.5S23.94,10,25.074,10Zm12.1,5H34.092c-.594,0-.936-.216-.936-.612,0-.324.162-.522.576-.63a8.3,8.3,0,0,0,1.728.162c2.79,0,4.392-1.1,4.392-3.042A2.658,2.658,0,0,0,38.34,8.4c.27-.558.972-.936,2.106-.774L40.1,5.588A2.552,2.552,0,0,0,37.26,8a8.952,8.952,0,0,0-1.8-.18c-2.79,0-4.392,1.116-4.392,3.06a2.645,2.645,0,0,0,1.458,2.466,1.98,1.98,0,0,0-1.458,1.836,2.02,2.02,0,0,0,1.368,1.872c-1.17.27-1.656.954-1.656,1.692,0,1.3,1.35,2.124,4.608,2.124,3.042,0,5.058-1.08,5.058-3.168C40.446,15.9,39.24,15,37.17,15ZM35.46,9.566a1.252,1.252,0,0,1,1.332,1.314,1.333,1.333,0,0,1-2.664,0A1.252,1.252,0,0,1,35.46,9.566ZM35.6,18.89c-1.746,0-2.5-.306-2.5-.828,0-.432.378-.63,1.368-.63h2.466c.828,0,1.1.216,1.1.576C38.034,18.512,37.26,18.89,35.6,18.89ZM47.214,7.82a2.734,2.734,0,0,0-2.736,2.106L44.352,8h-2.7v9h3.06V12.464a1.947,1.947,0,0,1,2.016-2.124,2.333,2.333,0,0,1,1.134.27l.324-2.592A2.071,2.071,0,0,0,47.214,7.82Zm10.764,7.434q-.648,0-.648-.7V11.276c0-2.322-1.53-3.456-4.3-3.456-2.448,0-3.852,1.062-4.158,2.772l2.484.72a1.5,1.5,0,0,1,1.674-1.386,1.206,1.206,0,0,1,1.278,1.332v.324l-2.034.4c-2.556.5-3.51,1.458-3.51,2.952,0,1.458,1.008,2.25,2.79,2.25,1.656,0,2.7-.522,3.2-1.386.27.972,1.116,1.386,2.322,1.386a2.509,2.509,0,0,0,1.224-.288l.234-1.71A1.75,1.75,0,0,1,57.978,15.254Zm-5.31-.054c-.558,0-.882-.27-.882-.774s.306-.756,1.062-.936l1.458-.342v.774C54.306,14.75,53.424,15.2,52.668,15.2ZM71.46,7.82a3.2,3.2,0,0,0-3.006,1.818A2.849,2.849,0,0,0,65.592,7.82a3.143,3.143,0,0,0-3.024,1.908L62.478,8H59.742v9H62.8V12.248c0-1.476.738-2.088,1.584-2.088.72,0,1.224.414,1.224,1.548V17h3.06V12.194c0-1.35.666-2.034,1.584-2.034.738,0,1.224.414,1.224,1.548V17H74.5l.036-5.994A2.894,2.894,0,0,0,71.46,7.82Zm13.914,7.434q-.648,0-.648-.7V11.276c0-2.322-1.53-3.456-4.3-3.456-2.448,0-3.852,1.062-4.158,2.772l2.484.72a1.5,1.5,0,0,1,1.674-1.386A1.206,1.206,0,0,1,81.7,11.258v.324l-2.034.4c-2.556.5-3.51,1.458-3.51,2.952,0,1.458,1.008,2.25,2.79,2.25,1.656,0,2.7-.522,3.2-1.386.27.972,1.116,1.386,2.322,1.386a2.509,2.509,0,0,0,1.224-.288l.234-1.71A1.75,1.75,0,0,1,85.374,15.254Zm-5.31-.054c-.558,0-.882-.27-.882-.774s.306-.756,1.062-.936l1.458-.342v.774C81.7,14.75,80.82,15.2,80.064,15.2ZM99.558,17h3.186L98.586,5.12H94.878L90.7,17h3.114l.828-2.682h4.1ZM95.31,12.212l.882-2.862L96.678,7.5h.036l.522,1.872.864,2.844Zm14.364,2.394a2.1,2.1,0,0,1-1.3.4A1.048,1.048,0,0,1,107.19,13.8V10.178h2.7V8h-2.7V5.138l-3.06.846V8h-1.548v2.178h1.548V14.3c.018,2.088,1.278,2.88,3.312,2.88a4.786,4.786,0,0,0,2.538-.684Zm3.132-7.65c1.242,0,1.782-.45,1.782-1.458,0-1.026-.54-1.476-1.782-1.476s-1.782.45-1.782,1.476C111.024,6.506,111.564,6.956,112.806,6.956ZM114.336,8h-3.06v9h3.06Zm8.028,0-1.89,7.056L118.62,8H115.4l3.24,9h3.654l3.24-9Zm12.744,7.254q-.648,0-.648-.7V11.276c0-2.322-1.53-3.456-4.3-3.456-2.448,0-3.852,1.062-4.158,2.772l2.484.72a1.5,1.5,0,0,1,1.674-1.386,1.206,1.206,0,0,1,1.278,1.332v.324l-2.034.4c-2.556.5-3.51,1.458-3.51,2.952,0,1.458,1.008,2.25,2.79,2.25,1.656,0,2.7-.522,3.2-1.386.27.972,1.116,1.386,2.322,1.386a2.509,2.509,0,0,0,1.224-.288l.234-1.71A1.75,1.75,0,0,1,135.108,15.254ZM129.8,15.2c-.558,0-.882-.27-.882-.774s.306-.756,1.062-.936l1.458-.342v.774C131.436,14.75,130.554,15.2,129.8,15.2ZM145.17,5.12h-3.1V17h3.1Zm8.28,2.7a3.139,3.139,0,0,0-3.078,1.926L150.282,8h-2.736v9h3.06V12.248c0-1.494.738-2.088,1.62-2.088.756,0,1.278.414,1.278,1.692V17h3.06V11.006A2.9,2.9,0,0,0,153.45,7.82Zm8.694-.45c0-.936.558-1.3,1.494-1.3a1.583,1.583,0,0,1,1.026.288l.306-1.908a3.448,3.448,0,0,0-2.07-.522c-2.034,0-3.636.972-3.636,3.24V8h-1.44v2.178h1.44V17h3.06V10.178h2.556V8h-2.736Zm7.632-2.034,1.242,1.6h2.2l-1.962-3.114H168.3l-1.962,3.114h2.2Zm4.824,9.918q-.648,0-.648-.7V11.276c0-2.322-1.53-3.456-4.3-3.456-2.448,0-3.852,1.062-4.158,2.772l2.484.72a1.5,1.5,0,0,1,1.674-1.386,1.206,1.206,0,0,1,1.278,1.332v.324l-2.034.4c-2.556.5-3.51,1.458-3.51,2.952,0,1.458,1.008,2.25,2.79,2.25,1.656,0,2.7-.522,3.2-1.386.27.972,1.116,1.386,2.322,1.386a2.509,2.509,0,0,0,1.224-.288l.234-1.71A1.75,1.75,0,0,1,174.6,15.254Zm-5.31-.054c-.558,0-.882-.27-.882-.774s.306-.756,1.062-.936l1.458-.342v.774C170.928,14.75,170.046,15.2,169.29,15.2Zm12.978-7.38a3.139,3.139,0,0,0-3.078,1.926L179.1,8h-2.736v9h3.06V12.248c0-1.494.738-2.088,1.62-2.088.756,0,1.278.414,1.278,1.692V17h3.06V11.006A2.9,2.9,0,0,0,182.268,7.82Zm9.558,0c-2.988,0-4.734,1.728-4.734,4.68s1.71,4.68,4.86,4.68c2.52,0,3.978-1.188,4.23-2.754l-2.754-.882c-.144.936-.63,1.458-1.494,1.458-1.08,0-1.782-.684-1.782-2.466,0-1.764.63-2.538,1.782-2.538.81,0,1.26.5,1.386,1.548l2.844-.936C195.876,9.152,194.742,7.82,191.826,7.82Zm7.506-.864c1.242,0,1.782-.45,1.782-1.458,0-1.026-.54-1.476-1.782-1.476s-1.782.45-1.782,1.476C197.55,6.506,198.09,6.956,199.332,6.956ZM200.862,8H197.8v9h3.06Zm10.872,7.254q-.648,0-.648-.7V11.276c0-2.322-1.53-3.456-4.3-3.456-2.448,0-3.852,1.062-4.158,2.772l2.484.72a1.5,1.5,0,0,1,1.674-1.386,1.206,1.206,0,0,1,1.278,1.332v.324l-2.034.4c-2.556.5-3.51,1.458-3.51,2.952,0,1.458,1.008,2.25,2.79,2.25,1.656,0,2.7-.522,3.2-1.386.27.972,1.116,1.386,2.322,1.386a2.509,2.509,0,0,0,1.224-.288l.234-1.71A1.75,1.75,0,0,1,211.734,15.254Zm-5.31-.054c-.558,0-.882-.27-.882-.774s.306-.756,1.062-.936l1.458-.342v.774C208.062,14.75,207.18,15.2,206.424,15.2Z" transform="translate(1002.777 5080)" fill="#781e77"/><path d="M329.237,369.08a7.045,7.045,0,1,1-7.045-7.045,7.045,7.045,0,0,1,7.045,7.045" transform="translate(664.854 4721.42)" fill="#fdb515"/></g><g transform="translate(0 -3.415)"><path d="M6.768,5.12H1.314V17h3.1V12.878H6.768c2.952,0,4.59-1.386,4.59-3.816C11.358,6.506,9.72,5.12,6.768,5.12Zm-.486,5.49H4.41V7.46H6.282c1.368,0,1.962.522,1.962,1.566C8.244,10.088,7.65,10.61,6.282,10.61Zm12.4-2.79a2.734,2.734,0,0,0-2.736,2.106L15.822,8h-2.7v9h3.06V12.464A1.947,1.947,0,0,1,18.2,10.34a2.333,2.333,0,0,1,1.134.27l.324-2.592A2.071,2.071,0,0,0,18.684,7.82Zm6.39,0c-3.006,0-4.752,1.728-4.752,4.68s1.746,4.68,4.752,4.68,4.752-1.728,4.752-4.68S28.08,7.82,25.074,7.82Zm0,2.178c1.134,0,1.692.738,1.692,2.5S26.208,15,25.074,15s-1.692-.738-1.692-2.5S23.94,10,25.074,10Zm12.1,5H34.092c-.594,0-.936-.216-.936-.612,0-.324.162-.522.576-.63a8.3,8.3,0,0,0,1.728.162c2.79,0,4.392-1.1,4.392-3.042A2.658,2.658,0,0,0,38.34,8.4c.27-.558.972-.936,2.106-.774L40.1,5.588A2.552,2.552,0,0,0,37.26,8a8.952,8.952,0,0,0-1.8-.18c-2.79,0-4.392,1.116-4.392,3.06a2.645,2.645,0,0,0,1.458,2.466,1.98,1.98,0,0,0-1.458,1.836,2.02,2.02,0,0,0,1.368,1.872c-1.17.27-1.656.954-1.656,1.692,0,1.3,1.35,2.124,4.608,2.124,3.042,0,5.058-1.08,5.058-3.168C40.446,15.9,39.24,15,37.17,15ZM35.46,9.566a1.252,1.252,0,0,1,1.332,1.314,1.333,1.333,0,0,1-2.664,0A1.252,1.252,0,0,1,35.46,9.566ZM35.6,18.89c-1.746,0-2.5-.306-2.5-.828,0-.432.378-.63,1.368-.63h2.466c.828,0,1.1.216,1.1.576C38.034,18.512,37.26,18.89,35.6,18.89ZM47.214,7.82a2.734,2.734,0,0,0-2.736,2.106L44.352,8h-2.7v9h3.06V12.464a1.947,1.947,0,0,1,2.016-2.124,2.333,2.333,0,0,1,1.134.27l.324-2.592A2.071,2.071,0,0,0,47.214,7.82Zm10.764,7.434q-.648,0-.648-.7V11.276c0-2.322-1.53-3.456-4.3-3.456-2.448,0-3.852,1.062-4.158,2.772l2.484.72a1.5,1.5,0,0,1,1.674-1.386,1.206,1.206,0,0,1,1.278,1.332v.324l-2.034.4c-2.556.5-3.51,1.458-3.51,2.952,0,1.458,1.008,2.25,2.79,2.25,1.656,0,2.7-.522,3.2-1.386.27.972,1.116,1.386,2.322,1.386a2.509,2.509,0,0,0,1.224-.288l.234-1.71A1.75,1.75,0,0,1,57.978,15.254Zm-5.31-.054c-.558,0-.882-.27-.882-.774s.306-.756,1.062-.936l1.458-.342v.774C54.306,14.75,53.424,15.2,52.668,15.2ZM71.46,7.82a3.2,3.2,0,0,0-3.006,1.818A2.849,2.849,0,0,0,65.592,7.82a3.143,3.143,0,0,0-3.024,1.908L62.478,8H59.742v9H62.8V12.248c0-1.476.738-2.088,1.584-2.088.72,0,1.224.414,1.224,1.548V17h3.06V12.194c0-1.35.666-2.034,1.584-2.034.738,0,1.224.414,1.224,1.548V17H74.5l.036-5.994A2.894,2.894,0,0,0,71.46,7.82Zm13.914,7.434q-.648,0-.648-.7V11.276c0-2.322-1.53-3.456-4.3-3.456-2.448,0-3.852,1.062-4.158,2.772l2.484.72a1.5,1.5,0,0,1,1.674-1.386A1.206,1.206,0,0,1,81.7,11.258v.324l-2.034.4c-2.556.5-3.51,1.458-3.51,2.952,0,1.458,1.008,2.25,2.79,2.25,1.656,0,2.7-.522,3.2-1.386.27.972,1.116,1.386,2.322,1.386a2.509,2.509,0,0,0,1.224-.288l.234-1.71A1.75,1.75,0,0,1,85.374,15.254Zm-5.31-.054c-.558,0-.882-.27-.882-.774s.306-.756,1.062-.936l1.458-.342v.774C81.7,14.75,80.82,15.2,80.064,15.2ZM99.558,17h3.186L98.586,5.12H94.878L90.7,17h3.114l.828-2.682h4.1ZM95.31,12.212l.882-2.862L96.678,7.5h.036l.522,1.872.864,2.844Zm14.364,2.394a2.1,2.1,0,0,1-1.3.4A1.048,1.048,0,0,1,107.19,13.8V10.178h2.7V8h-2.7V5.138l-3.06.846V8h-1.548v2.178h1.548V14.3c.018,2.088,1.278,2.88,3.312,2.88a4.786,4.786,0,0,0,2.538-.684Zm3.132-7.65c1.242,0,1.782-.45,1.782-1.458,0-1.026-.54-1.476-1.782-1.476s-1.782.45-1.782,1.476C111.024,6.506,111.564,6.956,112.806,6.956ZM114.336,8h-3.06v9h3.06Zm8.028,0-1.89,7.056L118.62,8H115.4l3.24,9h3.654l3.24-9Zm12.744,7.254q-.648,0-.648-.7V11.276c0-2.322-1.53-3.456-4.3-3.456-2.448,0-3.852,1.062-4.158,2.772l2.484.72a1.5,1.5,0,0,1,1.674-1.386,1.206,1.206,0,0,1,1.278,1.332v.324l-2.034.4c-2.556.5-3.51,1.458-3.51,2.952,0,1.458,1.008,2.25,2.79,2.25,1.656,0,2.7-.522,3.2-1.386.27.972,1.116,1.386,2.322,1.386a2.509,2.509,0,0,0,1.224-.288l.234-1.71A1.75,1.75,0,0,1,135.108,15.254ZM129.8,15.2c-.558,0-.882-.27-.882-.774s.306-.756,1.062-.936l1.458-.342v.774C131.436,14.75,130.554,15.2,129.8,15.2ZM150.534,5.12h-3.1V12.1c0,1.8-.468,2.646-1.764,2.646-1.314,0-1.8-.81-1.494-2.988l-3.06.54c-.522,2.862.864,4.878,4.41,4.878,3.186,0,5-1.746,5-4.752ZM158.6,8v4.77c0,1.44-.7,2.07-1.656,2.07-.792,0-1.242-.378-1.242-1.6V8h-3.06v6.012c0,2.268,1.242,3.168,3.078,3.168a3.125,3.125,0,0,0,3.114-1.854l.09,1.674h2.736V8ZM169.7,8l-1.89,7.056L165.96,8h-3.222l3.24,9h3.654l3.24-9Zm12.816,4.374c0-2.844-1.566-4.554-4.5-4.554-3.006,0-4.7,1.71-4.7,4.68s1.71,4.68,4.86,4.68c2.088,0,3.618-.792,4.14-2.358l-2.484-.792a1.534,1.534,0,0,1-1.656.99,1.727,1.727,0,0,1-1.89-1.638h6.138A5.669,5.669,0,0,0,182.52,12.374ZM178,9.962c.954,0,1.512.612,1.674,1.764h-3.384C176.454,10.5,177.03,9.962,178,9.962ZM190.134,7.82a3.139,3.139,0,0,0-3.078,1.926L186.966,8H184.23v9h3.06V12.248c0-1.494.738-2.088,1.62-2.088.756,0,1.278.414,1.278,1.692V17h3.06V11.006A2.9,2.9,0,0,0,190.134,7.82Zm11.43,6.786a2.1,2.1,0,0,1-1.3.4A1.048,1.048,0,0,1,199.08,13.8V10.178h2.7V8h-2.7V5.138l-3.06.846V8h-1.548v2.178h1.548V14.3c.018,2.088,1.278,2.88,3.312,2.88a4.786,4.786,0,0,0,2.538-.684ZM209.07,8v4.77c0,1.44-.7,2.07-1.656,2.07-.792,0-1.242-.378-1.242-1.6V8h-3.06v6.012c0,2.268,1.242,3.168,3.078,3.168a3.125,3.125,0,0,0,3.114-1.854l.09,1.674h2.736V8Zm11.322-3.816V9.53a2.893,2.893,0,0,0-2.736-1.71c-2.3,0-3.708,1.728-3.708,4.716,0,2.934,1.368,4.644,3.708,4.644a3.079,3.079,0,0,0,2.916-1.89L220.7,17h2.754V4.184ZM218.718,14.93c-1.044,0-1.692-.738-1.692-2.43s.648-2.43,1.692-2.43c1.062,0,1.656.846,1.656,2.34l.018-.036v.234l-.018-.018C220.374,14.138,219.744,14.93,218.718,14.93ZM234.4,12.374c0-2.844-1.566-4.554-4.5-4.554-3.006,0-4.7,1.71-4.7,4.68s1.71,4.68,4.86,4.68c2.088,0,3.618-.792,4.14-2.358l-2.484-.792a1.534,1.534,0,0,1-1.656.99,1.727,1.727,0,0,1-1.89-1.638h6.138A5.669,5.669,0,0,0,234.4,12.374Zm-4.518-2.412c.954,0,1.512.612,1.674,1.764h-3.384C228.33,10.5,228.906,9.962,229.878,9.962ZM9.4,38.032A3.9,3.9,0,0,0,5.364,33.82c-2.718,0-4.248,1.764-4.248,4.68s1.638,4.68,4.356,4.68a3.853,3.853,0,0,0,3.744-1.962l-1.206-.63c-.324.864-1.224,1.332-2.538,1.332a2.851,2.851,0,0,1-2.934-2.88H9.324A7.083,7.083,0,0,0,9.4,38.032ZM5.364,35.08c1.53,0,2.448,1.026,2.646,2.682H2.556A2.712,2.712,0,0,1,5.364,35.08Zm7.488-4.968a1.08,1.08,0,1,0,1.08,1.08A1.083,1.083,0,0,0,12.852,30.112ZM13.572,34h-1.44v9.774c0,1.26-.54,1.692-1.314,1.692a2.2,2.2,0,0,1-1.476-.558l-.306,1.368a2.873,2.873,0,0,0,1.8.594,2.646,2.646,0,0,0,2.736-2.952Zm11.07,4.032A3.9,3.9,0,0,0,20.61,33.82c-2.718,0-4.248,1.764-4.248,4.68S18,43.18,20.718,43.18a3.853,3.853,0,0,0,3.744-1.962l-1.206-.63c-.324.864-1.224,1.332-2.538,1.332a2.851,2.851,0,0,1-2.934-2.88H24.57A7.083,7.083,0,0,0,24.642,38.032ZM20.61,35.08c1.53,0,2.448,1.026,2.646,2.682H17.8A2.712,2.712,0,0,1,20.61,35.08Zm10.566-1.26c-2.718,0-4.356,1.764-4.356,4.68s1.638,4.68,4.356,4.68a3.816,3.816,0,0,0,3.816-2.646l-1.332-.468a2.3,2.3,0,0,1-2.52,1.854c-1.8,0-2.88-1.278-2.88-3.42s1.08-3.42,2.88-3.42a2.332,2.332,0,0,1,2.394,1.782l1.368-.648A3.82,3.82,0,0,0,31.176,33.82ZM43.884,34v4.9A2.731,2.731,0,0,1,41,41.92c-1.3,0-2.124-.558-2.124-2.412V34H37.44v5.886a3.017,3.017,0,0,0,3.312,3.294,3.456,3.456,0,0,0,3.222-1.548L44.064,43h1.26V34Zm9.792,7.164a2.05,2.05,0,0,1-1.53.666,1.221,1.221,0,0,1-1.35-1.314V35.242h3.33V34H50.8V31.444l-1.44.4V34h-1.8v1.242h1.8v5.526a2.259,2.259,0,0,0,2.5,2.412,3.361,3.361,0,0,0,2.322-.81Zm9.918.792c-.5,0-.684-.216-.684-.648V36.88c0-2.088-1.494-3.06-3.546-3.06a3.663,3.663,0,0,0-3.636,2.2l1.062.774a2.638,2.638,0,0,1,2.574-1.71,1.889,1.889,0,0,1,2.106,1.98v.5l-2.394.4c-2.322.4-3.51,1.458-3.51,2.808,0,1.62,1.368,2.412,3.06,2.412a3.544,3.544,0,0,0,2.9-1.332,1.417,1.417,0,0,0,1.62,1.332,3.267,3.267,0,0,0,1.08-.18l.09-1.134A3.155,3.155,0,0,1,63.594,41.956Zm-4.9-.036c-1.026,0-1.638-.4-1.638-1.152,0-.846.81-1.368,2.394-1.656l2.016-.378v1.242C61.47,41.164,60.138,41.92,58.7,41.92ZM72.954,29.86V35.4a3.4,3.4,0,0,0-2.988-1.584c-2.5,0-4.1,1.746-4.1,4.68s1.6,4.68,4.1,4.68a3.365,3.365,0,0,0,3.078-1.746L73.134,43h1.26V29.86ZM70.128,41.92c-1.764,0-2.826-1.332-2.826-3.42s1.062-3.42,2.826-3.42c1.71,0,2.826,1.278,2.826,3.312v.216C72.954,40.642,71.838,41.92,70.128,41.92Zm11.412-8.1c-2.718,0-4.356,1.764-4.356,4.68s1.638,4.68,4.356,4.68S85.9,41.416,85.9,38.5,84.258,33.82,81.54,33.82Zm0,1.242c1.818,0,2.916,1.3,2.916,3.438s-1.1,3.438-2.916,3.438-2.916-1.3-2.916-3.438S79.722,35.062,81.54,35.062Zm21.006,2.97a3.9,3.9,0,0,0-4.032-4.212c-2.718,0-4.248,1.764-4.248,4.68s1.638,4.68,4.356,4.68a3.853,3.853,0,0,0,3.744-1.962l-1.206-.63c-.324.864-1.224,1.332-2.538,1.332a2.851,2.851,0,0,1-2.934-2.88h6.786A7.083,7.083,0,0,0,102.546,38.032ZM98.514,35.08c1.53,0,2.448,1.026,2.646,2.682H95.706A2.712,2.712,0,0,1,98.514,35.08Zm11.142-1.26a3.256,3.256,0,0,0-3.024,1.584l-.09-1.4h-1.26v9h1.44V38.212c0-2.3,1.476-3.132,2.79-3.132,1.242,0,2.214.666,2.214,2.664V43h1.44V37.24A3.224,3.224,0,0,0,109.656,33.82Zm20.628,4.212a3.9,3.9,0,0,0-4.032-4.212c-2.718,0-4.248,1.764-4.248,4.68s1.638,4.68,4.356,4.68a3.853,3.853,0,0,0,3.744-1.962l-1.206-.63c-.324.864-1.224,1.332-2.538,1.332a2.851,2.851,0,0,1-2.934-2.88h6.786A7.084,7.084,0,0,0,130.284,38.032Zm-4.032-2.952c1.53,0,2.448,1.026,2.646,2.682h-5.454A2.712,2.712,0,0,1,126.252,35.08Zm9.828,8.1c2.3,0,3.762-1.1,3.762-2.664,0-1.476-.9-2.232-3.42-2.646-1.836-.306-2.43-.7-2.43-1.476,0-.666.9-1.314,2.106-1.314a2.194,2.194,0,0,1,2.34,1.62l1.224-.72c-.5-1.476-1.638-2.16-3.564-2.16-2.2,0-3.546,1.242-3.546,2.7,0,1.512.936,2.214,3.492,2.682,1.8.324,2.358.72,2.358,1.386,0,.738-.7,1.332-2.178,1.332a2.814,2.814,0,0,1-2.844-1.584l-1.17.81A4.1,4.1,0,0,0,136.08,43.18ZM146.3,33.82c-2.718,0-4.356,1.764-4.356,4.68s1.638,4.68,4.356,4.68a3.816,3.816,0,0,0,3.816-2.646l-1.332-.468a2.3,2.3,0,0,1-2.52,1.854c-1.8,0-2.88-1.278-2.88-3.42s1.08-3.42,2.88-3.42a2.332,2.332,0,0,1,2.394,1.782l1.368-.648A3.82,3.82,0,0,0,146.3,33.82Zm12.708.18v4.9a2.731,2.731,0,0,1-2.88,3.024c-1.3,0-2.124-.558-2.124-2.412V34h-1.44v5.886a3.017,3.017,0,0,0,3.312,3.294,3.456,3.456,0,0,0,3.222-1.548l.09,1.368h1.26V34Zm12.51,4.032a3.9,3.9,0,0,0-4.032-4.212c-2.718,0-4.248,1.764-4.248,4.68s1.638,4.68,4.356,4.68a3.853,3.853,0,0,0,3.744-1.962l-1.206-.63c-.324.864-1.224,1.332-2.538,1.332a2.851,2.851,0,0,1-2.934-2.88h6.786A7.084,7.084,0,0,0,171.522,38.032ZM167.49,35.08c1.53,0,2.448,1.026,2.646,2.682h-5.454A2.712,2.712,0,0,1,167.49,35.08Zm8.136-5.22h-1.44V40.768c0,1.638.7,2.412,2.16,2.412a3.512,3.512,0,0,0,1.332-.252l.234-1.386a3.209,3.209,0,0,1-1.314.252c-.738,0-.972-.288-.972-1.206Zm11.52,12.1c-.5,0-.684-.216-.684-.648V36.88c0-2.088-1.494-3.06-3.546-3.06a3.663,3.663,0,0,0-3.636,2.2l1.062.774a2.638,2.638,0,0,1,2.574-1.71,1.889,1.889,0,0,1,2.106,1.98v.5l-2.394.4c-2.322.4-3.51,1.458-3.51,2.808,0,1.62,1.368,2.412,3.06,2.412a3.544,3.544,0,0,0,2.9-1.332,1.417,1.417,0,0,0,1.62,1.332,3.267,3.267,0,0,0,1.08-.18l.09-1.134A3.155,3.155,0,0,1,187.146,41.956Zm-4.9-.036c-1.026,0-1.638-.4-1.638-1.152,0-.846.81-1.368,2.394-1.656l2.016-.378v1.242C185.022,41.164,183.69,41.92,182.25,41.92Zm10.764,1.26c2.3,0,3.762-1.1,3.762-2.664,0-1.476-.9-2.232-3.42-2.646-1.836-.306-2.43-.7-2.43-1.476,0-.666.9-1.314,2.106-1.314a2.194,2.194,0,0,1,2.34,1.62l1.224-.72c-.5-1.476-1.638-2.16-3.564-2.16-2.2,0-3.546,1.242-3.546,2.7,0,1.512.936,2.214,3.492,2.682,1.8.324,2.358.72,2.358,1.386,0,.738-.7,1.332-2.178,1.332a2.814,2.814,0,0,1-2.844-1.584l-1.17.81A4.1,4.1,0,0,0,193.014,43.18Zm19.944-1.224c-.5,0-.684-.216-.684-.648V36.88c0-2.088-1.494-3.06-3.546-3.06a3.663,3.663,0,0,0-3.636,2.2l1.062.774a2.638,2.638,0,0,1,2.574-1.71,1.889,1.889,0,0,1,2.106,1.98v.5l-2.394.4c-2.322.4-3.51,1.458-3.51,2.808,0,1.62,1.368,2.412,3.06,2.412a3.544,3.544,0,0,0,2.9-1.332,1.417,1.417,0,0,0,1.62,1.332,3.267,3.267,0,0,0,1.08-.18l.09-1.134A3.155,3.155,0,0,1,212.958,41.956Zm-4.9-.036c-1.026,0-1.638-.4-1.638-1.152,0-.846.81-1.368,2.394-1.656l2.016-.378v1.242C210.834,41.164,209.5,41.92,208.062,41.92Zm10.764,1.26c2.3,0,3.762-1.1,3.762-2.664,0-1.476-.9-2.232-3.42-2.646-1.836-.306-2.43-.7-2.43-1.476,0-.666.9-1.314,2.106-1.314a2.194,2.194,0,0,1,2.34,1.62l1.224-.72c-.5-1.476-1.638-2.16-3.564-2.16-2.2,0-3.546,1.242-3.546,2.7,0,1.512.936,2.214,3.492,2.682,1.8.324,2.358.72,2.358,1.386,0,.738-.7,1.332-2.178,1.332a2.814,2.814,0,0,1-2.844-1.584l-1.17.81A4.1,4.1,0,0,0,218.826,43.18Zm10.224-9.36c-2.718,0-4.356,1.764-4.356,4.68s1.638,4.68,4.356,4.68,4.356-1.764,4.356-4.68S231.768,33.82,229.05,33.82Zm0,1.242c1.818,0,2.916,1.3,2.916,3.438s-1.1,3.438-2.916,3.438-2.916-1.3-2.916-3.438S227.232,35.062,229.05,35.062Zm10.944-1.242c-2.718,0-4.356,1.764-4.356,4.68s1.638,4.68,4.356,4.68a3.816,3.816,0,0,0,3.816-2.646l-1.332-.468a2.3,2.3,0,0,1-2.52,1.854c-1.8,0-2.88-1.278-2.88-3.42s1.08-3.42,2.88-3.42a2.332,2.332,0,0,1,2.394,1.782l1.368-.648A3.82,3.82,0,0,0,239.994,33.82Zm7.074-1.548a1.08,1.08,0,1,0-1.08-1.08A1.02,1.02,0,0,0,247.068,32.272Zm.72,1.728h-1.44v9h1.44Zm10.728,7.956c-.5,0-.684-.216-.684-.648V36.88c0-2.088-1.494-3.06-3.546-3.06a3.663,3.663,0,0,0-3.636,2.2l1.062.774a2.638,2.638,0,0,1,2.574-1.71,1.889,1.889,0,0,1,2.106,1.98v.5l-2.394.4c-2.322.4-3.51,1.458-3.51,2.808,0,1.62,1.368,2.412,3.06,2.412a3.544,3.544,0,0,0,2.9-1.332,1.417,1.417,0,0,0,1.62,1.332,3.267,3.267,0,0,0,1.08-.18l.09-1.134A3.154,3.154,0,0,1,258.516,41.956Zm-4.9-.036c-1.026,0-1.638-.4-1.638-1.152,0-.846.81-1.368,2.394-1.656l2.016-.378v1.242C256.392,41.164,255.06,41.92,253.62,41.92Zm14.256-12.06V35.4a3.4,3.4,0,0,0-2.988-1.584c-2.5,0-4.1,1.746-4.1,4.68s1.6,4.68,4.1,4.68a3.365,3.365,0,0,0,3.078-1.746l.09,1.566h1.26V29.86ZM265.05,41.92c-1.764,0-2.826-1.332-2.826-3.42s1.062-3.42,2.826-3.42c1.71,0,2.826,1.278,2.826,3.312v.216C267.876,40.642,266.76,41.92,265.05,41.92Zm14.994.036c-.5,0-.684-.216-.684-.648V36.88c0-2.088-1.494-3.06-3.546-3.06a3.663,3.663,0,0,0-3.636,2.2l1.062.774a2.638,2.638,0,0,1,2.574-1.71,1.889,1.889,0,0,1,2.106,1.98v.5l-2.394.4c-2.322.4-3.51,1.458-3.51,2.808,0,1.62,1.368,2.412,3.06,2.412a3.544,3.544,0,0,0,2.9-1.332,1.417,1.417,0,0,0,1.62,1.332,3.266,3.266,0,0,0,1.08-.18l.09-1.134A3.154,3.154,0,0,1,280.044,41.956Zm-4.9-.036c-1.026,0-1.638-.4-1.638-1.152,0-.846.81-1.368,2.394-1.656l2.016-.378v1.242C277.92,41.164,276.588,41.92,275.148,41.92Zm10.764,1.26c2.3,0,3.762-1.1,3.762-2.664,0-1.476-.9-2.232-3.42-2.646-1.836-.306-2.43-.7-2.43-1.476,0-.666.9-1.314,2.106-1.314a2.194,2.194,0,0,1,2.34,1.62l1.224-.72c-.5-1.476-1.638-2.16-3.564-2.16-2.2,0-3.546,1.242-3.546,2.7,0,1.512.936,2.214,3.492,2.682,1.8.324,2.358.72,2.358,1.386,0,.738-.7,1.332-2.178,1.332a2.814,2.814,0,0,1-2.844-1.584l-1.17.81A4.1,4.1,0,0,0,285.912,43.18Z" transform="translate(1001.929 5006)" fill="#781e77"/><path d="M327.146,368.035a6,6,0,1,1-6-6,6,6,0,0,1,6,6" transform="translate(665.899 4649.563)" fill="#05c3de"/></g><g transform="translate(0 7.737)"><path d="M6.768,5.12H1.314V17h3.1V12.878H6.768c2.952,0,4.59-1.386,4.59-3.816C11.358,6.506,9.72,5.12,6.768,5.12Zm-.486,5.49H4.41V7.46H6.282c1.368,0,1.962.522,1.962,1.566C8.244,10.088,7.65,10.61,6.282,10.61Zm12.4-2.79a2.734,2.734,0,0,0-2.736,2.106L15.822,8h-2.7v9h3.06V12.464A1.947,1.947,0,0,1,18.2,10.34a2.333,2.333,0,0,1,1.134.27l.324-2.592A2.071,2.071,0,0,0,18.684,7.82Zm6.39,0c-3.006,0-4.752,1.728-4.752,4.68s1.746,4.68,4.752,4.68,4.752-1.728,4.752-4.68S28.08,7.82,25.074,7.82Zm0,2.178c1.134,0,1.692.738,1.692,2.5S26.208,15,25.074,15s-1.692-.738-1.692-2.5S23.94,10,25.074,10Zm12.1,5H34.092c-.594,0-.936-.216-.936-.612,0-.324.162-.522.576-.63a8.3,8.3,0,0,0,1.728.162c2.79,0,4.392-1.1,4.392-3.042A2.658,2.658,0,0,0,38.34,8.4c.27-.558.972-.936,2.106-.774L40.1,5.588A2.552,2.552,0,0,0,37.26,8a8.952,8.952,0,0,0-1.8-.18c-2.79,0-4.392,1.116-4.392,3.06a2.645,2.645,0,0,0,1.458,2.466,1.98,1.98,0,0,0-1.458,1.836,2.02,2.02,0,0,0,1.368,1.872c-1.17.27-1.656.954-1.656,1.692,0,1.3,1.35,2.124,4.608,2.124,3.042,0,5.058-1.08,5.058-3.168C40.446,15.9,39.24,15,37.17,15ZM35.46,9.566a1.252,1.252,0,0,1,1.332,1.314,1.333,1.333,0,0,1-2.664,0A1.252,1.252,0,0,1,35.46,9.566ZM35.6,18.89c-1.746,0-2.5-.306-2.5-.828,0-.432.378-.63,1.368-.63h2.466c.828,0,1.1.216,1.1.576C38.034,18.512,37.26,18.89,35.6,18.89ZM47.214,7.82a2.734,2.734,0,0,0-2.736,2.106L44.352,8h-2.7v9h3.06V12.464a1.947,1.947,0,0,1,2.016-2.124,2.333,2.333,0,0,1,1.134.27l.324-2.592A2.071,2.071,0,0,0,47.214,7.82Zm10.764,7.434q-.648,0-.648-.7V11.276c0-2.322-1.53-3.456-4.3-3.456-2.448,0-3.852,1.062-4.158,2.772l2.484.72a1.5,1.5,0,0,1,1.674-1.386,1.206,1.206,0,0,1,1.278,1.332v.324l-2.034.4c-2.556.5-3.51,1.458-3.51,2.952,0,1.458,1.008,2.25,2.79,2.25,1.656,0,2.7-.522,3.2-1.386.27.972,1.116,1.386,2.322,1.386a2.509,2.509,0,0,0,1.224-.288l.234-1.71A1.75,1.75,0,0,1,57.978,15.254Zm-5.31-.054c-.558,0-.882-.27-.882-.774s.306-.756,1.062-.936l1.458-.342v.774C54.306,14.75,53.424,15.2,52.668,15.2ZM71.46,7.82a3.2,3.2,0,0,0-3.006,1.818A2.849,2.849,0,0,0,65.592,7.82a3.143,3.143,0,0,0-3.024,1.908L62.478,8H59.742v9H62.8V12.248c0-1.476.738-2.088,1.584-2.088.72,0,1.224.414,1.224,1.548V17h3.06V12.194c0-1.35.666-2.034,1.584-2.034.738,0,1.224.414,1.224,1.548V17H74.5l.036-5.994A2.894,2.894,0,0,0,71.46,7.82Zm13.914,7.434q-.648,0-.648-.7V11.276c0-2.322-1.53-3.456-4.3-3.456-2.448,0-3.852,1.062-4.158,2.772l2.484.72a1.5,1.5,0,0,1,1.674-1.386A1.206,1.206,0,0,1,81.7,11.258v.324l-2.034.4c-2.556.5-3.51,1.458-3.51,2.952,0,1.458,1.008,2.25,2.79,2.25,1.656,0,2.7-.522,3.2-1.386.27.972,1.116,1.386,2.322,1.386a2.509,2.509,0,0,0,1.224-.288l.234-1.71A1.75,1.75,0,0,1,85.374,15.254Zm-5.31-.054c-.558,0-.882-.27-.882-.774s.306-.756,1.062-.936l1.458-.342v.774C81.7,14.75,80.82,15.2,80.064,15.2ZM99.558,17h3.186L98.586,5.12H94.878L90.7,17h3.114l.828-2.682h4.1ZM95.31,12.212l.882-2.862L96.678,7.5h.036l.522,1.872.864,2.844Zm14.364,2.394a2.1,2.1,0,0,1-1.3.4A1.048,1.048,0,0,1,107.19,13.8V10.178h2.7V8h-2.7V5.138l-3.06.846V8h-1.548v2.178h1.548V14.3c.018,2.088,1.278,2.88,3.312,2.88a4.786,4.786,0,0,0,2.538-.684Zm3.132-7.65c1.242,0,1.782-.45,1.782-1.458,0-1.026-.54-1.476-1.782-1.476s-1.782.45-1.782,1.476C111.024,6.506,111.564,6.956,112.806,6.956ZM114.336,8h-3.06v9h3.06Zm8.028,0-1.89,7.056L118.62,8H115.4l3.24,9h3.654l3.24-9Zm12.744,7.254q-.648,0-.648-.7V11.276c0-2.322-1.53-3.456-4.3-3.456-2.448,0-3.852,1.062-4.158,2.772l2.484.72a1.5,1.5,0,0,1,1.674-1.386,1.206,1.206,0,0,1,1.278,1.332v.324l-2.034.4c-2.556.5-3.51,1.458-3.51,2.952,0,1.458,1.008,2.25,2.79,2.25,1.656,0,2.7-.522,3.2-1.386.27.972,1.116,1.386,2.322,1.386a2.509,2.509,0,0,0,1.224-.288l.234-1.71A1.75,1.75,0,0,1,135.108,15.254ZM129.8,15.2c-.558,0-.882-.27-.882-.774s.306-.756,1.062-.936l1.458-.342v.774C131.436,14.75,130.554,15.2,129.8,15.2ZM150.534,5.12h-3.1V12.1c0,1.8-.468,2.646-1.764,2.646-1.314,0-1.8-.81-1.494-2.988l-3.06.54c-.522,2.862.864,4.878,4.41,4.878,3.186,0,5-1.746,5-4.752ZM158.6,8v4.77c0,1.44-.7,2.07-1.656,2.07-.792,0-1.242-.378-1.242-1.6V8h-3.06v6.012c0,2.268,1.242,3.168,3.078,3.168a3.125,3.125,0,0,0,3.114-1.854l.09,1.674h2.736V8ZM169.7,8l-1.89,7.056L165.96,8h-3.222l3.24,9h3.654l3.24-9Zm12.816,4.374c0-2.844-1.566-4.554-4.5-4.554-3.006,0-4.7,1.71-4.7,4.68s1.71,4.68,4.86,4.68c2.088,0,3.618-.792,4.14-2.358l-2.484-.792a1.534,1.534,0,0,1-1.656.99,1.727,1.727,0,0,1-1.89-1.638h6.138A5.669,5.669,0,0,0,182.52,12.374ZM178,9.962c.954,0,1.512.612,1.674,1.764h-3.384C176.454,10.5,177.03,9.962,178,9.962ZM190.134,7.82a3.139,3.139,0,0,0-3.078,1.926L186.966,8H184.23v9h3.06V12.248c0-1.494.738-2.088,1.62-2.088.756,0,1.278.414,1.278,1.692V17h3.06V11.006A2.9,2.9,0,0,0,190.134,7.82Zm11.43,6.786a2.1,2.1,0,0,1-1.3.4A1.048,1.048,0,0,1,199.08,13.8V10.178h2.7V8h-2.7V5.138l-3.06.846V8h-1.548v2.178h1.548V14.3c.018,2.088,1.278,2.88,3.312,2.88a4.786,4.786,0,0,0,2.538-.684ZM209.07,8v4.77c0,1.44-.7,2.07-1.656,2.07-.792,0-1.242-.378-1.242-1.6V8h-3.06v6.012c0,2.268,1.242,3.168,3.078,3.168a3.125,3.125,0,0,0,3.114-1.854l.09,1.674h2.736V8Zm11.322-3.816V9.53a2.893,2.893,0,0,0-2.736-1.71c-2.3,0-3.708,1.728-3.708,4.716,0,2.934,1.368,4.644,3.708,4.644a3.079,3.079,0,0,0,2.916-1.89L220.7,17h2.754V4.184ZM218.718,14.93c-1.044,0-1.692-.738-1.692-2.43s.648-2.43,1.692-2.43c1.062,0,1.656.846,1.656,2.34l.018-.036v.234l-.018-.018C220.374,14.138,219.744,14.93,218.718,14.93ZM234.4,12.374c0-2.844-1.566-4.554-4.5-4.554-3.006,0-4.7,1.71-4.7,4.68s1.71,4.68,4.86,4.68c2.088,0,3.618-.792,4.14-2.358l-2.484-.792a1.534,1.534,0,0,1-1.656.99,1.727,1.727,0,0,1-1.89-1.638h6.138A5.669,5.669,0,0,0,234.4,12.374Zm-4.518-2.412c.954,0,1.512.612,1.674,1.764h-3.384C228.33,10.5,228.906,9.962,229.878,9.962ZM9.4,38.032A3.9,3.9,0,0,0,5.364,33.82c-2.718,0-4.248,1.764-4.248,4.68s1.638,4.68,4.356,4.68a3.853,3.853,0,0,0,3.744-1.962l-1.206-.63c-.324.864-1.224,1.332-2.538,1.332a2.851,2.851,0,0,1-2.934-2.88H9.324A7.083,7.083,0,0,0,9.4,38.032ZM5.364,35.08c1.53,0,2.448,1.026,2.646,2.682H2.556A2.712,2.712,0,0,1,5.364,35.08Zm7.488-4.968a1.08,1.08,0,1,0,1.08,1.08A1.083,1.083,0,0,0,12.852,30.112ZM13.572,34h-1.44v9.774c0,1.26-.54,1.692-1.314,1.692a2.2,2.2,0,0,1-1.476-.558l-.306,1.368a2.873,2.873,0,0,0,1.8.594,2.646,2.646,0,0,0,2.736-2.952Zm11.07,4.032A3.9,3.9,0,0,0,20.61,33.82c-2.718,0-4.248,1.764-4.248,4.68S18,43.18,20.718,43.18a3.853,3.853,0,0,0,3.744-1.962l-1.206-.63c-.324.864-1.224,1.332-2.538,1.332a2.851,2.851,0,0,1-2.934-2.88H24.57A7.083,7.083,0,0,0,24.642,38.032ZM20.61,35.08c1.53,0,2.448,1.026,2.646,2.682H17.8A2.712,2.712,0,0,1,20.61,35.08Zm10.566-1.26c-2.718,0-4.356,1.764-4.356,4.68s1.638,4.68,4.356,4.68a3.816,3.816,0,0,0,3.816-2.646l-1.332-.468a2.3,2.3,0,0,1-2.52,1.854c-1.8,0-2.88-1.278-2.88-3.42s1.08-3.42,2.88-3.42a2.332,2.332,0,0,1,2.394,1.782l1.368-.648A3.82,3.82,0,0,0,31.176,33.82ZM43.884,34v4.9A2.731,2.731,0,0,1,41,41.92c-1.3,0-2.124-.558-2.124-2.412V34H37.44v5.886a3.017,3.017,0,0,0,3.312,3.294,3.456,3.456,0,0,0,3.222-1.548L44.064,43h1.26V34Zm9.792,7.164a2.05,2.05,0,0,1-1.53.666,1.221,1.221,0,0,1-1.35-1.314V35.242h3.33V34H50.8V31.444l-1.44.4V34h-1.8v1.242h1.8v5.526a2.259,2.259,0,0,0,2.5,2.412,3.361,3.361,0,0,0,2.322-.81Zm9.918.792c-.5,0-.684-.216-.684-.648V36.88c0-2.088-1.494-3.06-3.546-3.06a3.663,3.663,0,0,0-3.636,2.2l1.062.774a2.638,2.638,0,0,1,2.574-1.71,1.889,1.889,0,0,1,2.106,1.98v.5l-2.394.4c-2.322.4-3.51,1.458-3.51,2.808,0,1.62,1.368,2.412,3.06,2.412a3.544,3.544,0,0,0,2.9-1.332,1.417,1.417,0,0,0,1.62,1.332,3.267,3.267,0,0,0,1.08-.18l.09-1.134A3.155,3.155,0,0,1,63.594,41.956Zm-4.9-.036c-1.026,0-1.638-.4-1.638-1.152,0-.846.81-1.368,2.394-1.656l2.016-.378v1.242C61.47,41.164,60.138,41.92,58.7,41.92ZM72.954,29.86V35.4a3.4,3.4,0,0,0-2.988-1.584c-2.5,0-4.1,1.746-4.1,4.68s1.6,4.68,4.1,4.68a3.365,3.365,0,0,0,3.078-1.746L73.134,43h1.26V29.86ZM70.128,41.92c-1.764,0-2.826-1.332-2.826-3.42s1.062-3.42,2.826-3.42c1.71,0,2.826,1.278,2.826,3.312v.216C72.954,40.642,71.838,41.92,70.128,41.92Zm11.412-8.1c-2.718,0-4.356,1.764-4.356,4.68s1.638,4.68,4.356,4.68S85.9,41.416,85.9,38.5,84.258,33.82,81.54,33.82Zm0,1.242c1.818,0,2.916,1.3,2.916,3.438s-1.1,3.438-2.916,3.438-2.916-1.3-2.916-3.438S79.722,35.062,81.54,35.062Zm21.006,2.97a3.9,3.9,0,0,0-4.032-4.212c-2.718,0-4.248,1.764-4.248,4.68s1.638,4.68,4.356,4.68a3.853,3.853,0,0,0,3.744-1.962l-1.206-.63c-.324.864-1.224,1.332-2.538,1.332a2.851,2.851,0,0,1-2.934-2.88h6.786A7.083,7.083,0,0,0,102.546,38.032ZM98.514,35.08c1.53,0,2.448,1.026,2.646,2.682H95.706A2.712,2.712,0,0,1,98.514,35.08Zm11.142-1.26a3.256,3.256,0,0,0-3.024,1.584l-.09-1.4h-1.26v9h1.44V38.212c0-2.3,1.476-3.132,2.79-3.132,1.242,0,2.214.666,2.214,2.664V43h1.44V37.24A3.224,3.224,0,0,0,109.656,33.82Zm17.28,0a3.256,3.256,0,0,0-3.024,1.584l-.09-1.4h-1.26v9H124V38.212c0-2.3,1.476-3.132,2.79-3.132,1.242,0,2.214.666,2.214,2.664V43h1.44V37.24A3.224,3.224,0,0,0,126.936,33.82Zm13.122.18v4.9a2.731,2.731,0,0,1-2.88,3.024c-1.3,0-2.124-.558-2.124-2.412V34h-1.44v5.886a3.017,3.017,0,0,0,3.312,3.294,3.456,3.456,0,0,0,3.222-1.548l.09,1.368h1.26V34Zm12.51,4.032a3.9,3.9,0,0,0-4.032-4.212c-2.718,0-4.248,1.764-4.248,4.68s1.638,4.68,4.356,4.68a3.853,3.853,0,0,0,3.744-1.962l-1.206-.63c-.324.864-1.224,1.332-2.538,1.332a2.851,2.851,0,0,1-2.934-2.88H152.5A7.084,7.084,0,0,0,152.568,38.032Zm-4.032-2.952c1.53,0,2.448,1.026,2.646,2.682h-5.454A2.712,2.712,0,0,1,148.536,35.08Zm9.828,8.1c2.3,0,3.762-1.1,3.762-2.664,0-1.476-.9-2.232-3.42-2.646-1.836-.306-2.43-.7-2.43-1.476,0-.666.9-1.314,2.106-1.314a2.194,2.194,0,0,1,2.34,1.62l1.224-.72c-.5-1.476-1.638-2.16-3.564-2.16-2.2,0-3.546,1.242-3.546,2.7,0,1.512.936,2.214,3.492,2.682,1.8.324,2.358.72,2.358,1.386,0,.738-.7,1.332-2.178,1.332a2.814,2.814,0,0,1-2.844-1.584l-1.17.81A4.1,4.1,0,0,0,158.364,43.18Zm11.43-2.016a2.05,2.05,0,0,1-1.53.666,1.221,1.221,0,0,1-1.35-1.314V35.242h3.33V34h-3.33V31.444l-1.44.4V34h-1.8v1.242h1.8v5.526a2.259,2.259,0,0,0,2.5,2.412,3.361,3.361,0,0,0,2.322-.81Zm6.786-7.344a2.884,2.884,0,0,0-2.88,1.656L173.5,34h-1.17v9h1.44V38.14c0-2.016,1.3-2.97,2.376-2.97a2.475,2.475,0,0,1,1.134.234l.288-1.4A2.306,2.306,0,0,0,176.58,33.82Zm6.606,0c-2.718,0-4.356,1.764-4.356,4.68s1.638,4.68,4.356,4.68,4.356-1.764,4.356-4.68S185.9,33.82,183.186,33.82Zm0,1.242c1.818,0,2.916,1.3,2.916,3.438s-1.1,3.438-2.916,3.438-2.916-1.3-2.916-3.438S181.368,35.062,183.186,35.062Zm10.206,8.118c2.3,0,3.762-1.1,3.762-2.664,0-1.476-.9-2.232-3.42-2.646-1.836-.306-2.43-.7-2.43-1.476,0-.666.9-1.314,2.106-1.314a2.194,2.194,0,0,1,2.34,1.62l1.224-.72c-.5-1.476-1.638-2.16-3.564-2.16-2.2,0-3.546,1.242-3.546,2.7,0,1.512.936,2.214,3.492,2.682,1.8.324,2.358.72,2.358,1.386,0,.738-.7,1.332-2.178,1.332a2.814,2.814,0,0,1-2.844-1.584l-1.17.81A4.1,4.1,0,0,0,193.392,43.18ZM215.55,31.12h-1.368v8.388l.072,1.908h-.018l-1.278-2.376-4.95-7.92h-1.782V43h1.368V34.612l-.072-1.908h.018l1.26,2.34L213.768,43h1.782ZM225,29.5h-1.566l-1.368,3.006h1.17Zm.432,4.5v4.9a2.731,2.731,0,0,1-2.88,3.024c-1.3,0-2.124-.558-2.124-2.412V34h-1.44v5.886A3.017,3.017,0,0,0,222.3,43.18a3.456,3.456,0,0,0,3.222-1.548l.09,1.368h1.26V34Zm8.586-.18c-2.718,0-4.356,1.764-4.356,4.68s1.638,4.68,4.356,4.68a3.816,3.816,0,0,0,3.816-2.646l-1.332-.468a2.3,2.3,0,0,1-2.52,1.854c-1.8,0-2.88-1.278-2.88-3.42s1.08-3.42,2.88-3.42a2.332,2.332,0,0,1,2.394,1.782l1.368-.648A3.82,3.82,0,0,0,234.018,33.82Zm7.722-3.96H240.3V40.768c0,1.638.7,2.412,2.16,2.412a3.512,3.512,0,0,0,1.332-.252l.234-1.386a3.209,3.209,0,0,1-1.314.252c-.738,0-.972-.288-.972-1.206ZM253.6,38.032a3.9,3.9,0,0,0-4.032-4.212c-2.718,0-4.248,1.764-4.248,4.68s1.638,4.68,4.356,4.68a3.853,3.853,0,0,0,3.744-1.962l-1.206-.63c-.324.864-1.224,1.332-2.538,1.332a2.851,2.851,0,0,1-2.934-2.88h6.786A7.084,7.084,0,0,0,253.6,38.032ZM249.57,35.08c1.53,0,2.448,1.026,2.646,2.682h-5.454A2.712,2.712,0,0,1,249.57,35.08Zm10.566-1.26c-2.718,0-4.356,1.764-4.356,4.68s1.638,4.68,4.356,4.68,4.356-1.764,4.356-4.68S262.854,33.82,260.136,33.82Zm0,1.242c1.818,0,2.916,1.3,2.916,3.438s-1.1,3.438-2.916,3.438-2.916-1.3-2.916-3.438S258.318,35.062,260.136,35.062Zm10.206,8.118c2.3,0,3.762-1.1,3.762-2.664,0-1.476-.9-2.232-3.42-2.646-1.836-.306-2.43-.7-2.43-1.476,0-.666.9-1.314,2.106-1.314a2.194,2.194,0,0,1,2.34,1.62l1.224-.72c-.5-1.476-1.638-2.16-3.564-2.16-2.2,0-3.546,1.242-3.546,2.7,0,1.512.936,2.214,3.492,2.682,1.8.324,2.358.72,2.358,1.386,0,.738-.7,1.332-2.178,1.332a2.814,2.814,0,0,1-2.844-1.584l-1.17.81A4.1,4.1,0,0,0,270.342,43.18Z" transform="translate(1000.884 4932)" fill="#781e77"/><path d="M327.146,368.035a6.117,6.117,0,0,1-3.272,5.346,5.67,5.67,0,0,1-2.728.654,6,6,0,1,1,6-6" transform="translate(664.854 4574.01)" fill="none" stroke="#1fc0da" stroke-linecap="square" stroke-linejoin="round" stroke-width="2"/></g></g></svg>