<svg xmlns="http://www.w3.org/2000/svg" width="342.091" height="155" viewBox="0 0 342.091 155">
  <g id="Group_240" data-name="Group 240" transform="translate(-979 -4932)">
    <g id="Group_239" data-name="Group 239" transform="translate(0 -14)">
      <text id="Ativa_Infância_Program_" data-name="Ativa Infância Program " transform="translate(1004.091 5080)" fill="#781e77" font-size="18" font-family="WorkSans-Bold, Work Sans" font-weight="700"><tspan x="0" y="17">Ativa Infância Program </tspan></text>
      <path id="Path_474" data-name="Path 474" d="M329.237,369.08a7.045,7.045,0,1,1-7.045-7.045,7.045,7.045,0,0,1,7.045,7.045" transform="translate(664.854 4721.42)" fill="#fdb515"/>
    </g>
    <g id="Group_238" data-name="Group 238" transform="translate(0 -7)">
      <text id="Ativa_Juventude_Program_in_place_in_our_partner_schools" data-name="Ativa Juventude Program in place in our partner schools" transform="translate(1003 5006)" fill="#781e77" font-size="18" font-family="WorkSans-Bold, Work Sans" font-weight="700"><tspan x="0" y="17">Ativa Juventude Program</tspan><tspan y="17" font-family="WorkSans-Medium, Work Sans" font-weight="500"> </tspan><tspan font-family="WorkSans-Regular, Work Sans" font-weight="400"><tspan x="0" y="43">in place in our partner schools</tspan></tspan></text>
      <path id="Path_473" data-name="Path 473" d="M327.146,368.035a6,6,0,1,1-6-6,6,6,0,0,1,6,6" transform="translate(665.899 4649.563)" fill="#05c3de"/>
    </g>
    <g id="Group_237" data-name="Group 237">
      <text id="_Ativa_Juventude_Program_in_place_in_our_Centers" data-name=" Ativa Juventude Program 
in place in our Centers" transform="translate(1002 4932)" fill="#781e77" font-size="18" font-family="WorkSans-Bold, Work Sans" font-weight="700"><tspan x="0" y="17" xml:space="preserve"> Ativa Juventude Program</tspan><tspan y="17" font-family="WorkSans-Medium, Work Sans" font-weight="500"> </tspan><tspan font-family="WorkSans-Regular, Work Sans" font-weight="400"><tspan x="0" y="43">in place in our Centers</tspan></tspan></text>
      <path id="Path_495" data-name="Path 495" d="M327.146,368.035a6.117,6.117,0,0,1-3.272,5.346,5.67,5.67,0,0,1-2.728.654,6,6,0,1,1,6-6" transform="translate(664.854 4574.01)" fill="none" stroke="#1fc0da" stroke-linecap="square" stroke-linejoin="round" stroke-width="2"/>
    </g>
  </g>
</svg>
