<svg id="Group_225" data-name="Group 225" xmlns="http://www.w3.org/2000/svg" xmlns:xlink="http://www.w3.org/1999/xlink" width="240" height="154.063" viewBox="0 0 240 154.063">
  <defs>
    <clipPath id="clip-path">
      <rect id="Rectangle_13" data-name="Rectangle 13" width="240" height="154.064" fill="#fff"/>
    </clipPath>
  </defs>
  <g id="Group_5" data-name="Group 5" clip-path="url(#clip-path)">
    <path id="Path_1" data-name="Path 1" d="M49.412,66.377A24.406,24.406,0,0,0,24.825,91.066c0,14.293,9.4,24.689,23.29,24.689a19.348,19.348,0,0,0,13.793-5.9v5.3H73.6V89.967c0-13.094-10.2-23.59-24.191-23.59m-.2,37.784c-7.3,0-12.4-5.3-12.4-13.1s5.1-13.194,12.4-13.194,12.394,5.4,12.394,13.194-5.1,13.1-12.394,13.1" transform="translate(2.963 7.921)" fill="#fff"/>
    <path id="Path_2" data-name="Path 2" d="M11.695,72.122v-4.7H0V115.1H11.994V89.914c0-6.6,2.9-11.694,11.695-11.694h3.6v-11.4h-2.6a17.266,17.266,0,0,0-12.993,5.3" transform="translate(0 7.975)" fill="#fff"/>
    <path id="Path_3" data-name="Path 3" d="M151.05,66.377c-14.193,0-23.89,11.1-23.89,24.689,0,13.7,9.8,24.689,23.89,24.689,11.395,0,19.19-6.3,22.19-15.492H160.845c-1.7,2.9-4.4,4.5-9.1,4.5-7.094,0-11.193-3.6-12.393-9.7h35.184c.1-1.2.2-2.1.2-3.3,0-16.492-10.593-25.39-23.689-25.39M139.456,85.57c1.7-5.9,6.2-8.7,11.694-8.7,5.7,0,9.9,2.5,11.4,8.7Z" transform="translate(15.175 7.921)" fill="#fff"/>
    <path id="Path_4" data-name="Path 4" d="M73.849,115.219h12.1V65.843l-12.1,3Z" transform="translate(8.813 7.858)" fill="#fff"/>
    <path id="Path_5" data-name="Path 5" d="M113.533,92.648l16.892-14.994v-10.3H89.844v11.1h23.391L98.24,91.549l9.993,11.6c-12.992.8-20.989,9.995-20.989,20.99,0,12.394,10.1,21.891,22.489,21.891,12.3,0,22.591-9.5,22.591-21.891a23.234,23.234,0,0,0-5.9-16.292Zm-3.9,42.281c-6.4,0-10.694-4.7-10.694-10.895s4.3-10.9,10.694-10.9c6.3,0,10.7,4.7,10.7,10.9s-4.4,10.895-10.7,10.895" transform="translate(10.412 8.039)" fill="#fff"/>
    <path id="Path_6" data-name="Path 6" d="M199.763,66.377a18.439,18.439,0,0,0-13.393,5.6v-4.5h-11.7v47.678h11.995V89.866c0-6.6,2.9-12.093,11-12.093,7.494,0,9.595,5.5,9.595,12.093v25.289h11.894V86.17c0-10.9-6.5-19.793-19.391-19.793" transform="translate(20.846 7.921)" fill="#fff"/>
    <path id="Path_7" data-name="Path 7" d="M90.275,49.192l-16.694,7.6v8.4l16.694-5.2Z" transform="translate(8.781 5.871)" fill="#fff"/>
    <path id="Path_8" data-name="Path 8" d="M167.79,5.89a2.066,2.066,0,0,1,1.238-.54,3.266,3.266,0,0,1,1.518.354,13.2,13.2,0,0,1,1.415.828,9.8,9.8,0,0,0,1.546.838,5.038,5.038,0,0,0,1.891.382,3.451,3.451,0,0,0,1.676-.429,4.065,4.065,0,0,0,1.415-1.359,6.97,6.97,0,0,0,.931-2.4h-1.788a3.43,3.43,0,0,1-.968,1.677,1.9,1.9,0,0,1-1.266.5,3.281,3.281,0,0,1-1.5-.345,14.515,14.515,0,0,1-1.388-.809,10.463,10.463,0,0,0-1.546-.819,5.132,5.132,0,0,0-1.936-.373,3.387,3.387,0,0,0-1.648.429,4.091,4.091,0,0,0-1.415,1.34,6.539,6.539,0,0,0-.9,2.365h1.732a3.769,3.769,0,0,1,1-1.639" transform="translate(19.699 0.405)" fill="#fff"/>
    <path id="Path_9" data-name="Path 9" d="M182.086,37.285a14.561,14.561,0,0,0,3.036-3.985v6.926h2.066V25.87a15.749,15.749,0,0,0-1.126-5.875,15.377,15.377,0,0,0-3.073-4.814,14.427,14.427,0,0,0-4.571-3.258,13.7,13.7,0,0,0-11.173,0,14.29,14.29,0,0,0-4.562,3.258,15.381,15.381,0,0,0-3.082,4.814,15.772,15.772,0,0,0-1.127,5.875,15.608,15.608,0,0,0,1.127,5.837,15.3,15.3,0,0,0,3.082,4.777,14.348,14.348,0,0,0,4.562,3.23,13.868,13.868,0,0,0,5.587,1.182,13.5,13.5,0,0,0,5.046-.968,13.743,13.743,0,0,0,4.209-2.644m-9.255,1.546a11.75,11.75,0,0,1-4.776-1.015,12.432,12.432,0,0,1-3.9-2.784,12.989,12.989,0,0,1-2.644-4.125,13.427,13.427,0,0,1-.968-5.037,13.671,13.671,0,0,1,.968-5.084,13.117,13.117,0,0,1,2.644-4.153,12.357,12.357,0,0,1,3.9-2.812,11.649,11.649,0,0,1,9.552,0,12.258,12.258,0,0,1,3.9,2.812,13.136,13.136,0,0,1,2.644,4.153,13.7,13.7,0,0,1,.968,5.084,13.449,13.449,0,0,1-.968,5.037,13.008,13.008,0,0,1-2.644,4.125,12.331,12.331,0,0,1-3.9,2.784,11.754,11.754,0,0,1-4.776,1.015" transform="translate(18.912 1.281)" fill="#fff"/>
    <path id="Path_10" data-name="Path 10" d="M192.3,36.563a14.482,14.482,0,0,0,4.562,3.213,13.865,13.865,0,0,0,11.163,0,14.5,14.5,0,0,0,4.59-3.213,15.159,15.159,0,0,0,3.092-4.758,15.359,15.359,0,0,0,1.136-5.828,15.591,15.591,0,0,0-4.228-10.745,14.635,14.635,0,0,0-4.59-3.258,13.663,13.663,0,0,0-11.163,0,14.621,14.621,0,0,0-4.562,3.258,15.454,15.454,0,0,0-3.092,4.832,15.757,15.757,0,0,0-1.136,5.912,15.36,15.36,0,0,0,1.136,5.828,15,15,0,0,0,3.092,4.758m-1.192-15.745a13.382,13.382,0,0,1,2.644-4.209,12.277,12.277,0,0,1,3.9-2.831,11.51,11.51,0,0,1,9.571,0,12.309,12.309,0,0,1,3.91,2.831,13.456,13.456,0,0,1,2.626,4.209,14.052,14.052,0,0,1,.959,5.158,13.5,13.5,0,0,1-.959,5.046,13.152,13.152,0,0,1-2.626,4.144,12.5,12.5,0,0,1-3.91,2.8,11.693,11.693,0,0,1-9.571,0,12.472,12.472,0,0,1-3.9-2.8,13.082,13.082,0,0,1-2.644-4.144,13.5,13.5,0,0,1-.968-5.046,14.057,14.057,0,0,1,.968-5.158" transform="translate(22.444 1.287)" fill="#fff"/>
    <path id="Path_11" data-name="Path 11" d="M80.3,41.062a13.89,13.89,0,0,0,11.173,0,14.432,14.432,0,0,0,4.571-3.213,15.088,15.088,0,0,0,3.073-4.758,15.483,15.483,0,0,0,1.126-5.828V0H98.18V19.777a14.61,14.61,0,0,0-3.036-4.031,13.726,13.726,0,0,0-4.208-2.7,13.348,13.348,0,0,0-5.047-.977A13.565,13.565,0,0,0,80.3,13.26a14.417,14.417,0,0,0-4.562,3.258,15.567,15.567,0,0,0-3.082,4.832,15.93,15.93,0,0,0-1.127,5.912,15.528,15.528,0,0,0,1.127,5.828,15.112,15.112,0,0,0,3.082,4.758A14.283,14.283,0,0,0,80.3,41.062m-6.7-13.8a13.672,13.672,0,0,1,.968-5.084,13.136,13.136,0,0,1,2.644-4.153,12.357,12.357,0,0,1,3.9-2.812,11.649,11.649,0,0,1,9.552,0,12.228,12.228,0,0,1,3.9,2.812,13.119,13.119,0,0,1,2.645,4.153,13.694,13.694,0,0,1,.968,5.084,13.338,13.338,0,0,1-.968,5.009,13.023,13.023,0,0,1-2.645,4.107,12.292,12.292,0,0,1-3.9,2.775,11.754,11.754,0,0,1-9.552,0,12.423,12.423,0,0,1-3.9-2.775,13.039,13.039,0,0,1-2.644-4.107,13.317,13.317,0,0,1-.968-5.009" transform="translate(8.537)" fill="#fff"/>
    <path id="Path_12" data-name="Path 12" d="M134.075,35.939a14.462,14.462,0,0,0,4.013,3.277,13.784,13.784,0,0,0,4.963,1.62L141.1,44.524l1.285.95a3.562,3.562,0,0,1,1.164-.653,3.71,3.71,0,0,1,1.126-.186,2.69,2.69,0,0,1,1.844.634,2.051,2.051,0,0,1,.67,1.545,1.8,1.8,0,0,1-.4,1.183,2.224,2.224,0,0,1-1.005.67,3.878,3.878,0,0,1-1.331.214,4.943,4.943,0,0,1-2.048-.456,7.378,7.378,0,0,1-1.807-1.164l-.615,1.173a7.182,7.182,0,0,0,1.462,1.117,7.029,7.029,0,0,0,1.583.67,5.784,5.784,0,0,0,1.536.224A5.425,5.425,0,0,0,146.831,50a3.515,3.515,0,0,0,1.527-1.248,3.475,3.475,0,0,0,.559-1.938,3.487,3.487,0,0,0-1.992-3.239,4.175,4.175,0,0,0-1.8-.438,3.756,3.756,0,0,0-1.741.382l1.452-2.57a14.221,14.221,0,0,0,5.837-1.21,13.405,13.405,0,0,0,4.545-3.352,14.551,14.551,0,0,0,2.858-5.046H155.9a12.052,12.052,0,0,1-2.514,4.013,11.139,11.139,0,0,1-3.78,2.607,12.655,12.655,0,0,1-4.823.922,11.808,11.808,0,0,1-4.8-1.015,12.455,12.455,0,0,1-3.911-2.775,13.109,13.109,0,0,1-2.625-4.106,13.491,13.491,0,0,1-.959-5.01,13.843,13.843,0,0,1,.959-5.083,13.225,13.225,0,0,1,2.625-4.153,12.407,12.407,0,0,1,3.911-2.812,11.65,11.65,0,0,1,4.8-1.024,12.259,12.259,0,0,1,4.739.921,11.267,11.267,0,0,1,3.78,2.589,12.42,12.42,0,0,1,2.542,3.975h2.179a14.281,14.281,0,0,0-2.878-5.074,13.219,13.219,0,0,0-4.543-3.333,14.251,14.251,0,0,0-5.819-1.2,13.582,13.582,0,0,0-5.587,1.192,14.43,14.43,0,0,0-4.562,3.258,15.559,15.559,0,0,0-3.082,4.833,15.919,15.919,0,0,0-1.127,5.911A15.4,15.4,0,0,0,131.4,31.4a14.988,14.988,0,0,0,2.672,4.534" transform="translate(15.565 1.287)" fill="#fff"/>
    <path id="Path_13" data-name="Path 13" d="M20.3,37.454a11.459,11.459,0,0,0,3.817,2.514,13.454,13.454,0,0,0,9.693,0,11.274,11.274,0,0,0,6.359-6.331,12.97,12.97,0,0,0,.9-4.833V11.429H39V28.8a10.75,10.75,0,0,1-.744,4.013,9.276,9.276,0,0,1-2.086,3.167A9.419,9.419,0,0,1,33,38.058a10.95,10.95,0,0,1-4.05.745,10.728,10.728,0,0,1-3.995-.745,9.583,9.583,0,0,1-3.165-2.075A9.424,9.424,0,0,1,19.7,32.816a10.774,10.774,0,0,1-.753-4.013V11.429H16.882V28.8a12.947,12.947,0,0,0,.9,4.833A11.453,11.453,0,0,0,20.3,37.454" transform="translate(2.015 1.364)" fill="#fff"/>
    <path id="Path_14" data-name="Path 14" d="M6.128,14.77h7.71V12.7H6.128V10.859a11.107,11.107,0,0,1,.81-4.47A5.835,5.835,0,0,1,9.453,3.523a7.9,7.9,0,0,1,4.386-.82V.8a9.538,9.538,0,0,0-5.308.9A7.737,7.737,0,0,0,5.179,5.17a12.311,12.311,0,0,0-1.173,5.521V41.473H6.128Z" transform="translate(0.478 0.091)" fill="#fff"/>
    <path id="Path_15" data-name="Path 15" d="M47.247,22.9A10.718,10.718,0,0,1,48,18.891,9.328,9.328,0,0,1,50.1,15.724a9.562,9.562,0,0,1,3.185-2.075,11.2,11.2,0,0,1,8.036,0,9.3,9.3,0,0,1,5.242,5.242A10.716,10.716,0,0,1,67.3,22.9V40.277H69.37V22.9a12.99,12.99,0,0,0-.9-4.86,11.272,11.272,0,0,0-6.331-6.36,13.467,13.467,0,0,0-9.692,0,11.286,11.286,0,0,0-6.36,6.36,13.034,13.034,0,0,0-.9,4.86V40.277h2.067Z" transform="translate(5.392 1.287)" fill="#fff"/>
    <path id="Path_16" data-name="Path 16" d="M105.038,36.563a14.313,14.313,0,0,0,4.562,3.213,13.9,13.9,0,0,0,5.587,1.173,13.559,13.559,0,0,0,5.047-.968,13.753,13.753,0,0,0,4.208-2.645,14.544,14.544,0,0,0,3.036-3.985v6.926h2.066v-14.3a15.907,15.907,0,0,0-1.126-5.912,15.538,15.538,0,0,0-3.073-4.832,14.572,14.572,0,0,0-4.571-3.26,13.7,13.7,0,0,0-11.173,0,14.433,14.433,0,0,0-4.562,3.26,15.562,15.562,0,0,0-3.082,4.832,15.93,15.93,0,0,0-1.127,5.912,15.528,15.528,0,0,0,1.127,5.828,15.131,15.131,0,0,0,3.082,4.758m-1.173-15.671a13.136,13.136,0,0,1,2.644-4.153,12.358,12.358,0,0,1,3.9-2.812,11.649,11.649,0,0,1,9.552,0,12.229,12.229,0,0,1,3.9,2.812,13.119,13.119,0,0,1,2.645,4.153,13.7,13.7,0,0,1,.968,5.084,13.339,13.339,0,0,1-.968,5.009,13.023,13.023,0,0,1-2.645,4.107,12.272,12.272,0,0,1-3.9,2.774,11.743,11.743,0,0,1-9.552,0,12.4,12.4,0,0,1-3.9-2.774,13.039,13.039,0,0,1-2.644-4.107,13.317,13.317,0,0,1-.968-5.009,13.672,13.672,0,0,1,.968-5.084" transform="translate(12.033 1.287)" fill="#fff"/>
  </g>
</svg>
