<svg xmlns="http://www.w3.org/2000/svg" xmlns:xlink="http://www.w3.org/1999/xlink" width="200" height="128.386" viewBox="0 0 200 128.386"><defs><clipPath id="a"><rect width="200" height="128.386" fill="#781e77"/></clipPath></defs><g clip-path="url(#a)"><path d="M45.315,66.377a20.338,20.338,0,0,0-20.49,20.574c0,11.911,7.83,20.574,19.408,20.574a16.123,16.123,0,0,0,11.494-4.913v4.413h9.747V86.035c0-10.912-8.5-19.658-20.159-19.658m-.165,31.487c-6.081,0-10.33-4.415-10.33-10.913s4.249-10.995,10.33-10.995,10.329,4.5,10.329,10.995S51.23,97.864,45.149,97.864" transform="translate(-1.669 -4.462)" fill="#781e77"/><path d="M9.746,71.239V67.324H0v39.732H9.995V86.065c0-5.5,2.417-9.745,9.746-9.745h3v-9.5H20.573A14.389,14.389,0,0,0,9.746,71.239" transform="translate(0 -4.492)" fill="#781e77"/><path d="M147.068,66.377c-11.828,0-19.908,9.247-19.908,20.574,0,11.413,8.164,20.574,19.908,20.574,9.5,0,15.992-5.248,18.491-12.91H155.231c-1.416,2.415-3.665,3.748-7.581,3.748-5.912,0-9.328-3-10.328-8.08h29.32c.083-1,.166-1.75.166-2.749,0-13.744-8.828-21.158-19.74-21.158m-9.662,15.994c1.414-4.915,5.163-7.248,9.745-7.248,4.748,0,8.247,2.083,9.5,7.248Z" transform="translate(-8.547 -4.462)" fill="#781e77"/><path d="M73.849,106.99h10.08V65.843l-10.08,2.5Z" transform="translate(-4.964 -4.426)" fill="#781e77"/><path d="M109.151,88.433l14.077-12.495v-8.58H89.411v9.247H108.9l-12.5,10.912,8.328,9.663c-10.827.667-17.491,8.329-17.491,17.492,0,10.329,8.413,18.242,18.741,18.242,10.247,0,18.825-7.914,18.825-18.242a19.362,19.362,0,0,0-4.914-13.577ZM105.9,123.667c-5.33,0-8.912-3.914-8.912-9.079s3.582-9.08,8.912-9.08a9.081,9.081,0,0,1,0,18.158" transform="translate(-5.864 -4.528)" fill="#781e77"/><path d="M195.581,66.377a15.366,15.366,0,0,0-11.161,4.665V67.294h-9.747v39.732h10V85.951c0-5.5,2.415-10.078,9.164-10.078,6.245,0,8,4.582,8,10.078v21.074h9.912V82.871c0-9.081-5.414-16.494-16.16-16.494" transform="translate(-11.741 -4.462)" fill="#781e77"/><path d="M87.493,49.192,73.581,55.523v7l13.912-4.332Z" transform="translate(-4.946 -3.307)" fill="#781e77"/><path d="M167.335,5.474a1.722,1.722,0,0,1,1.032-.45,2.721,2.721,0,0,1,1.265.295,11,11,0,0,1,1.179.69,8.163,8.163,0,0,0,1.288.7,4.2,4.2,0,0,0,1.575.318,2.876,2.876,0,0,0,1.4-.357,3.387,3.387,0,0,0,1.179-1.132,5.808,5.808,0,0,0,.776-2h-1.49a2.858,2.858,0,0,1-.807,1.4,1.583,1.583,0,0,1-1.055.419,2.734,2.734,0,0,1-1.249-.287,12.1,12.1,0,0,1-1.157-.674,8.718,8.718,0,0,0-1.288-.683,4.276,4.276,0,0,0-1.614-.311,2.822,2.822,0,0,0-1.373.357,3.409,3.409,0,0,0-1.179,1.117,5.449,5.449,0,0,0-.753,1.971h1.443a3.141,3.141,0,0,1,.83-1.366" transform="translate(-11.095 -0.228)" fill="#781e77"/><path d="M178.151,32.859a12.134,12.134,0,0,0,2.53-3.321v5.772H182.4V23.347a13.124,13.124,0,0,0-.938-4.9,12.814,12.814,0,0,0-2.56-4.012,12.022,12.022,0,0,0-3.809-2.715,11.415,11.415,0,0,0-9.311,0,11.909,11.909,0,0,0-3.8,2.715,12.818,12.818,0,0,0-2.568,4.012,13.143,13.143,0,0,0-.939,4.9,13.007,13.007,0,0,0,.939,4.864,12.751,12.751,0,0,0,2.568,3.981,11.956,11.956,0,0,0,3.8,2.692,11.557,11.557,0,0,0,4.656.985,11.253,11.253,0,0,0,4.205-.807,11.452,11.452,0,0,0,3.507-2.2m-7.712,1.288a9.792,9.792,0,0,1-3.98-.846,10.36,10.36,0,0,1-3.252-2.32,10.824,10.824,0,0,1-2.2-3.437,11.189,11.189,0,0,1-.807-4.2A11.393,11.393,0,0,1,161,19.11a10.93,10.93,0,0,1,2.2-3.461,10.3,10.3,0,0,1,3.252-2.343,9.707,9.707,0,0,1,7.96,0,10.215,10.215,0,0,1,3.252,2.343,10.947,10.947,0,0,1,2.2,3.461,11.412,11.412,0,0,1,.807,4.237,11.208,11.208,0,0,1-.807,4.2,10.84,10.84,0,0,1-2.2,3.437,10.276,10.276,0,0,1-3.252,2.32,9.8,9.8,0,0,1-3.98.846" transform="translate(-10.652 -0.721)" fill="#781e77"/><path d="M191.593,32.266a12.069,12.069,0,0,0,3.8,2.677,11.554,11.554,0,0,0,9.3,0,12.082,12.082,0,0,0,3.825-2.677A12.632,12.632,0,0,0,211.1,28.3a12.8,12.8,0,0,0,.947-4.857,12.992,12.992,0,0,0-3.523-8.954,12.2,12.2,0,0,0-3.825-2.715,11.386,11.386,0,0,0-9.3,0,12.184,12.184,0,0,0-3.8,2.715,12.878,12.878,0,0,0-2.576,4.027,13.131,13.131,0,0,0-.947,4.927,12.8,12.8,0,0,0,.947,4.857,12.5,12.5,0,0,0,2.576,3.965M190.6,19.145a11.152,11.152,0,0,1,2.2-3.507,10.231,10.231,0,0,1,3.252-2.359,9.592,9.592,0,0,1,7.976,0,10.257,10.257,0,0,1,3.258,2.359,11.213,11.213,0,0,1,2.188,3.507,11.71,11.71,0,0,1,.8,4.3,11.249,11.249,0,0,1-.8,4.2,10.96,10.96,0,0,1-2.188,3.453,10.42,10.42,0,0,1-3.258,2.336,9.744,9.744,0,0,1-7.976,0A10.393,10.393,0,0,1,192.8,31.1a10.9,10.9,0,0,1-2.2-3.453,11.253,11.253,0,0,1-.807-4.2,11.714,11.714,0,0,1,.807-4.3" transform="translate(-12.641 -0.725)" fill="#781e77"/><path d="M78.841,34.218a11.575,11.575,0,0,0,9.311,0,12.027,12.027,0,0,0,3.809-2.677,12.573,12.573,0,0,0,2.56-3.965,12.9,12.9,0,0,0,.938-4.857V0H93.739V16.48a12.175,12.175,0,0,0-2.53-3.359A11.438,11.438,0,0,0,87.7,10.871a11.123,11.123,0,0,0-4.206-.814,11.3,11.3,0,0,0-4.656.993,12.014,12.014,0,0,0-3.8,2.715,12.973,12.973,0,0,0-2.568,4.027,13.275,13.275,0,0,0-.939,4.927,12.94,12.94,0,0,0,.939,4.857,12.593,12.593,0,0,0,2.568,3.965,11.9,11.9,0,0,0,3.8,2.677m-5.586-11.5a11.393,11.393,0,0,1,.807-4.237,10.946,10.946,0,0,1,2.2-3.461,10.3,10.3,0,0,1,3.252-2.343,9.707,9.707,0,0,1,7.96,0,10.19,10.19,0,0,1,3.251,2.343,10.933,10.933,0,0,1,2.2,3.461,11.412,11.412,0,0,1,.807,4.237,11.115,11.115,0,0,1-.807,4.174,10.852,10.852,0,0,1-2.2,3.422,10.244,10.244,0,0,1-3.251,2.312,9.8,9.8,0,0,1-7.96,0,10.353,10.353,0,0,1-3.252-2.312,10.866,10.866,0,0,1-2.2-3.422,11.1,11.1,0,0,1-.807-4.174" transform="translate(-4.808)" fill="#781e77"/><path d="M133.467,31.746a12.052,12.052,0,0,0,3.344,2.731,11.486,11.486,0,0,0,4.136,1.35l-1.63,3.073,1.071.792a2.968,2.968,0,0,1,.97-.544,3.091,3.091,0,0,1,.938-.155,2.242,2.242,0,0,1,1.536.528,1.709,1.709,0,0,1,.559,1.287,1.5,1.5,0,0,1-.334.986,1.853,1.853,0,0,1-.838.559,3.232,3.232,0,0,1-1.109.178,4.119,4.119,0,0,1-1.707-.38,6.148,6.148,0,0,1-1.506-.97l-.512.978a5.985,5.985,0,0,0,1.218.931,5.858,5.858,0,0,0,1.319.559,4.82,4.82,0,0,0,1.28.187,4.521,4.521,0,0,0,1.894-.372,2.93,2.93,0,0,0,1.272-1.04,2.9,2.9,0,0,0,.465-1.615,2.906,2.906,0,0,0-1.66-2.7,3.479,3.479,0,0,0-1.5-.365,3.13,3.13,0,0,0-1.45.318l1.21-2.142a11.851,11.851,0,0,0,4.864-1.008,11.171,11.171,0,0,0,3.787-2.794,12.125,12.125,0,0,0,2.381-4.2h-1.815a10.044,10.044,0,0,1-2.1,3.344,9.282,9.282,0,0,1-3.15,2.172,10.545,10.545,0,0,1-4.019.769,9.84,9.84,0,0,1-4-.846,10.379,10.379,0,0,1-3.259-2.312,10.924,10.924,0,0,1-2.187-3.421,11.242,11.242,0,0,1-.8-4.175,11.536,11.536,0,0,1,.8-4.236,11.021,11.021,0,0,1,2.187-3.461,10.339,10.339,0,0,1,3.259-2.343,9.709,9.709,0,0,1,4-.853,10.215,10.215,0,0,1,3.949.768,9.389,9.389,0,0,1,3.15,2.158,10.35,10.35,0,0,1,2.118,3.312h1.816a11.9,11.9,0,0,0-2.4-4.228,11.016,11.016,0,0,0-3.786-2.778,11.876,11.876,0,0,0-4.85-1,11.319,11.319,0,0,0-4.656.993,12.025,12.025,0,0,0-3.8,2.715,12.966,12.966,0,0,0-2.568,4.028,13.266,13.266,0,0,0-.939,4.926,12.836,12.836,0,0,0,.815,4.524,12.49,12.49,0,0,0,2.227,3.779" transform="translate(-8.767 -0.725)" fill="#781e77"/><path d="M19.73,33.116a9.549,9.549,0,0,0,3.181,2.1,11.212,11.212,0,0,0,8.078,0,9.4,9.4,0,0,0,5.3-5.276,10.808,10.808,0,0,0,.753-4.028V11.429H35.318V25.908a8.958,8.958,0,0,1-.62,3.344,7.73,7.73,0,0,1-1.739,2.639,7.849,7.849,0,0,1-2.645,1.729,9.125,9.125,0,0,1-3.375.621,8.94,8.94,0,0,1-3.329-.621,7.986,7.986,0,0,1-2.638-1.729,7.854,7.854,0,0,1-1.739-2.639,8.979,8.979,0,0,1-.628-3.344V11.429H16.882V25.908a10.789,10.789,0,0,0,.753,4.028,9.544,9.544,0,0,0,2.1,3.181" transform="translate(-1.135 -0.768)" fill="#781e77"/><path d="M5.775,12.435H12.2V10.712H5.775V9.175A9.256,9.256,0,0,1,6.45,5.451a4.863,4.863,0,0,1,2.1-2.389A6.587,6.587,0,0,1,12.2,2.378V.8a7.948,7.948,0,0,0-4.423.752A6.448,6.448,0,0,0,4.984,4.435a10.259,10.259,0,0,0-.978,4.6V34.687H5.775Z" transform="translate(-0.269 -0.051)" fill="#781e77"/><path d="M46.9,20.883a8.931,8.931,0,0,1,.629-3.344A7.773,7.773,0,0,1,49.277,14.9a7.969,7.969,0,0,1,2.654-1.729,9.333,9.333,0,0,1,6.7,0A7.747,7.747,0,0,1,63,17.539a8.93,8.93,0,0,1,.62,3.344V35.361h1.723V20.883a10.825,10.825,0,0,0-.753-4.05,9.393,9.393,0,0,0-5.276-5.3,11.222,11.222,0,0,0-8.077,0,9.4,9.4,0,0,0-5.3,5.3,10.862,10.862,0,0,0-.753,4.05V35.361H46.9Z" transform="translate(-3.037 -0.725)" fill="#781e77"/><path d="M104.336,32.266a11.927,11.927,0,0,0,3.8,2.677,11.583,11.583,0,0,0,4.656.978A11.3,11.3,0,0,0,117,35.114a11.461,11.461,0,0,0,3.506-2.2,12.12,12.12,0,0,0,2.53-3.321v5.772h1.722V23.444a13.256,13.256,0,0,0-.938-4.927,12.948,12.948,0,0,0-2.56-4.027,12.143,12.143,0,0,0-3.809-2.716,11.415,11.415,0,0,0-9.311,0,12.027,12.027,0,0,0-3.8,2.716,12.968,12.968,0,0,0-2.568,4.027,13.275,13.275,0,0,0-.939,4.927,12.94,12.94,0,0,0,.939,4.857,12.61,12.61,0,0,0,2.568,3.965m-.978-13.059a10.946,10.946,0,0,1,2.2-3.461,10.3,10.3,0,0,1,3.252-2.343,9.707,9.707,0,0,1,7.96,0,10.191,10.191,0,0,1,3.251,2.343,10.933,10.933,0,0,1,2.2,3.461,11.412,11.412,0,0,1,.807,4.237,11.116,11.116,0,0,1-.807,4.174,10.852,10.852,0,0,1-2.2,3.422,10.226,10.226,0,0,1-3.251,2.311,9.785,9.785,0,0,1-7.96,0,10.335,10.335,0,0,1-3.252-2.311,10.866,10.866,0,0,1-2.2-3.422,11.1,11.1,0,0,1-.807-4.174,11.393,11.393,0,0,1,.807-4.237" transform="translate(-6.777 -0.725)" fill="#781e77"/></g></svg>