<svg xmlns="http://www.w3.org/2000/svg" width="440" height="187.696" viewBox="0 0 440 187.696">
  <g id="Group_194" data-name="Group 194" transform="translate(-10409.045 -1731.202)">
    <path id="Path_348" data-name="Path 348" d="M794.611,257.962a10.827,10.827,0,0,1-1.235,5.755q-1.232,1.934-4.376,1.935-3,0-4.11-1.887t-.534-6.143l-6.481,1.161a12.451,12.451,0,0,0,.386,6.433,8.1,8.1,0,0,0,3.676,4.352,13.634,13.634,0,0,0,6.917,1.548q5.95,0,9.189-3.24t3.24-9v-20.17h-6.673Z" transform="translate(9817.92 1647.78)" fill="#781e77"/>
    <path id="Path_349" data-name="Path 349" d="M823.62,259.074a8.831,8.831,0,0,1-.435,2.927A5.441,5.441,0,0,1,822,264.008a4.671,4.671,0,0,1-1.717,1.137,5.619,5.619,0,0,1-1.983.361,4.7,4.7,0,0,1-3.337-1.087q-1.161-1.088-1.16-3.893V246.064h-6.627v16.058a9.589,9.589,0,0,0,1.137,4.957,6.726,6.726,0,0,0,3.071,2.781,11.586,11.586,0,0,0,9.407-.266,7.911,7.911,0,0,0,3.314-3.555l.241,4.208h5.9V246.064H823.62Z" transform="translate(9819.478 1648.168)" fill="#781e77"/>
    <path id="Path_350" data-name="Path 350" d="M846.331,265.168l-5.949-19.1h-7.11l9.189,24.183H850.1l9.191-24.183h-6.868Z" transform="translate(9820.854 1648.168)" fill="#781e77"/>
    <path id="Path_351" data-name="Path 351" d="M879.083,247.079a12.325,12.325,0,0,0-6.239-1.476,13.19,13.19,0,0,0-6.361,1.5,10.6,10.6,0,0,0-4.329,4.3,15.587,15.587,0,0,0,0,13.542,10.52,10.52,0,0,0,4.377,4.3,14,14,0,0,0,6.65,1.5,14.833,14.833,0,0,0,4.619-.7A10.743,10.743,0,0,0,881.526,268a8.476,8.476,0,0,0,2.344-3.24l-5.272-2.032A5.551,5.551,0,0,1,876.568,265a7.33,7.33,0,0,1-6.747,0,5.351,5.351,0,0,1-2.129-2.491,8.477,8.477,0,0,1-.607-2.25h17.078c.063-.451.112-.967.144-1.548s.048-1.192.048-1.838a12.1,12.1,0,0,0-1.354-5.78,9.985,9.985,0,0,0-3.918-4.014m-9.456,4.28a5.65,5.65,0,0,1,3.169-.871,4.8,4.8,0,0,1,3.893,1.644A6.356,6.356,0,0,1,878,255.664H867.158a8.916,8.916,0,0,1,.462-1.717,5.293,5.293,0,0,1,2.007-2.588" transform="translate(9822.296 1648.144)" fill="#781e77"/>
    <path id="Path_352" data-name="Path 352" d="M908.072,246.57a10.755,10.755,0,0,0-8.464-.194,8.017,8.017,0,0,0-3.072,2.3,8.311,8.311,0,0,0-1.162,1.918l-.24-4.506h-5.949v24.184h6.627V257.454a8.03,8.03,0,0,1,.8-3.87,4.947,4.947,0,0,1,2.08-2.1,5.745,5.745,0,0,1,2.636-.653,4.3,4.3,0,0,1,3.143,1.185q1.21,1.186,1.21,4.28v13.978h6.627V254.406a9.665,9.665,0,0,0-1.138-4.91,7.219,7.219,0,0,0-3.1-2.926" transform="translate(9823.804 1648.144)" fill="#781e77"/>
    <path id="Path_353" data-name="Path 353" d="M932.3,265.708a5.736,5.736,0,0,1-2.152.363,3.533,3.533,0,0,1-2.442-.8,3.236,3.236,0,0,1-.895-2.539V251.367h7.739v-4.933h-7.739v-7.4l-6.627,1.837v5.563H915.74v4.933h4.449V263.8a7.7,7.7,0,0,0,1.04,4.257,5.946,5.946,0,0,0,2.9,2.321,11.74,11.74,0,0,0,4.28.724,12.519,12.519,0,0,0,3.676-.532,8.746,8.746,0,0,0,2.9-1.451l-1.064-4.4a5.753,5.753,0,0,1-1.62.992" transform="translate(9825.204 1647.797)" fill="#781e77"/>
    <path id="Path_354" data-name="Path 354" d="M954.88,259.074a8.831,8.831,0,0,1-.435,2.927,5.441,5.441,0,0,1-1.185,2.008,4.671,4.671,0,0,1-1.717,1.137,5.619,5.619,0,0,1-1.983.361,4.7,4.7,0,0,1-3.337-1.087q-1.161-1.088-1.16-3.893V246.064h-6.627v16.058a9.589,9.589,0,0,0,1.137,4.957,6.726,6.726,0,0,0,3.071,2.781,11.586,11.586,0,0,0,9.407-.266,7.911,7.911,0,0,0,3.314-3.555l.241,4.208h5.9V246.064H954.88Z" transform="translate(9826.401 1648.168)" fill="#781e77"/>
    <path id="Path_355" data-name="Path 355" d="M984.45,250.826a8.256,8.256,0,0,0-2.08-2.878,7.664,7.664,0,0,0-5.271-1.838,10.075,10.075,0,0,0-5.392,1.475,10.241,10.241,0,0,0-3.8,4.3,15.258,15.258,0,0,0-1.4,6.844,15.565,15.565,0,0,0,1.331,6.724,10.076,10.076,0,0,0,3.676,4.3,9.7,9.7,0,0,0,5.344,1.5,8.971,8.971,0,0,0,4.063-.918,8.291,8.291,0,0,0,3.048-2.588,7.838,7.838,0,0,0,.886-1.616l.275,4.638h5.949V236H984.45Zm-.7,11.826a5.774,5.774,0,0,1-1.958,2.636,5.479,5.479,0,0,1-7.159-1.016,8.9,8.9,0,0,1-1.5-5.587,8.806,8.806,0,0,1,1.523-5.586,5.113,5.113,0,0,1,4.232-1.911,5.06,5.06,0,0,1,2.951.871,5.535,5.535,0,0,1,1.934,2.492,10.216,10.216,0,0,1,.677,3.941,11.119,11.119,0,0,1-.7,4.159" transform="translate(9827.882 1647.637)" fill="#781e77"/>
    <path id="Path_356" data-name="Path 356" d="M1018.259,251.093a9.986,9.986,0,0,0-3.918-4.014,12.325,12.325,0,0,0-6.239-1.476,13.191,13.191,0,0,0-6.361,1.5,10.6,10.6,0,0,0-4.329,4.3,15.587,15.587,0,0,0,0,13.542,10.519,10.519,0,0,0,4.377,4.3,14,14,0,0,0,6.65,1.5,14.834,14.834,0,0,0,4.62-.7,10.743,10.743,0,0,0,3.725-2.055,8.476,8.476,0,0,0,2.344-3.24l-5.272-2.032a5.551,5.551,0,0,1-2.031,2.273,7.33,7.33,0,0,1-6.747,0,5.352,5.352,0,0,1-2.129-2.491,8.484,8.484,0,0,1-.607-2.25h17.078c.063-.451.112-.967.144-1.548s.048-1.192.048-1.838a12.1,12.1,0,0,0-1.354-5.78m-13.374.266a5.651,5.651,0,0,1,3.169-.871,4.8,4.8,0,0,1,3.893,1.644,6.356,6.356,0,0,1,1.308,3.531h-10.839a8.912,8.912,0,0,1,.462-1.717,5.294,5.294,0,0,1,2.006-2.588" transform="translate(9829.431 1648.144)" fill="#781e77"/>
    <path id="Path_357" data-name="Path 357" d="M803.625,113.473a13.046,13.046,0,1,0-18.449,0,13.044,13.044,0,0,0,18.449,0" transform="translate(9818.116 1640)" fill="#781e77"/>
    <path id="Path_358" data-name="Path 358" d="M684.344,169q.057-1.094.058-2.2a42.036,42.036,0,1,0-11.9,29.236,39.571,39.571,0,0,0,28.805,12.429V185.745A16.986,16.986,0,0,1,684.344,169m-41.909,17.049a19.251,19.251,0,1,1,19.253-19.25,19.272,19.272,0,0,1-19.253,19.25" transform="translate(9808.575 1641.774)" fill="#781e77"/>
    <path id="Path_359" data-name="Path 359" d="M1006.515,169q.057-1.094.058-2.2a42.037,42.037,0,1,0-11.9,29.236,39.571,39.571,0,0,0,28.805,12.429V185.745A16.986,16.986,0,0,1,1006.515,169m-41.909,17.049a19.251,19.251,0,1,1,19.253-19.25,19.272,19.272,0,0,1-19.253,19.25" transform="translate(9825.568 1641.774)" fill="#781e77"/>
    <path id="Path_360" data-name="Path 360" d="M806.426,178.383V128.3H783.712v46.271a14.065,14.065,0,0,1-14.049,14.048V211.33c20.272,0,36.763-16.491,36.763-32.947" transform="translate(9817.499 1641.957)" fill="#781e77"/>
    <path id="Path_361" data-name="Path 361" d="M730.742,95.4H708.028V176.3a36.8,36.8,0,0,0,36.763,36.762H746.2V190.352h-1.411A14.065,14.065,0,0,1,730.742,176.3V152.185h29.882V129.47H730.742Z" transform="translate(9814.248 1640.221)" fill="#781e77"/>
    <path id="Path_362" data-name="Path 362" d="M898.059,190.882,918.095,128.3H894.246l-17.819,55.66a6.762,6.762,0,0,1-12.88,0L845.729,128.3H821.88l20.035,62.584a29.475,29.475,0,0,0,56.144,0" transform="translate(9820.253 1641.957)" fill="#781e77"/>
  </g>
</svg>
