<svg xmlns="http://www.w3.org/2000/svg" width="439.999" height="187.425" viewBox="0 0 439.999 187.425">
  <g id="Group_174" data-name="Group 174" transform="translate(-9928.47 -841.463)">
    <path id="Path_304" data-name="Path 304" d="M785.176,95.284a13.046,13.046,0,1,0,18.449,0,13.046,13.046,0,0,0-18.449,0" transform="translate(9337.54 750)" fill="#781e77"/>
    <path id="Path_305" data-name="Path 305" d="M684.344,169.257q.057-1.094.058-2.2a42.036,42.036,0,1,0-11.9,29.236,39.571,39.571,0,0,0,28.805,12.429V186.006a16.986,16.986,0,0,1-16.962-16.749m-41.909,17.049a19.251,19.251,0,1,1,19.253-19.25,19.272,19.272,0,0,1-19.253,19.25" transform="translate(9328 751.774)" fill="#781e77"/>
    <path id="Path_306" data-name="Path 306" d="M1023.477,186.006a16.986,16.986,0,0,1-16.962-16.749q.057-1.094.058-2.2a42.036,42.036,0,1,0-11.9,29.236,39.571,39.571,0,0,0,28.805,12.429Zm-58.87.3a19.251,19.251,0,1,1,19.252-19.25,19.272,19.272,0,0,1-19.252,19.25" transform="translate(9344.992 751.774)" fill="#781e77"/>
    <path id="Path_307" data-name="Path 307" d="M783.712,174.829a14.064,14.064,0,0,1-14.049,14.048v22.714c20.272,0,36.763-16.491,36.763-32.947V128.559H783.712Z" transform="translate(9336.925 751.957)" fill="#781e77"/>
    <path id="Path_308" data-name="Path 308" d="M730.742,95.656H708.028v80.909a36.8,36.8,0,0,0,36.763,36.762H746.2V190.613h-1.411a14.065,14.065,0,0,1-14.049-14.048V152.446h29.882V129.731H730.742Z" transform="translate(9333.673 750.221)" fill="#781e77"/>
    <path id="Path_309" data-name="Path 309" d="M869.987,211.632a29.378,29.378,0,0,0,28.071-20.49L918.1,128.558H894.247l-17.82,55.661a6.762,6.762,0,0,1-12.879,0l-17.819-55.66H821.881l20.035,62.584a29.378,29.378,0,0,0,28.072,20.491" transform="translate(9339.679 751.957)" fill="#781e77"/>
    <rect id="Rectangle_130" data-name="Rectangle 130" width="6.674" height="31.922" transform="translate(10178.399 996.482)" fill="#781e77"/>
    <path id="Path_310" data-name="Path 310" d="M870.914,246.573a9.98,9.98,0,0,0-4.474-.967,10.081,10.081,0,0,0-3.99.774,8.017,8.017,0,0,0-3.072,2.3,8.308,8.308,0,0,0-1.162,1.918l-.24-4.506h-5.949v24.184h6.627V257.457a8.03,8.03,0,0,1,.8-3.87,4.948,4.948,0,0,1,2.08-2.1,5.745,5.745,0,0,1,2.636-.653,4.3,4.3,0,0,1,3.143,1.185q1.21,1.186,1.21,4.28v13.978h6.627V254.409a9.666,9.666,0,0,0-1.138-4.91,7.22,7.22,0,0,0-3.1-2.926" transform="translate(9341.268 758.13)" fill="#781e77"/>
    <path id="Path_311" data-name="Path 311" d="M890.285,241.325a4.841,4.841,0,0,1,3-.846,5.867,5.867,0,0,1,1.6.194,4.611,4.611,0,0,1,1.21.533l.919-4.4a5.77,5.77,0,0,0-2.056-.895,12.106,12.106,0,0,0-3.071-.362,12.336,12.336,0,0,0-3.6.507,8.061,8.061,0,0,0-2.879,1.523,6.924,6.924,0,0,0-1.886,2.563,8.861,8.861,0,0,0-.677,3.579v2.9h-4.208v4.933h4.208V270.8h6.626v-19.25h7.352v-4.933h-7.642V244.2a3.392,3.392,0,0,1,1.113-2.877" transform="translate(9342.671 757.6)" fill="#781e77"/>
    <path id="Path_312" data-name="Path 312" d="M919.916,264.372v-9.818a8.759,8.759,0,0,0-1.331-4.982,8.086,8.086,0,0,0-3.7-2.974,14.337,14.337,0,0,0-5.562-.993,12.869,12.869,0,0,0-7.473,1.935,8.734,8.734,0,0,0-3.6,5.127l5.659,1.742a5.333,5.333,0,0,1,1.982-3.048,5.462,5.462,0,0,1,3.144-.919,4.268,4.268,0,0,1,3.12,1.16,4.334,4.334,0,0,1,1.185,3.241v.93l-8.319,1.682a9.485,9.485,0,0,0-4.983,2.346,5.948,5.948,0,0,0-1.741,4.426,6.308,6.308,0,0,0,.967,3.579,5.984,5.984,0,0,0,2.757,2.2,10.972,10.972,0,0,0,4.256.75,11.158,11.158,0,0,0,3.845-.677,8.685,8.685,0,0,0,3.169-1.959,5.542,5.542,0,0,0,.708-.865,4.385,4.385,0,0,0,.5,1.108,4.667,4.667,0,0,0,2.128,1.765,7.669,7.669,0,0,0,3.048.58,7,7,0,0,0,3.143-.629l.386-4.111a4.864,4.864,0,0,1-1.547.241q-1.74,0-1.741-1.838M912.9,263.6a3.576,3.576,0,0,1-1.208,1.451,5.327,5.327,0,0,1-1.742.774,8.1,8.1,0,0,1-1.983.242,3.636,3.636,0,0,1-2.151-.63,2.1,2.1,0,0,1-.895-1.837,2.011,2.011,0,0,1,.846-1.815,7.348,7.348,0,0,1,2.491-.894l5.078-1.016v1.5a5.18,5.18,0,0,1-.436,2.225" transform="translate(9343.706 758.13)" fill="#781e77"/>
    <path id="Path_313" data-name="Path 313" d="M909.3,238.754l3.627,4.741H918l-5.369-8.271h-6.674l-5.37,8.271h5.079Z" transform="translate(9343.83 757.583)" fill="#781e77"/>
    <path id="Path_314" data-name="Path 314" d="M945.435,246.573a9.981,9.981,0,0,0-4.474-.967,10.082,10.082,0,0,0-3.99.774,8.019,8.019,0,0,0-3.072,2.3,8.307,8.307,0,0,0-1.162,1.918l-.24-4.506h-5.949v24.184h6.627V257.457a8.03,8.03,0,0,1,.8-3.87,4.948,4.948,0,0,1,2.08-2.1,5.745,5.745,0,0,1,2.636-.653,4.3,4.3,0,0,1,3.143,1.185q1.21,1.186,1.21,4.28v13.978h6.627V254.409a9.666,9.666,0,0,0-1.138-4.91,7.221,7.221,0,0,0-3.1-2.926" transform="translate(9345.199 758.13)" fill="#781e77"/>
    <path id="Path_315" data-name="Path 315" d="M971,263.842a4.315,4.315,0,0,1-1.669,1.475,5.464,5.464,0,0,1-2.467.509,5.808,5.808,0,0,1-3.119-.822,5.159,5.159,0,0,1-2.031-2.515,11.169,11.169,0,0,1-.7-4.257,11.735,11.735,0,0,1,.677-4.28,5.225,5.225,0,0,1,1.983-2.563,5.663,5.663,0,0,1,3.144-.846,4.359,4.359,0,0,1,3.145,1.113,6.342,6.342,0,0,1,1.644,3.289l6.191-2.224a9.736,9.736,0,0,0-1.959-3.6,9.469,9.469,0,0,0-3.628-2.563,14.2,14.2,0,0,0-5.489-.943,13.433,13.433,0,0,0-6.434,1.5,10.558,10.558,0,0,0-4.353,4.3,15.59,15.59,0,0,0,0,13.544,10.5,10.5,0,0,0,4.4,4.3,15.366,15.366,0,0,0,11.849.58,9.732,9.732,0,0,0,3.725-2.563,8.875,8.875,0,0,0,1.983-3.822l-6-1.934a6,6,0,0,1-.895,2.321" transform="translate(9346.668 758.13)" fill="#781e77"/>
    <path id="Path_316" data-name="Path 316" d="M985.654,236.005a4.573,4.573,0,0,0-3.1.895,3.387,3.387,0,0,0-1.016,2.683,3.323,3.323,0,0,0,1.016,2.636,5.8,5.8,0,0,0,6.19,0,3.327,3.327,0,0,0,1.016-2.636,3.391,3.391,0,0,0-1.016-2.683,4.577,4.577,0,0,0-3.1-.895" transform="translate(9348.1 757.624)" fill="#781e77"/>
    <rect id="Rectangle_131" data-name="Rectangle 131" width="6.627" height="24.184" transform="translate(10330.416 1004.221)" fill="#781e77"/>
    <path id="Path_317" data-name="Path 317" d="M1018.091,266.21q-1.74,0-1.741-1.838v-9.818a8.76,8.76,0,0,0-1.331-4.982,8.086,8.086,0,0,0-3.7-2.974,14.339,14.339,0,0,0-5.562-.993,12.869,12.869,0,0,0-7.474,1.935,8.736,8.736,0,0,0-3.6,5.127l5.66,1.742a5.334,5.334,0,0,1,1.982-3.048,5.462,5.462,0,0,1,3.144-.919,4.268,4.268,0,0,1,3.12,1.16,4.334,4.334,0,0,1,1.185,3.241v.93l-8.319,1.682a9.485,9.485,0,0,0-4.983,2.346,5.948,5.948,0,0,0-1.741,4.426,6.306,6.306,0,0,0,.968,3.579,5.985,5.985,0,0,0,2.757,2.2,10.972,10.972,0,0,0,4.256.75,11.156,11.156,0,0,0,3.845-.677,8.684,8.684,0,0,0,3.169-1.959,5.56,5.56,0,0,0,.708-.865,4.372,4.372,0,0,0,.5,1.108,4.667,4.667,0,0,0,2.128,1.765,7.67,7.67,0,0,0,3.048.58,7,7,0,0,0,3.144-.629l.386-4.111a4.864,4.864,0,0,1-1.548.241m-8.755-2.611a3.576,3.576,0,0,1-1.208,1.451,5.328,5.328,0,0,1-1.742.774,8.1,8.1,0,0,1-1.983.242,3.637,3.637,0,0,1-2.151-.63,2.1,2.1,0,0,1-.895-1.837,2.011,2.011,0,0,1,.846-1.815,7.348,7.348,0,0,1,2.491-.894l5.078-1.016v1.5a5.18,5.18,0,0,1-.436,2.225" transform="translate(9348.792 758.13)" fill="#781e77"/>
  </g>
</svg>
