<svg xmlns="http://www.w3.org/2000/svg" xmlns:xlink="http://www.w3.org/1999/xlink" width="901.198" height="922.873" viewBox="0 0 901.198 922.873"><defs><clipPath id="a"><rect width="901.198" height="922.873" fill="none"/></clipPath></defs><g clip-path="url(#a)"><path d="M249.208,104.8l4.1,11.486,10.628,17.988h4.813l8.824,7.061L298.6,151.431l15.053,1.882-3.023,12.971L269.5,256.269l-8.02,10.428,4.676,7.048,3.37,7.586L279.964,297v14.227l8.129,5.717,4.278,4.278,3.98,4.767,150.666,13.543,9.129-19.914,8.574-6.86,7.318-14.633-1.581-6.322-1.78-5.321.919-9.19,5.613-9.353,6.834-1.708,5.68-9.738,4.208-9.279,2.888-5.065-4.88-4.183-8.721-3.27L502.017,214l6.577-3.289,9.105-10.761,7.624-15.244,8.513-20.442,5.076-10.156,2.512-16.032c-13.066-6.047-29.255-13.561-31.911-14.889-4.563-2.281-10.268,0-10.268,0h-7.983s-4.564-6.844-14.829-10.266-14.831-10.268-19.395-11.408c-3.2-.8-4.715-5.531-5.336-8.283l-5.318.306-.508,4.044-5.1,5.688-7.985,5.7-8.285,7.186-5.44,8.709-1.866,9.953-8.73.67-9.232-1.845-5.224-5.877-.567-10.219-4.9-4.923-5.974-8.365v-6.5l-2-6-3.965-1.7-3.528-9.414-4.688-4.688-9.054-3.417L352.5,68.545l-8.047-3.706-.638-6.369.068-4.975-3.2-5.6-10.268,1.14-6.845-2.282-5.7,6.845-1.142,10.266-20.533-1.14H281.36L266.531,69.57l-13.056,5.439Z" transform="translate(97.37 18.268)" fill="#ea368e"/><path d="M624.9,394.974l2.175-5.076.9-5.368,5.039-5.758-22.425-11.6-7.8,4.877-2.943-10.789-10.251-7.1-9.332.85-15.381-8.546-14.895,1.751-6.728-8.652-.712-4.976-13.6,1.512-14.458,11.021-20.661,10.33-.953-7.61H488.42l-2.982-2.98-2.225,7.421-5.568-.8v10.3l-.957,10.6-8.935,1.985-2.192-.124.1,1.1.007,9.118,6.461,10.156-5.025,4.021-3.35,7.369,4.666.777-1.057,7.4-2.748,11.937-13.945,6.507-14.016-3.5H423.188l-3.544,7.084-7.606-1.9-8.874,2.42-7.225,4.014-5.929,9.318-6.9,5.272-2.64,11.74,1.581-.175,8.81-4.848,8.546,2.25,17.381.89,1.558,3.115,4.869,4.869,4.061-3.481.606,5.464.555.081,1.224-5.307,18.657-1.332,3.763-2.51,9.173-1.929,8.189,8.187-3.4,5.948,5.645,5.21-3.133,4.477,7.586,10.621,7.579.947-.6,7.723-2.1,6.3-1.156,7.311,5.3,5.78,3.594,6.789,4.468,1.719,7.68-3.656.516-5.162,7.635,2.035,6.848-2.416,10.563-4.349,9.453-1.232,7.3-5.581,9.83-.893,5.791-.007,2.3,1.916L580.3,510.01l-.335-3.356.914-7.634,1.805-6.771,6.73-7.165.046-5.4,1.9-5.708,8.687-4.342,9.592-17.584-6.493-8.349,5.783-2.891-.591-4.14-8.122-3.481,10.824-5.413,1.762-5.289,11.977-3.423-7.2-12.165,1-11.026Z" transform="translate(148.659 130.73)" fill="#ea368e"/><path d="M502.72,330.924l-1.688-6.261-1-9.738-12.735.75-11.959,8.54-9.951.9-8.105-.9-7.269-3.656-5.682-4.057-6.627-.737-5.141,5.143-7.987-1.069-13.836-6.456,1.612-9.663h-3.325l-3.165,7.12-1.534,13.273-3.539,10.529-3.314,5.8-1.662,7.486-1.825,14.657-6.815.973-5.139,2.936-1.7,11.034-6.732,4.776-9.124,4.147-5.659,6.467-2.574,5.123-3.556,5.306-8.111,8.92,1.634,13.886L348.5,438.8l6.282.786v5.435l-2.662,2,3.466,3.467,9.175-.834,26.8,14.694,5.147,1.716,5.157-3.943,6.05-9.506,8.346-4.588,9.778-2.667,6.082,1.521,3.3-6.606,15.8.043,13.19,3.3,11.722-5.471,2.406-10.43.634-4.46-5.6-.935,5.205-11.453,3.531-2.825-5.517-8.666v-9.837l-.127-1.394-22.542-1.284-1.332-7.731,3.093-8.248,21.929,1.907,1.019,7.133.5,5.46,2.221.127,6.465-1.437.761-8.354-.007-13.523,6.41.915,2.908-9.689,5.574,5.574h3.481l1.9-5.678.477-6.228-7.34-3.388v-6.065Z" transform="translate(134.634 118.671)" fill="#ea368e"/><path d="M303.872,502.107l10.266,3.423,3.423,7.984,7.986,30.8,12.548-2.281,11.407,1.142.732,2.19,4.18-5.082,1.743-8.711,7.646-6.8.9-8.09,14.221-4.442,9.147-9.978,7.025-7.011,7.072-5.5-.851-9.358,7.189-6.289,3.233-6.467,1.827-6.4,6.972-4.358,3.158-6.318,3.1-13.943-4.129-1.4-26.133-14.331-9.649.876-6.8-6.8,4.182-3.136v-1.41l-6.23-.779-3.36-5.04h-4.354l-8.549.96-3.488-6.98,6.033-6.034-1.12-2.613-4.076,6.112H349.41l-7.578-4.211L327.323,394.4l-18.9-9.449-11.172.8-5.34,3.816-5.363,11.618h-8.275l-5.442-2.717L275.353,404l-1.14,21.676-9.126,14.831,3.421,6.844-6.844,3.423,3.423,9.126,3.421,23.955,1.142,14.831,10.266,3.423Z" transform="translate(102.237 150.406)" fill="#ea368e"/><path d="M645.014,338.529l17.736-28.823-1.818.343-9.037-6.456-2.314-4.05-4.026-3.449-3.135-6.272,6.076-2.279,4.759-1.9.057-5.691.978-3.418-2.919-5.35-4.08-2.042,2.124-7.78-3.176-1.587L642.6,253.1l-3.621-5.681L634,246.236l-5.7-3.423-7.356-3.959-2.5-1.661L612.8,243.3l-4.852,3.591-8.51,3.723-1.727,5.758-7.319,2.662-5.356-.891,1.41-5.635-1.978-4.948-4.53-4.025-6-.64-.954.88-7.817,6.148-2.434,4.869L555,256.706l-7.381.527-3.416,3.984-7.929.662-6.689-4.257-5.893-2.939-4.114,3.2-1.174,2.742,3.811,3.809-1.289,9.017-4.325,6.8-5.389,3.592-4.335,3.1h-5.861L496.381,289l-6.912,6.283-9.106-5.606.6-7.2-4.8-6.721-8,2.214-3.36,6.68-7.585,10.113-3,7.486,4.456,4.454,4.886,3.9-1.893,7.577-.043,14.718-1.649,6.6,1.1,10.747,1.748,6.407-.592,7.1,0,4.082,7.49,3.457-.719,8.773-2.177,6.529.558,4.477,16.861-8.431L499,371.35l17.206-1.911,1,7,5.249,6.748,14.2-1.672,15.418,8.565,9.492-.862,11.994,8.3,2.19,8.034,5.887-3.68,27.2,14.067-6.94,7.931-.886,5.059-2.888,6.741-5.659.809-.709,7.8,8.6,14.544,12.721,8.718v-4.674l10.268-7.985,6.844-43.349-5.7-22.815L627.9,348.8Z" transform="translate(177.472 92.676)" fill="#ea368e"/><path d="M532.294,503.948l4.246-4.776,10.727.4v-2.875l-2.005-1.432H542.3l-5.271-.519-1.752-4.027-6.534,2.723-7.771,2.747-5.2-1.388-.339,3.392-10.288,4.9-6.655-2.558-4.015-7.585-5.912-6.368,1.451-9.059,2.081-6.243.317-4.429-6.109-.763-9.525-13.336,2.857-4.079-5.478-5.057,3.446-6.03-5.5-5.5-7.082,1.492-3.937,2.624-17.278,1.235-1.342,5.815-5.434-.775-.249-2.236-1.929,1.652-7.214-7.321-.9-1.807L410.6,431.9l-7.566-1.99-8.3,4.563-3.35.373-3.252,6.5-6.717,4.2-1.655,5.7-3.55,7.1-6.5,5.688.861,9.465-8.257,6.422-6.78,6.781-5.226,5.7,9.344,2.876,5.317-1.519,3.872-2.905,10.766,4.485h9.436l9.5,4.317,6.534.816H414l12.176,8.429-.882,13.2,5.107,8.51v8.7l8.215,2.24,10.365.943,1.691,8.45h5.4l4.2,4.2,22.286-20.43,34.223-11.408,5.7-7.984,9.809-4.459Z" transform="translate(136.873 167.974)" fill="#ea368e"/><path d="M292.63,459.518l8.343,3.994h5.414l4.905-10.626,6.637-4.741,12.783-.914,18.75,9.375,14.58-2.573,7.821,4.345h7.4l6.19-9.287,4.014,9.365-5.944,5.944,1.644,3.286,6.692-.741,6.072-.011,1.007,1.509-1.506-8.35-1.8-15.291,8.927-9.821,3.313-4.968,2.731-5.358,6.2-7.083,9.568-4.349,5.375-3.838,1.723-11.211,6.841-3.909,5.162-.737,1.574-12.586,1.891-8.241,3.352-5.863,3.328-9.987,1.548-13.654.075.008-2.487-15.755-.883-17.481,6.041-24.166,2.953-10.333L311.72,261.881l-4.664-5.6-4.1-4.09-9.073-6.351V230.982l-8.678-13.019-4.63,8.6L281.42,235l-3.242,8.916,7.6,8.684-78.09-1.755-.7,7.71,3.52,8.8-3.571,8.036-.8,9.645,4.3,9.453-.679,4.749h24.542l8.86,7.876-2.774,7.4,2.437,13,3.751,5.624-4.709,8.476-5.806,9.953v9.061l-9.36,4.681-1.325,1.325,3.24,1.081,6.845,30.8h-5.7l6.845,10.268,1.14,18.252L278.8,430.46s-4.563,11.407-4.563,14.829S291.347,456.7,291.347,456.7Z" transform="translate(80.539 85.163)" fill="#ea368e"/><path d="M319.3,70.2l.488,4.876,6.66,3.073,6.86,3.994,9.305,3.491,5.58,5.578,3.314,8.839,4.023,1.724L358.1,109.7v5.808l5.361,7.507,5.442,5.442.573,10.315,3.9,4.391,7.88,1.576,6.1-.469,1.556-8.3,6.13-9.688,8.556-7.414,7.96-5.694,4.154-4.674.634-5.08,8.09-.737c1.688-2.606,7.15-11.693,5.212-17.509-2.282-6.845-5.706-7.986-7.987-12.548S413.68,70.34,410.258,63.5s-9.125-31.942-9.125-37.645-9.126-10.266-9.126-10.266l-7.985,13.689-11.408,15.97-7.986,19.394-5.7,4.563-13.689-2.281-14.829,1.14H319.3Z" transform="translate(124.756 6.089)" fill="#fecf67"/><path d="M426.581,354.235l-2.04,5.44.807,4.674,19.8,1.126-.453-4.955-.683-4.77Z" transform="translate(165.876 138.406)" fill="#fecf67"/><path d="M483.245,331.227l-5.933-5.92,3.966-9.778,7.621-10.162,2.667-5.333-9.639-4.015-.875-9.64-6.6-4.951-8.151-16.3,4.728-11.35,7.717-4.286,2.053-4.617-13.533,3.007-6.546-9.353-9.079-13.617,6.272-10.754.823-13.148-3.192-15.152L434.2,180.929l.224-.968-1.548,1.548,4.969,1.862,7.1,6.084-4.019,7.033-4.217,9.291-6.367,10.928-6.855,1.713-4.655,7.759-.793,7.922,1.613,4.838,1.873,7.474-8.084,16.169-8.536,6.828-9.222,20.121L392.3,301.4l-5.924,23.7.846,16.9L389,353.239l1.808-4.071h8.653l-1.812,10.871,11.624,5.425,5.911.738,5.125-5.125,8.774.975,6.2,4.431,6.51,3.256,7.3.811,8.871-.807,12-8.57,13.9-.818,1.409-5.634.043-14.718,1.485-5.938Z" transform="translate(150.962 70.314)" fill="#fecf67"/><path d="M25.339,283.86,83.623,298.43l31.75,18.879,34.982,14.5,11.973,5.13,8-9.3,7.94-2.978,6.792,5.094,8.625-3.92,7.723-3.31.921,5.527,2.8-.467,2.617-8.725h8.782l7.534-.759,3.094-7.737,2.69-7.176,5.2-4.329,3.851-7.7L245,293.2h11.425l6.642,5.755,6.1,8.739,2.19,4.381,13.681.8,72.814,1.637-4.379-5,3.6-9.907-.868-8.668,5.862-10.885-3.082-6.936-5.644-8.464,9.091-11.818,40.937-89.55,2.169-9.407L393,152.234l-21.669-10.443-8.158-6.525h-5.453l-11.661-19.789-3.947-11.051-21.14-.782L313.9,119.374l1.961,6.862L305.1,129.465l-8.7-8.7-9.112.7v6.353l1.007,14.048-12.633-4.211-13.007-12.078,5.322-10.643L261.3,99l-2.754-14.683L262.4,82l-9.02-13.943,3.025-6.808L247,59.082l-9.348-3.727L227.369,58.52l-1.14,9.126L217.1,69.928l-13.689,6.845-3.423,6.844-4.563,6.845-2.282-9.126-14.829,5.7L166.909,80.2l-9.126-5.7-5.7-12.548-4.563-10.266L137.25,59.662l-4.564-1.142-2.281,5.7L95.04,65.365,93.9,77.914h12.548l2.282,11.407-7.985-1.14L88.2,90.462v11.407l5.7,11.408,1.14,9.126,9.127,10.266L89.337,207.96l-17.111-3.423-4.563,3.423L44.848,220.508l-21.674,9.126-6.845,28.519L4.922,268.42v8.474Z" transform="translate(1.923 20.191)" fill="#fecf67"/><path d="M258.98,0,246.432,1.142l-1.14,10.266-7.986,5.7L216.772,28.519l-9.126-1.142-5.7,3.423-2.281,6.844L195.1,38.785l-7.986-4.563-11.407,1.142-7.987-6.845L151.749,25.1,164.3,39.926l3.421,11.408,4.564,14.831,10.266,1.14,2.281,6.844-.128.04,5.723,2.286L203.133,79.4l-3.819,8.593,9.8,15.146-4.7,2.82,2.352,12.54,7.044,16.73-4.945,9.891,10.948,10.165,7.9,2.634-.7-9.806,0-9.151,13.134-1.01,8.414,8.415,6.349-1.905-1.463-5.116,3.637-8.183,4.687-10.311,22.758.844,4.139-28.771L278.374,90.12,268.106,76.431,262.4,67.3l4.562-17.111,1.142-10.268,5.7-9.126-6.845-12.547-6.844-3.423Z" transform="translate(59.291 0)" fill="#fecf67"/><path d="M611.432,174.471l-4.193,1.4-1.648,8.047L602.6,190.5l-6.831,5.692-3.438,8.022-4.379,3.286-.249,1.992,1.246.06,3.754,2.779,4.727-.471,4.627-3.6,2.378-3.42,7.2-3.285,8.105-1.057.271,4.345-3,4.268-4.487,5.612-.673,1.648,2.174,1.037,2.834,2.289,2.583-1.909.246-.072c2.659-.784,3.317-.286,3.637-.049l.513.385a17.792,17.792,0,0,0,2.228.321l.67.056,1.384,1.936h1.955l.855-1.12-2.331-4.507,2.338-1.462-1.115-2.455.138-.506c.633-2.32,1.449-2.591,1.8-2.708l5.612-1.872.638.709c1.922,2.138,2.53,3.35,2.662,4.094a18.238,18.238,0,0,0,2.635,1.178l2.519.5,4.289-.519,3.648-1.428,4.9,1.989,2.848.238,3.767-1.2-11.948-29.124L627.082,179.9l-9.828-6.756Z" transform="translate(229.627 67.649)" fill="#fecf67"/><path d="M541.523,146.667l-1.139,5.7,1.032,7.737,2.779,2.222,1.905,7.625-1.195,6.584-1.652,5.536.974,5.849,5.755,3.452,1.224,12.247-.552,10.482,4.033,6.336-1,7.015,4.6.46,5.728,4.295-2.043,6.129-2.26,7.342,2.834.538,2.783,1.09,4.914-1.683,3.644-1.022,4.075-.853,4.6,2.756,3.388.923,4.6,5.6,1.715,3.292,1.224.98.669-.278,2.538-2.413,1.176-1.763-.533-.438,4.4-2.8.587-1.663-.2-2.762-.923-.515-3.4-5.439,2.11-6.763,2.638-3.692,1.174-9.373,4.744-3.559,3.407-7.949,6.858-5.714,2.645-5.819,1.843-9.219,5.936-1.978,3.349-.77-5.169-3.555L590.813,154.6l-26.236-15.971s-12.291.373-23.678.693Z" transform="translate(211.138 54.163)" fill="#fecf67"/><path d="M663.435,206.845l-4.2-.416-4.025-1.635-3.093,1.161-4.938.6-3.285-.673c-3.938-1.407-4.37-2.36-4.532-2.72a1.719,1.719,0,0,1-.15-.859,12.15,12.15,0,0,0-1.285-1.805l-3.393,1.132c-.046.1-.1.232-.145.366l1.722,3.788-2.224,1.391,1.946,3.762-2.85,3.73h-4.89l-1.476-2.065a7.043,7.043,0,0,1-3.474-.971c-.262.042-.6.115-.926.2l-3.969,2.933-4.438-3.585-4.243-1.928,2.024-4.792,4.564-5.7,2.362-3.36-.014-.218-4.794.626-5.858,2.733-2.357,3.275-5.466,4.251-6.68.668L589.4,203.8l-.587-.026-.5,3.991-2.926,4.094-1.453,4.842,2.3,3.685,1.642.912.364,4.937-1.125,3.185-1.868,1.189,4.32,3.552,4.645-1.017,7.417-.57,3.143-.452,2.784-5.4,4.987-4.991h7.392l2.125,7.09L620.7,235.3l-2.274,4.1,3.008,2.578,3.748,2.342,5.126-2.8,1.666-3.332,6.781-4.931,9.012-2.389,8.136-1.017,1.111-4.443,5.931-1.483,9.272,6.105.826-11.98-5.189-12.65Z" transform="translate(228.155 76.258)" fill="#fecf67"/><path d="M474.072,129.193l-5.133,10.268L460.425,159.9l-7.933,15.78-9.6,11.35-6.9,3.45-13.911,13.91,21.983,5.075,3.652,17.356-.889,14.231-5.7,9.782,8.052,12.077,5.411,7.73,17.269-3.837-4.792,10.784-7.684,4.268-3.826,9.184,7.248,14.5,7.087,5.314.834,9.181,7.969,3.321L484.366,312l-1.007-5.025L479.87,300v-.342c0-1.51.1-9.17,2-11.711,1.271-1.693,3.144-7.643,3.759-9.792l2.962-13.643,6.244-3.747,11.8-5.3,6.268-1.565,4.464-7.176,6.129-6.132h8.853l4.441,1.666,11.745-2.043,1.409-7.044-2.092-3.687-4.244-10.309L547.9,210.6l2.608-6.265-2.908-9.3,3.8-5.427-3.136-4.182.673-6.048,6.36-9.828,2.5-7.511,7.887-1.214,6.945-5.877,1.848-2.772-.184-2.633c-2.77.068-4.834.108-5.7.108-4.563,0-30.8-10.266-30.8-10.266s-7.984,4.563-11.407,3.421-10.266-4.563-11.408-9.126-11.408-19.392-11.408-19.392l-12.547,5.7s-6.3-2.908-14.4-6.655Z" transform="translate(164.913 44.281)" fill="#fecf67"/><path d="M588.543,237.226l1.388-4.171-3.4-2.548-6.81-.683L581,220.869l-3.952-6.212.588-11.191L576.58,192.9l-5.655-3.392-1.3-7.842,1.808-6.027,1.046-5.808-1.517-6.064-2.923-2.341-1.25-9.372,1.143-5.713-.6-7.158c-2.464.068-4.827.132-6.949.186l.282,3.363-2.872,4.2-7.73,6.541-6.941,1.068-2.16,6.332-6.086,9.407-.47,4.219,3.708,4.945-4.186,5.982,2.8,8.948-3.057,7.335-3.738,7.483,3.7,9,2.5,4.386-2.014,10.066-14.488,2.521-4.688-1.756h-7.118l-5.158,5.157-4.784,7.771-7.293,1.826-11.29,5.079-5.014,3.019-2.716,12.5c-.264.936-2.432,8.406-4.251,10.832-.946,1.259-1.391,6.261-1.419,9.622l3.392,6.9,1.238,6.194-5.267,10.537,7.759-2.147,6.6,9.247-.54,6.485,5.721,3.523,5.852-5.221,5.415-2.409h5.546l3.615-2.58,4.916-3.278,3.66-5.752.992-6.955-4.175-4.174,2.247-5.244,6.154-4.784,7.663,3.83,5.993,3.806,5.76-.483,3.43-4,8.465-.6,6.072-1.517,2.128-4.257,8.243-6.474,7.326-6.771,8.951-7.275,2.277-4.55-3.672-4.194-.666-9.319,5.407-3.6Z" transform="translate(181.79 54.38)" fill="#fecf67"/><path d="M0,221.549l23.957,35.363,1.14,10.266,11.408,1.14,6.845,9.126,21.673-1.14,15.971-12.548-1.142,41.068,15.971-5.7,25.1,6.845,12.548-3.423,3.423-5.7h9.126L154,288.853l17.2-7.57-2.546-3.265-17.513-7.506L115.9,255.88,84.426,237.167l-58.17-14.558L5.24,215.434Z" transform="translate(0 84.174)" fill="#fecf67"/><path d="M566.2,397.316l-10.639,3.04-1.659,4.977-6.289,3.143,3.857,1.654,1.12,7.837-4.482,2.242,5.484,7.052-10.942,20.061-8.425,4.212-1.445,4.336v8.107l2.243,7.482L544.281,473h8.326l.108-1.966,29.661-39.926V408.492Z" transform="translate(208.168 155.239)" fill="#fecf67"/><path d="M655.858,242.638l-6.4.533-6.148,1.029-3.329,4.438-9.814,3.646-7.414,1.142-2.672.674-6.408-3.231-2.281-1.711-3.48-2.9-4.073-2.708-4.648,4.048-7.154,3.339,2.463,4.512,13.281,6.641,10.39,4.033,5.226,4.646,5.951,3.663,3.524,3.143,7.34-7.34,18.555-25.513Z" transform="translate(231.321 94.803)" fill="#fecf67"/><path d="M678.855,218.735l-3.193.8-1.171,4.684-10.017,1.252-8.2,2.186-5.769,4.194-1.756,3.513-7.422,4.048-5.46-3.432-4.9-4.194,3.32-5.973,1.026-5.126-1.3-4.318H630l-3.969,3.97-3.089,6.173-4.746.679-7.407.573-5.724,1.271-5.734-4.716-1.3,1.914-3.046,2.9-2.754,1.147-3.053-2.442-1.926-3.7-3.741-4.517-3.06-.891-3.79-2.274-2.865.6-3.468.975-5.845,2-3.645-1.427-3.228-.606-1.353-.483-2.349,1.566.477,6.655,4.313,4.93-3.43,6.858-9.369,7.613-3.549,3.279,4.392.469,5.738,5.1,2.584,6.461-.872,3.489,1.488.249,5.23-1.9,1.694-5.65,9.588-4.194,4.321-3.239,7.025-7.664L588,244.5l7.3,3.923,5.56,3.334,5.491,1.22,3.634,5.7,7.205-3.363L623,250.151l6.068,4.046,3.546,2.946,2.117,1.585,5.105,2.552,1.761-.439,7.4-1.145,8.588-3.22,3.517-4.689,7.419-1.236,7.413-.623,3.938,2.749,7.141-9.818,1.229-17.835Z" transform="translate(211.907 84.538)" fill="#fecf67"/><path d="M563.271,456.962,552.111,455.1l-2.741-9.334-4.226,4.5-1.588,5.963-.826,7.011.52,5.2-22.776,9.3-2.834-2.361h-4.607l-8.862.811-7.247,5.543-10.033,1.307-.866.362,1.051,2.42,3.43.344,3.742-.008L498.232,489v7.393l-12.375-.459-2.6,2.925v4.5l12.377-5.627,20.534,2.281,28.517-3.423,4.564-12.547,21.674-11.408.869-15.661Z" transform="translate(188.818 174.17)" fill="#fecf67"/><path d="M627.12,271.461,621.406,268l-4.938-4.389-10.023-3.9-8.389-4.192-1.343,4.919,2.765,1.382,3.925,7.2-1.247,4.37v7.055l-9.7,3.8,1.427,2.855,4.087,3.615,2.122,3.715,6.934,4.954,3.868-.346,7.486-12.165,12.286-12.286Z" transform="translate(231.484 99.838)" fill="#fecf67"/><path d="M329.044,568l-30.8,26.236-25.1,33.084,18.252,3.421,12.548,9.126,7.984,6.844,9.127-4.563,11.407,9.129L353,663.826l18.253,18.253-9.127,12.546,4.563,11.409,14.831-10.268,14.829-25.1L448.8,608.39l-8.951-6.033,5.81-7.746v-5.428l2.683-1.787-12.75-2.025-6.4-1.826-7.125-8.015-8.305-8.3-7.454-3.311-21.923-8.432H357.278v-.51Z" transform="translate(106.724 216.838)" fill="#fecf67"/><path d="M266.745,355.52v-8.051l6.187-10.606,3.831-6.9-3.094-4.642-2.7-14.38,2.36-6.289-6.541-5.815H240l1.033-7.229-4.26-9.369,1.007-11.115,3.174-7.14-3.324-8.308.751-8.264L224.5,246.6l-2.9-5.79-5.823-8.318-5.44-4.663-11.044-.075-3.937-1.311-2.993,5.987-5.072,4.226-2.431,6.485-3.762,9.4-9.435.943-6.762.007-2.517,8.387-7.463,1.243-.79-4.74-4.285,1.837-10.168,4.621-6.9-5.172-5.749,2.156-6.915,8.036,3.659,1.567,3.26,4.333,8.547-3.76,14.831-3.423,1.14,20.534-1.14,17.111,10.266,12.548,15.97,15.971,12.548-2.282,12.548,4.563,22.815,13.69,9.127,6.844,14.829,2.281,7.851,2.619Z" transform="translate(46.934 88.475)" fill="#fecf67"/><path d="M449.517,536.6h-9.068l-3.117,1.558-8.6,4.781-7.2-7.194H407.563L405,540.02h-6.427l-4.92,2.811v6.6H382.512l-11.122-4.278-13.753-.039-14.854-3.495-5.228-4.068.737,2.3-3.416,20.362h25.931l22.5,8.653,8.013,3.56,8.748,8.746,6.623,7.446,5.5,1.571,19.848,3.135-7.585,5.057v4.838l-4.456,5.943,6.6,4.592.394-.466,23.955-21.676,2.281-15.97v-36.5l1.444-3.71Z" transform="translate(130.843 209.201)" fill="#fecf67"/><path d="M466.1,535.811h-6.578l-1.731-8.661-8.581-.8-10.485-2.859v-10.12l-5.16-8.6.83-12.465-10.07-6.972-8.282-.011-7.265-.975-9.126-4.147h-9.386l-9.768-4.071-2.972,2.229-6.662,1.9-11.49-3.537-2.232,2.435-13.156,4.112-.812,7.311-7.753,6.891-1.68,8.4-5.332,7.109-.37.369,1.488,4.463-7.984,15.971,2.281,12.547,15.828,4.706,1.834,5.708.342-.44,7.449,5.794,14.071,3.31h13.79l11.123,4.278h7.685v-5.376l7.059-4.034h5.55L411.125,556h16.826l6.495,6.5,6.741-3.745,3.784-1.9h9.589l6.253-1.459.115.5,5.492-14.121,2.943-2.7Z" transform="translate(125.633 186.032)" fill="#fecf67"/><path d="M425.251,461.289a6.883,6.883,0,1,1-6.883-6.883,6.883,6.883,0,0,1,6.883,6.883" transform="translate(160.775 177.545)" fill="#fdb515"/><circle cx="6.883" cy="6.883" r="6.883" transform="translate(592.296 652.423)" fill="none" stroke="#05c3de" stroke-miterlimit="10" stroke-width="1"/><path d="M428.52,477.487a6.883,6.883,0,1,1-5.012-8.343A6.883,6.883,0,0,1,428.52,477.487Z" transform="translate(162.132 183.223)" fill="none" stroke="#05c3de" stroke-miterlimit="10" stroke-width="1"/><circle cx="6.883" cy="6.883" r="6.883" transform="translate(504.842 546.752) rotate(-22.5)" fill="none" stroke="#05c3de" stroke-miterlimit="10" stroke-width="1"/><circle cx="6.883" cy="6.883" r="6.883" transform="translate(585.845 640.283)" fill="none" stroke="#05c3de" stroke-miterlimit="10" stroke-width="1"/><circle cx="6.883" cy="6.883" r="6.883" transform="translate(555.158 662.552)" fill="none" stroke="#05c3de" stroke-miterlimit="10" stroke-width="1"/><circle cx="6.883" cy="6.883" r="6.883" transform="translate(531.793 618.576)" fill="none" stroke="#05c3de" stroke-miterlimit="10" stroke-width="1"/><path d="M322.9,126.771a6.883,6.883,0,1,1-6.883-6.883,6.883,6.883,0,0,1,6.883,6.883" transform="translate(120.783 46.842)" fill="#05c3de"/><path d="M393.044,441.34A7.045,7.045,0,1,1,386,434.295a7.045,7.045,0,0,1,7.045,7.045" transform="translate(148.064 169.687)" fill="#05c3de"/><path d="M442.453,486.559a7.045,7.045,0,1,1-7.045-7.045,7.045,7.045,0,0,1,7.045,7.045" transform="translate(167.369 187.355)" fill="#05c3de"/><path d="M410.88,472.833a7.045,7.045,0,1,1-7.045-7.045,7.045,7.045,0,0,1,7.045,7.045" transform="translate(155.033 181.992)" fill="#05c3de"/><path d="M439.439,455.779a7.045,7.045,0,1,1-7.045-7.045,7.045,7.045,0,0,1,7.045,7.045" transform="translate(166.191 175.329)" fill="#05c3de"/><path d="M532.1,392.852a7.045,7.045,0,1,1-7.045-7.045,7.045,7.045,0,0,1,7.045,7.045" transform="translate(202.395 150.742)" fill="#05c3de"/><path d="M586.811,305.01a7.045,7.045,0,1,1-7.045-7.045,7.045,7.045,0,0,1,7.045,7.045" transform="translate(223.772 116.42)" fill="#05c3de"/><path d="M518.294,402.749a7.045,7.045,0,1,1-7.045-7.045,7.045,7.045,0,0,1,7.045,7.045" transform="translate(197.002 154.609)" fill="#05c3de"/><path d="M324.288,477.071a7.045,7.045,0,1,1-7.045-7.045,7.045,7.045,0,0,1,7.045,7.045" transform="translate(121.2 183.648)" fill="#05c3de"/><path d="M329.237,369.08a7.045,7.045,0,1,1-7.045-7.045,7.045,7.045,0,0,1,7.045,7.045" transform="translate(123.133 141.454)" fill="#05c3de"/><path d="M452.126,476.677a7.045,7.045,0,1,1-7.045-7.045,7.045,7.045,0,0,1,7.045,7.045" transform="translate(171.148 183.494)" fill="#05c3de"/><path d="M455.039,487.586a7.045,7.045,0,1,1-7.045-7.045,7.045,7.045,0,0,1,7.045,7.045" transform="translate(172.287 187.756)" fill="#05c3de"/><path d="M446.765,466.89a7.045,7.045,0,1,1-7.045-7.045,7.045,7.045,0,0,1,7.045,7.045" transform="translate(169.054 179.67)" fill="#05c3de"/><path d="M401.31,478.3a7.045,7.045,0,1,1-7.045-7.045,7.045,7.045,0,0,1,7.045,7.045" transform="translate(151.294 184.128)" fill="#05c3de"/><path d="M404.156,458.7a7.046,7.046,0,1,1-7.047-7.045,7.046,7.046,0,0,1,7.047,7.045" transform="translate(152.405 176.47)" fill="#05c3de"/><path d="M406.508,447.587a7.045,7.045,0,1,1-7.045-7.045,7.045,7.045,0,0,1,7.045,7.045" transform="translate(153.325 172.128)" fill="#05c3de"/><path d="M385.459,451.716a7.046,7.046,0,1,1-7.045-7.045,7.045,7.045,0,0,1,7.045,7.045" transform="translate(145.1 173.741)" fill="#05c3de"/><path d="M418.456,493.525a7.045,7.045,0,1,1-7.045-7.045,7.045,7.045,0,0,1,7.045,7.045" transform="translate(157.993 190.077)" fill="#05c3de"/></g></svg>