<svg xmlns="http://www.w3.org/2000/svg" xmlns:xlink="http://www.w3.org/1999/xlink" width="35" height="35" viewBox="0 0 35 35">
  <defs>
    <clipPath id="clip-path">
      <circle id="Elipse_26" data-name="Elipse 26" cx="17.5" cy="17.5" r="17.5" transform="translate(2191 -259)" fill="#fff"/>
    </clipPath>
    <clipPath id="clip-path-2">
      <path id="Caminho_552" data-name="Caminho 552" d="M7.421,20.382A17.631,17.631,0,1,0,25.053,2.752,17.631,17.631,0,0,0,7.421,20.382" transform="translate(-7.421 -2.752)" fill="none"/>
    </clipPath>
  </defs>
  <g id="Grupo_262" data-name="Grupo 262" transform="translate(-2284 405)">
    <g id="Grupo_de_máscara_10" data-name="Grupo de máscara 10" transform="translate(93 -146)" clip-path="url(#clip-path)">
      <g id="Grupo_254" data-name="Grupo 254" transform="translate(2191.258 -258.59)">
        <g id="Grupo_253" data-name="Grupo 253" transform="translate(0 0)" clip-path="url(#clip-path-2)">
          <path id="Caminho_505" data-name="Caminho 505" d="M59.269,40.2C39.68,29.929,20.091,51.449.5,41.173V4.33C20.091,14.6,39.68-6.916,59.269,3.358Z" transform="translate(-12.726 -4.478)" fill="#6fac46"/>
          <path id="Caminho_506" data-name="Caminho 506" d="M59.269,40.2C39.68,29.929,20.091,51.449.5,41.173V4.33C20.091,14.6,39.68-6.916,59.269,3.358Z" transform="translate(-12.726 -4.478)" fill="none" stroke="#6fac46" stroke-miterlimit="10" stroke-width="1"/>
          <path id="Caminho_507" data-name="Caminho 507" d="M4.184,21.936C11.766,18.7,19.35,11.747,26.932,4.776c7.683,2.508,15.365,5,23.048,11.3C42.4,19.279,34.814,26.2,27.232,33.152,19.549,30.665,11.867,28.2,4.184,21.936" transform="translate(-9.902 -1.201)" fill="#ffbc36"/>
          <path id="Caminho_508" data-name="Caminho 508" d="M31.185,14.7a10.139,10.139,0,0,1-.207,2.042,11.411,11.411,0,0,1-.715,2.309,14.521,14.521,0,0,1-8.917,8.02c-5.432,1.629-9.836-1.857-9.838-7.321a10.485,10.485,0,0,1,.4-2.835,12.3,12.3,0,0,1,.873-2.277,14.549,14.549,0,0,1,8.568-7.243c5.437-1.631,9.84,1.834,9.84,7.3" transform="translate(-4.288 0.494)" fill="#05c3de"/>
          <path id="Caminho_509" data-name="Caminho 509" d="M30.805,13.973a11.553,11.553,0,0,1-.714,2.309c-.014-.005-.021-.019-.039-.03-2.079-2.093-5.247-3.263-8.967-3.429-3.434-.115-8.594,1.215-9.354,1.323a12.3,12.3,0,0,1,.873-2.277,36.675,36.675,0,0,1,8.962-1.263,12.162,12.162,0,0,1,9.239,3.367" transform="translate(-4.116 3.262)" fill="#fff"/>
          <path id="Caminho_510" data-name="Caminho 510" d="M12.9,11.54a.794.794,0,0,0-.583.821c.007.4.26.6.6.511a.8.8,0,0,0,.586-.837c-.018-.378-.254-.583-.6-.495m.021,1.192c-.265.069-.417-.145-.424-.417a.593.593,0,0,1,.4-.638c.283-.074.419.164.426.413a.608.608,0,0,1-.4.641" transform="translate(-3.671 3.969)" fill="#43af50"/>
          <path id="Caminho_511" data-name="Caminho 511" d="M13.857,12.239c-.026-.131-.085-.2-.185-.214v-.007a.461.461,0,0,0,.246-.394.246.246,0,0,0-.1-.219.458.458,0,0,0-.366-.018,2.994,2.994,0,0,0-.323.1q-.011.641-.018,1.283c.057-.012.113-.026.168-.041,0-.185.005-.371.007-.556l.159-.039c.152-.03.217.018.26.191a1.109,1.109,0,0,0,.079.29c.058-.012.117-.025.175-.035a1.49,1.49,0,0,1-.1-.339m-.4-.231-.173.035c0-.157.005-.316.007-.473a1.042,1.042,0,0,1,.166-.055c.173-.042.293.007.293.175a.347.347,0,0,1-.293.318" transform="translate(-3.063 3.847)" fill="#43af50"/>
          <path id="Caminho_512" data-name="Caminho 512" d="M14.622,11.3a.64.64,0,0,0-.514-.055,3.3,3.3,0,0,0-.359.1q-.034.649-.065,1.3c.081-.007.185-.026.3-.048a1.039,1.039,0,0,0,.586-.311.892.892,0,0,0,.21-.548.477.477,0,0,0-.159-.433m-.594,1.15c-.065.011-.131.018-.173.021.016-.343.034-.685.049-1.03a.993.993,0,0,1,.2-.058c.355-.078.514.083.5.389a.685.685,0,0,1-.579.678" transform="translate(-2.62 3.74)" fill="#43af50"/>
          <path id="Caminho_513" data-name="Caminho 513" d="M15.206,11.205c.005-.048.009-.094.014-.141-.233.041-.466.083-.7.122l-.117,1.32c.24-.041.48-.081.721-.124.005-.049.009-.1.014-.147-.187.034-.375.067-.562.1.014-.157.03-.316.044-.473.168-.03.336-.06.5-.092,0-.046.005-.092.007-.14-.166.03-.33.06-.5.088.011-.14.023-.279.034-.419l.539-.094" transform="translate(-2.07 3.619)" fill="#43af50"/>
          <path id="Caminho_514" data-name="Caminho 514" d="M16.108,10.97l-.318.673c-.079.184-.145.33-.2.468l-.007,0c-.014-.134-.035-.274-.065-.431l-.127-.615-.217.032c-.088.445-.178.89-.267,1.336l.155-.012c.037-.194.074-.387.111-.579s.079-.426.106-.592c.014.155.046.318.079.5.042.2.083.406.124.609.041-.005.081-.012.122-.019.106-.228.214-.454.32-.682.087-.191.166-.364.231-.528l.007,0c-.03.168-.044.389-.065.576s-.03.389-.044.583c.053-.007.106-.014.159-.023q.048-.66.1-1.32l-.207.028" transform="translate(-1.68 3.526)" fill="#43af50"/>
          <path id="Caminho_515" data-name="Caminho 515" d="M17.358,11.472l-.145.005a1.448,1.448,0,0,1-.217.392c-.057-.092-.147-.231-.219-.355v-.009a.6.6,0,0,0,.364-.369c.037-.177-.06-.286-.216-.279a.44.44,0,0,0-.392.343.383.383,0,0,0,.037.279v.007a.643.643,0,0,0-.341.408.278.278,0,0,0,.3.362.72.72,0,0,0,.406-.175,1.341,1.341,0,0,0,.083.127l.2,0c-.055-.087-.106-.159-.157-.231a1.389,1.389,0,0,0,.3-.5m-.673-.291a.246.246,0,0,1,.2-.2c.1,0,.12.088.1.175-.021.108-.122.185-.267.272a.323.323,0,0,1-.037-.242m-.094.934a.187.187,0,0,1-.2-.254.44.44,0,0,1,.224-.279c.1.164.2.325.261.4a.413.413,0,0,1-.29.131" transform="translate(-0.676 3.461)" fill="#43af50"/>
          <path id="Caminho_516" data-name="Caminho 516" d="M18.319,11a.41.41,0,0,0-.311-.129,1.936,1.936,0,0,0-.309.012l-.408,1.327c.055.005.108.009.163.012l.159-.535a.527.527,0,0,0,.127.014.652.652,0,0,0,.42-.127.589.589,0,0,0,.18-.283A.326.326,0,0,0,18.319,11m-.138.293a.373.373,0,0,1-.4.272,1.066,1.066,0,0,1-.131-.021c.055-.175.111-.348.166-.523a.528.528,0,0,1,.152-.007c.175.005.261.1.21.279" transform="translate(0.145 3.471)" fill="#43af50"/>
          <path id="Caminho_517" data-name="Caminho 517" d="M18.905,11.055c-.048-.079-.141-.125-.307-.143a2.253,2.253,0,0,0-.311,0q-.228.662-.454,1.328l.157.012c.065-.194.132-.389.2-.583l.148.014c.138.019.182.094.152.283a1.981,1.981,0,0,0-.028.327l.166.018a2.841,2.841,0,0,1,.03-.376c.018-.143,0-.246-.09-.284l.009-.009a.487.487,0,0,0,.337-.32.305.305,0,0,0-.007-.269m-.148.274a.338.338,0,0,1-.362.226l-.159-.012c.055-.166.111-.33.166-.5a.932.932,0,0,1,.159.007c.166.012.254.1.2.276" transform="translate(0.56 3.499)" fill="#43af50"/>
          <path id="Caminho_518" data-name="Caminho 518" d="M19.337,11a.828.828,0,0,0-.827.608c-.159.4-.046.71.265.761s.641-.15.821-.6c.161-.4.069-.712-.26-.765m.1.744c-.124.3-.362.526-.6.484s-.283-.309-.17-.6.35-.537.6-.493.265.337.166.6" transform="translate(1.024 3.562)" fill="#43af50"/>
          <path id="Caminho_519" data-name="Caminho 519" d="M20.155,11.186a.8.8,0,0,0-.935.5.692.692,0,0,0-.072.526.45.45,0,0,0,.337.3,1.021,1.021,0,0,0,.383.019c.1-.207.2-.415.3-.624L19.8,11.8l-.065.14.231.06c-.062.131-.125.26-.187.39a.454.454,0,0,1-.21-.014c-.269-.079-.344-.32-.185-.65a.6.6,0,0,1,.707-.4.473.473,0,0,1,.221.127l.1-.127a.537.537,0,0,0-.256-.134" transform="translate(1.548 3.692)" fill="#43af50"/>
          <path id="Caminho_520" data-name="Caminho 520" d="M20.83,11.877a.368.368,0,0,0,.055-.272.383.383,0,0,0-.26-.23,1.393,1.393,0,0,0-.283-.078q-.35.625-.7,1.254c.046.018.092.034.138.049.1-.182.207-.364.311-.544l.127.053c.124.055.145.141.079.334a2,2,0,0,0-.1.329c.048.019.1.037.141.057a2.987,2.987,0,0,1,.118-.387c.041-.138.048-.251-.018-.313v-.007a.445.445,0,0,0,.387-.246m-.532.111-.141-.058c.087-.154.173-.307.258-.463a.552.552,0,0,1,.152.041.215.215,0,0,1,.115.337.3.3,0,0,1-.383.143" transform="translate(1.948 3.799)" fill="#43af50"/>
          <path id="Caminho_521" data-name="Caminho 521" d="M21.366,11.925l.087-.138c-.185-.094-.371-.187-.556-.279q-.39.609-.779,1.224l.576.293.079-.129-.438-.228c.094-.148.185-.3.279-.447.132.069.265.14.4.21.028-.046.057-.092.087-.136-.134-.067-.27-.136-.4-.2l.256-.392.417.223" transform="translate(2.311 3.96)" fill="#43af50"/>
          <path id="Caminho_522" data-name="Caminho 522" d="M21.681,11.854a.409.409,0,0,0-.549.132.4.4,0,0,0,.021.493c.094.145.1.244.021.357a.26.26,0,0,1-.352.079.457.457,0,0,1-.173-.219c-.041.039-.083.076-.124.113a.463.463,0,0,0,.2.223.412.412,0,0,0,.586-.138.389.389,0,0,0-.011-.495c-.087-.154-.108-.242-.034-.353a.24.24,0,0,1,.316-.071.407.407,0,0,1,.145.177l.122-.1a.388.388,0,0,0-.173-.2" transform="translate(2.625 4.182)" fill="#43af50"/>
          <path id="Caminho_523" data-name="Caminho 523" d="M22.11,12.132a.4.4,0,0,0-.553.108.406.406,0,0,0,.007.5c.085.154.09.247.011.359a.252.252,0,0,1-.355.064.406.406,0,0,1-.159-.23l-.131.1a.493.493,0,0,0,.189.244.409.409,0,0,0,.583-.111.4.4,0,0,0,.014-.507c-.083-.148-.1-.246-.019-.352a.214.214,0,0,1,.309-.049.453.453,0,0,1,.145.175c.042-.03.083-.06.125-.092a.526.526,0,0,0-.166-.208" transform="translate(2.934 4.386)" fill="#43af50"/>
          <path id="Caminho_524" data-name="Caminho 524" d="M22.541,12.479c-.246-.185-.615-.09-.9.267-.272.344-.286.708-.041.89s.6.117.906-.276c.269-.33.3-.691.039-.882m-.166.795c-.21.254-.482.39-.68.246s-.124-.435.072-.68.477-.4.673-.244.108.452-.065.678" transform="translate(3.311 4.633)" fill="#43af50"/>
          <path id="Caminho_525" data-name="Caminho 525" d="M20.64,13.942a.16.16,0,0,1-.117.148A.092.092,0,0,1,20.4,14a.169.169,0,0,1,.125-.154.089.089,0,0,1,.117.092" transform="translate(2.526 5.753)" fill="#fff"/>
          <path id="Caminho_526" data-name="Caminho 526" d="M20.146,14.1a.163.163,0,0,1-.12.152.09.09,0,0,1-.122-.088.17.17,0,0,1,.122-.152.088.088,0,0,1,.12.088" transform="translate(2.148 5.877)" fill="#fff"/>
          <path id="Caminho_527" data-name="Caminho 527" d="M20.081,14.46a.147.147,0,0,1-.1.132.079.079,0,0,1-.106-.078.147.147,0,0,1,.106-.132.079.079,0,0,1,.1.078" transform="translate(2.122 6.161)" fill="#fff"/>
          <path id="Caminho_528" data-name="Caminho 528" d="M19.982,14.692a.141.141,0,0,1-.1.125.072.072,0,0,1-.1-.072.136.136,0,0,1,.1-.125.075.075,0,0,1,.1.072" transform="translate(2.057 6.342)" fill="#fff"/>
          <path id="Caminho_529" data-name="Caminho 529" d="M19.757,14.864a.141.141,0,0,1-.1.127.072.072,0,0,1-.1-.074.134.134,0,0,1,.1-.125.074.074,0,0,1,.1.072" transform="translate(1.885 6.474)" fill="#fff"/>
          <path id="Caminho_530" data-name="Caminho 530" d="M19.445,15.03a.141.141,0,0,1-.1.127.073.073,0,0,1-.1-.072.138.138,0,0,1,.1-.125.075.075,0,0,1,.1.071" transform="translate(1.642 6.603)" fill="#fff"/>
          <path id="Caminho_531" data-name="Caminho 531" d="M19.7,15.361a.166.166,0,0,1-.118.152.091.091,0,0,1-.124-.087.173.173,0,0,1,.124-.154.089.089,0,0,1,.118.088" transform="translate(1.808 6.843)" fill="#fff"/>
          <path id="Caminho_532" data-name="Caminho 532" d="M19.72,15.68a.167.167,0,0,1-.117.152.091.091,0,0,1-.125-.087.174.174,0,0,1,.125-.154.089.089,0,0,1,.117.088" transform="translate(1.821 7.087)" fill="#fff"/>
          <path id="Caminho_533" data-name="Caminho 533" d="M18.528,15.282a.117.117,0,0,1-.079.1.061.061,0,0,1-.083-.058.117.117,0,0,1,.083-.1.057.057,0,0,1,.079.057" transform="translate(0.968 6.807)" fill="#fff"/>
          <path id="Caminho_534" data-name="Caminho 534" d="M18.192,15.377a.117.117,0,0,1-.079.1.058.058,0,0,1-.079-.058.114.114,0,0,1,.079-.1.059.059,0,0,1,.079.058" transform="translate(0.714 6.878)" fill="#fff"/>
          <path id="Caminho_535" data-name="Caminho 535" d="M18.309,15.748a.119.119,0,0,1-.079.1.062.062,0,0,1-.083-.058.117.117,0,0,1,.083-.1.058.058,0,0,1,.079.058" transform="translate(0.8 7.163)" fill="#fff"/>
          <path id="Caminho_536" data-name="Caminho 536" d="M17.009,16.715a.168.168,0,0,1-.117.154.087.087,0,0,1-.122-.085.173.173,0,0,1,.122-.155.086.086,0,0,1,.117.087" transform="translate(-0.254 7.881)" fill="#fff"/>
          <path id="Caminho_537" data-name="Caminho 537" d="M16.945,15.1a.174.174,0,0,1-.12.154.089.089,0,0,1-.122-.085.174.174,0,0,1,.122-.155.088.088,0,0,1,.12.087" transform="translate(-0.306 6.642)" fill="#fff"/>
          <path id="Caminho_538" data-name="Caminho 538" d="M17.371,14.464a.174.174,0,0,1-.12.155.088.088,0,0,1-.122-.087.171.171,0,0,1,.122-.154.088.088,0,0,1,.12.085" transform="translate(0.021 6.157)" fill="#fff"/>
          <path id="Caminho_539" data-name="Caminho 539" d="M16.857,14.136a.171.171,0,0,1-.12.155.087.087,0,0,1-.118-.087.174.174,0,0,1,.118-.155.087.087,0,0,1,.12.087" transform="translate(-0.37 5.904)" fill="#fff"/>
          <path id="Caminho_540" data-name="Caminho 540" d="M16.363,14.617a.169.169,0,0,1-.12.155.088.088,0,0,1-.118-.088.166.166,0,0,1,.118-.152.086.086,0,0,1,.12.085" transform="translate(-0.749 6.274)" fill="#fff"/>
          <path id="Caminho_541" data-name="Caminho 541" d="M16.574,14.771a.105.105,0,0,1-.076.1.055.055,0,0,1-.076-.051.11.11,0,0,1,.076-.1.056.056,0,0,1,.076.055" transform="translate(-0.521 6.417)" fill="#fff"/>
          <path id="Caminho_542" data-name="Caminho 542" d="M18.168,12.5a.17.17,0,0,1-.118.154.088.088,0,0,1-.12-.087.17.17,0,0,1,.12-.154.086.086,0,0,1,.118.087" transform="translate(0.635 4.65)" fill="#fff"/>
          <path id="Caminho_543" data-name="Caminho 543" d="M18.7,10.374a.174.174,0,0,1-.12.155.09.09,0,0,1-.122-.088.174.174,0,0,1,.122-.154.088.088,0,0,1,.12.087" transform="translate(1.039 3.02)" fill="#fff"/>
          <path id="Caminho_544" data-name="Caminho 544" d="M15.222,13.729a.165.165,0,0,1-.12.152.087.087,0,0,1-.118-.087.17.17,0,0,1,.118-.154.088.088,0,0,1,.12.088" transform="translate(-1.624 5.591)" fill="#fff"/>
          <path id="Caminho_545" data-name="Caminho 545" d="M14.642,16.39a.165.165,0,0,1-.117.152.09.09,0,0,1-.122-.088.171.171,0,0,1,.122-.154.089.089,0,0,1,.117.09" transform="translate(-2.068 7.63)" fill="#fff"/>
          <path id="Caminho_546" data-name="Caminho 546" d="M13.663,16.251a.12.12,0,0,1-.09.113.065.065,0,0,1-.088-.069.12.12,0,0,1,.088-.111.068.068,0,0,1,.09.067" transform="translate(-2.773 7.542)" fill="#fff"/>
          <path id="Caminho_547" data-name="Caminho 547" d="M13.7,15.816a.121.121,0,0,1-.09.113.069.069,0,0,1-.094-.067.126.126,0,0,1,.094-.113.069.069,0,0,1,.09.067" transform="translate(-2.748 7.209)" fill="#fff"/>
          <path id="Caminho_548" data-name="Caminho 548" d="M13.424,15.516a.11.11,0,0,1-.083.1.063.063,0,0,1-.083-.062.113.113,0,0,1,.083-.1.062.062,0,0,1,.083.062" transform="translate(-2.947 6.983)" fill="#fff"/>
          <path id="Caminho_549" data-name="Caminho 549" d="M12.908,15.721a.158.158,0,0,1-.12.148.093.093,0,0,1-.122-.094.161.161,0,0,1,.122-.148.092.092,0,0,1,.12.094" transform="translate(-3.4 7.115)" fill="#fff"/>
          <path id="Caminho_550" data-name="Caminho 550" d="M12.332,16.069a.088.088,0,0,1-.069.081.053.053,0,0,1-.069-.051.09.09,0,0,1,.069-.085.056.056,0,0,1,.069.055" transform="translate(-3.762 7.413)" fill="#fff"/>
          <path id="Caminho_551" data-name="Caminho 551" d="M12.427,13.273a.153.153,0,0,1-.117.147.1.1,0,0,1-.122-.1.162.162,0,0,1,.122-.145.092.092,0,0,1,.117.094" transform="translate(-3.766 5.239)" fill="#fff"/>
        </g>
      </g>
    </g>
    <g id="Elipse_29" data-name="Elipse 29" transform="translate(2284 -405)" fill="none" stroke="#781e77" stroke-width="2">
      <circle cx="17.5" cy="17.5" r="17.5" stroke="none"/>
      <circle cx="17.5" cy="17.5" r="16.5" fill="none"/>
    </g>
  </g>
</svg>
