<svg xmlns="http://www.w3.org/2000/svg" width="1580.61" height="911.787" viewBox="0 0 1580.61 911.787">
  <g id="Component_30_1" data-name="Component 30 – 1" transform="translate(0 0)">
    <text id="Sabrina_Santos_Nascimento_de_Lima_aluna_de_São_Francisco_do_Conde_BA" data-name="Sabrina Santos Nascimento de Lima
aluna de São Francisco do Conde – BA" transform="translate(723.61 605.93)" fill="#f57920" stroke="rgba(0,0,0,0)" stroke-miterlimit="10" stroke-width="1" font-size="30" font-family="WorkSans-Regular, Work Sans"><tspan x="0" y="28">Sabrina Santos Nascimento de Lima</tspan><tspan font-size="25" font-family="WorkSans-SemiBold, Work Sans" font-weight="600"><tspan x="0" y="63">ALUNA DE SÃO FRANCISCO DO CONDE – BA</tspan></tspan></text>
    <text id="Fiquei_sabendo_sobre_o_Ativa_Juventude_quando_eu_cursava_o_9_ano_do_Ensino_Fundamental_no_Centro_de_Estudos_e_Aperfeiçoamento_do_Saber_CEAS_e_desde_o_início_fiquei_bastante_curiosa_com_o_nome_do_programa_e_como_ele_poderia_me_ajudar_a_planejar_o_meu_f" data-name="Fiquei sabendo sobre o Ativa Juventude quando eu cursava o 9º ano do Ensino Fundamental no Centro de Estudos e Aperfeiçoamento do Saber (CEAS) e, desde o início, fiquei bastante curiosa com o nome do programa e como ele poderia me ajudar a planejar o meu f" transform="translate(723.61 196.93)" fill="#781e77" font-size="25" font-family="WorkSans-Regular, Work Sans"><tspan x="0" y="23">Fiquei sabendo sobre o Ativa Juventude quando eu cursava o 9º ano </tspan><tspan x="0" y="58">do Ensino Fundamental no Centro de Estudos e Aperfeiçoamento do </tspan><tspan x="0" y="93">Saber (CEAS) e, desde o início, fiquei bastante curiosa com o nome </tspan><tspan x="0" y="128">do programa e como ele poderia me ajudar a planejar o meu futuro. </tspan><tspan x="0" y="163">Participei das atividades na modalidade híbrida, com parte das </tspan><tspan x="0" y="198">atividades sendo realizadas remotamente, e achei muito </tspan><tspan x="0" y="233">interessante que, apesar de estarmos longe, eu me sentia muito </tspan><tspan x="0" y="268">perto das outras pessoas. Foi sem dúvida uma experiência divertida </tspan><tspan x="0" y="303">e inesquecível! Levarei para sempre comigo o aprendizado de que </tspan><tspan x="0" y="338">não podemos desistir dos nossos sonhos e dos nossos objetivos.</tspan></text>
    <g id="Group_170" data-name="Group 170" transform="translate(263.61 -7271.062)">
      <circle id="Ellipse_14" data-name="Ellipse 14" cx="38.386" cy="38.386" r="38.386" transform="translate(809.016 7326.148)" fill="#ea368e"/>
      <rect id="Rectangle_119" data-name="Rectangle 119" width="85.984" height="30.709" transform="translate(707.19 7336.929) rotate(-50)" fill="#05c3de"/>
      <rect id="Rectangle_121" data-name="Rectangle 121" width="85.984" height="30.709" transform="translate(816.206 7336.929) rotate(-50)" fill="#f57920"/>
      <circle id="Ellipse_13" data-name="Ellipse 13" cx="38.386" cy="38.386" r="38.386" transform="translate(700 7326.148)" fill="#fdb515"/>
    </g>
    <g id="chevron-double-right" transform="translate(973.187 763.609)">
      <path id="Path_chevron-double-right" data-name="Path / chevron-double-right" d="M5.59,11.617,11.207,6l23.9,23.9-23.9,23.9L5.59,48.189,23.836,29.9,5.59,11.617m23.9,0L35.11,6l23.9,23.9-23.9,23.9-5.617-5.617L47.739,29.9Z" transform="translate(-5.59 -6)" fill="#781e77"/>
    </g>
    <g id="Group_252" data-name="Group 252" transform="translate(0 272.634)">
      <path id="Path_501" data-name="Path 501" d="M163.773,336.665h58.1a67.34,67.34,0,1,1,134.679,0h58.1a125.442,125.442,0,1,0-250.884,0" transform="translate(-163.773 35.403)" fill="#ffb600"/>
      <rect id="Rectangle_378" data-name="Rectangle 378" width="315.139" height="58.102" transform="matrix(-0.612, -0.791, 0.791, -0.612, 198.853, 639.134)" fill="#00c3e0"/>
      <rect id="Rectangle_379" data-name="Rectangle 379" width="58.102" height="314.691" transform="translate(244.8 639.153) rotate(-142.235)" fill="#f67900"/>
      <path id="Path_502" data-name="Path 502" d="M0,337.108H58.1a67.34,67.34,0,1,1,134.679,0h58.1A125.442,125.442,0,1,0,0,337.108" transform="translate(192.725 35.48)" fill="#ec308e"/>
      <path id="Path_503" data-name="Path 503" d="M244.114,220.41A110.386,110.386,0,0,0,309.2,199.254l-30.215-41.588a59.578,59.578,0,1,1-70.037-96.4L178.734,19.68a110.95,110.95,0,0,0,65.38,200.73" transform="translate(-22.134 1.541)" fill="#f67900"/>
      <path id="Path_504" data-name="Path 504" d="M224.6,202.442a110.983,110.983,0,0,0-47.873-199.4,110.251,110.251,0,0,0-82.595,19.83l30.215,41.588a59.578,59.578,0,0,1,70.037,96.4Z" transform="translate(62.473 -1.646)" fill="#791879"/>
    </g>
  </g>
</svg>
